<svg width="459" height="444" viewBox="0 0 459 444" fill="none" xmlns="http://www.w3.org/2000/svg">
<path d="M317.188 414.952H186.948C167.414 414.952 151.521 399.067 151.521 379.542V35.4101C151.521 15.885 167.414 0 186.948 0H317.188C336.722 0 352.614 15.885 352.614 35.4101C355.039 173.603 359.173 328.357 352.614 379.542C352.614 399.067 336.722 414.952 317.188 414.952L317.188 414.952Z" fill="#3F3D56"/>
<path d="M354.43 126.583C353.604 126.583 352.932 127.255 352.932 128.081V176.018C352.932 176.844 353.604 177.516 354.43 177.516C355.257 177.516 355.929 176.844 355.929 176.018V128.081C355.929 127.255 355.257 126.583 354.43 126.583Z" fill="#3F3D56"/>
<path d="M349.242 35.4103V379.536C349.242 396.531 336.008 410.433 319.275 411.511H319.267C319.02 411.526 318.773 411.541 318.518 411.549C318.076 411.571 317.634 411.579 317.184 411.579C317.184 411.579 315.536 411.459 312.523 411.234C309.481 411.009 305.052 410.672 299.529 410.23C297.873 410.103 296.127 409.961 294.284 409.811C290.612 409.511 286.58 409.182 282.256 408.807C280.533 408.665 278.749 408.508 276.929 408.35C267.621 407.549 257.198 406.613 246.205 405.549C244.346 405.377 242.473 405.197 240.584 405.01C240.09 404.957 154.894 383.551 154.894 379.536V35.4103C154.894 17.7112 169.244 3.36768 186.951 3.36768H206.09C209.147 3.36768 211.605 5.74952 211.868 8.79801C211.89 9.00025 211.913 9.20245 211.95 9.40471C212.505 12.4682 215.315 14.6028 218.432 14.6028H285.704C288.821 14.6028 291.631 12.4682 292.186 9.40471C292.223 9.20246 292.245 9.00026 292.268 8.79801C292.53 5.74953 294.988 3.36768 298.046 3.36768H317.184C334.892 3.36768 349.242 17.7112 349.242 35.4103H349.242Z" fill="#242A32"/>
<path d="M150.772 90.6304C149.946 90.6304 149.273 91.3022 149.273 92.1284V104.113C149.273 104.939 149.946 105.611 150.772 105.611C151.599 105.611 152.271 104.939 152.271 104.113V92.1284C152.271 91.3022 151.599 90.6304 150.772 90.6304Z" fill="#3F3D56"/>
<path d="M150.772 126.583C149.946 126.583 149.273 127.255 149.273 128.081V151.3C149.273 152.127 149.946 152.798 150.772 152.798C151.599 152.798 152.271 152.127 152.271 151.3V128.081C152.271 127.255 151.599 126.583 150.772 126.583V126.583Z" fill="#3F3D56"/>
<path d="M150.772 159.54C149.946 159.54 149.273 160.211 149.273 161.038V184.257C149.273 185.083 149.946 185.755 150.772 185.755C151.599 185.755 152.271 185.083 152.271 184.257V161.038C152.271 160.211 151.599 159.54 150.772 159.54Z" fill="#3F3D56"/>
<path d="M205.598 8.61377H176.877C176.738 8.61377 176.625 8.72655 176.625 8.86567V12.1069C176.625 12.246 176.738 12.3588 176.877 12.3588H205.598C205.737 12.3588 205.85 12.246 205.85 12.1069V8.86567C205.85 8.72655 205.737 8.61377 205.598 8.61377Z" fill="#E6E6E6"/>
<path d="M302.782 12.3588C304.437 12.3588 305.779 11.0174 305.779 9.36274C305.779 7.70807 304.437 6.3667 302.782 6.3667C301.126 6.3667 299.784 7.70807 299.784 9.36274C299.784 11.0174 301.126 12.3588 302.782 12.3588Z" fill="#E6E6E6"/>
<path d="M311.025 12.3588C312.68 12.3588 314.022 11.0174 314.022 9.36274C314.022 7.70807 312.68 6.3667 311.025 6.3667C309.369 6.3667 308.027 7.70807 308.027 9.36274C308.027 11.0174 309.369 12.3588 311.025 12.3588Z" fill="#E6E6E6"/>
<path d="M319.268 12.3588C320.923 12.3588 322.265 11.0174 322.265 9.36274C322.265 7.70807 320.923 6.3667 319.268 6.3667C317.612 6.3667 316.271 7.70807 316.271 9.36274C316.271 11.0174 317.612 12.3588 319.268 12.3588Z" fill="#E6E6E6"/>
<path d="M11.6289 443.034C11.6289 443.57 12.0595 444 12.5957 444H458.033C458.569 444 459 443.57 459 443.034C459 442.498 458.569 442.067 458.033 442.067H12.5957C12.0595 442.067 11.6289 442.498 11.6289 443.034Z" fill="#242A32"/>
<path d="M153.655 408.687L144.52 408.686L140.175 373.469L153.657 373.47L153.655 408.687Z" fill="#FFB6B6"/>
<path d="M122.358 408.479C122.074 408.958 121.924 410.504 121.924 411.06C121.924 412.772 123.312 414.159 125.024 414.159H153.313C154.481 414.159 155.428 413.213 155.428 412.045V410.868C155.428 410.868 156.827 407.33 153.946 402.969C153.946 402.969 150.365 406.384 145.014 401.035L143.437 398.178L132.015 406.528L125.684 407.306C124.299 407.477 123.071 407.28 122.358 408.479H122.358V408.479H122.358Z" fill="#2F2E41"/>
<path d="M103.139 359.772L94.004 359.742L89.7705 324.511L103.252 324.555L103.139 359.772Z" fill="#FFB6B6"/>
<path d="M71.8431 359.465C71.5572 359.943 71.4022 361.488 71.4004 362.045C71.395 363.756 72.7786 365.148 74.4908 365.153L102.779 365.243C103.947 365.247 104.897 364.303 104.901 363.136L104.905 361.959C104.905 361.959 106.315 358.425 103.448 354.055C103.448 354.055 99.8565 357.458 94.5228 352.093L92.954 349.231L81.5058 357.544L75.1724 358.303C73.7868 358.469 72.5595 358.268 71.8432 359.465H71.8431V359.465Z" fill="#2F2E41"/>
<path d="M140.332 194.887L128.958 195.699C128.958 195.699 90.4534 217.581 87.2037 222.454C83.9541 227.326 79.4858 234.228 83.5479 241.536C87.6099 248.845 84.5183 337.334 84.5183 337.334L103.929 332.945L116.366 240.361L142.363 236.707C142.363 236.707 151.299 255.978 148.05 271.921C144.8 287.865 143.175 297.609 143.175 297.609L139.113 391.805L154.955 391.399L169.172 304.105L193.545 235.083L161.861 197.729L140.332 194.887Z" fill="#2F2E41"/>
<path d="M196.387 95.0078L172.828 97.4439L170.39 105.564L147.643 117.745L154.954 168.903L149.268 177.835L151.705 186.767C151.705 186.767 145.206 187.579 146.018 192.451L131.395 194.888C131.395 194.888 150.79 198.845 154.903 218.385C159.017 237.925 193.138 240.361 193.138 240.361L219.947 156.722L222.385 107.188L203.699 102.316L196.387 95.0078Z" fill="#2DB2C4"/>
<path d="M183.971 91.9263C194.086 91.9263 202.286 83.7302 202.286 73.6199C202.286 63.5095 194.086 55.3135 183.971 55.3135C173.856 55.3135 165.656 63.5095 165.656 73.6199C165.656 83.7302 173.856 91.9263 183.971 91.9263Z" fill="#FFB6B6"/>
<path d="M174.452 90.1352C174.452 90.1352 158.204 89.3232 159.829 76.3307C155.807 62.4951 159.367 53.5118 172.015 50.3457C172.015 50.3457 175.265 49.5337 176.077 49.5337C186.763 49.5337 192.325 52.7818 192.325 52.7818C192.325 52.7818 191.513 49.5657 192.325 50.3617C193.138 51.1578 193.95 52.7818 193.95 52.7818C193.95 52.7818 202.074 56.842 202.074 64.9623C202.074 73.0826 202.074 69.8344 202.074 69.8344C202.074 69.8344 200.449 69.8344 198.825 64.9623C197.2 60.0901 186.68 63.3382 186.68 63.3382L187.451 64.9623L185.014 64.1502L182.576 66.5863L180.952 65.7743C180.952 65.7743 174.452 65.7743 175.265 65.7743C176.077 65.7743 175.511 71.2928 175.511 71.2928L169.578 77.9548L176.077 90.1352H174.452Z" fill="#2F2E41"/>
<path d="M87.8871 187.054C83.2618 189.578 80.8145 194.008 82.4209 196.95C84.0273 199.892 89.0791 200.232 93.7045 197.708C95.7292 196.604 97.3364 195.134 98.3691 193.583L117.834 182.646L112.504 173.625L93.8815 185.365C92.0182 185.394 89.9118 185.95 87.8871 187.054H87.8871Z" fill="#FFB6B6"/>
<path d="M153.528 118.123C153.528 118.123 145.898 115.22 143.269 118.715C140.64 122.21 123.273 164.623 123.273 164.623L97.793 177.924L104.958 190.396L137.769 179.477L159.418 139.904L153.528 118.123Z" fill="#2DB2C4"/>
<path d="M394.141 257.412V343.487C394.141 351.099 387.945 357.292 380.33 357.292H167.478C159.862 357.292 153.667 351.099 153.667 343.487V257.412C153.667 249.8 159.862 243.607 167.478 243.607H380.33C387.945 243.607 394.141 249.8 394.141 257.412Z" fill="#242A32"/>
<path d="M394.141 257.412V343.487C394.141 351.099 387.945 357.292 380.33 357.292H167.478C159.862 357.292 153.667 351.099 153.667 343.487V257.412C153.667 249.8 159.862 243.607 167.478 243.607H380.33C387.945 243.607 394.141 249.8 394.141 257.412ZM380.33 355.668C387.06 355.668 392.516 350.214 392.516 343.487V300.091C392.516 269.793 367.943 245.231 337.63 245.231H167.478C160.748 245.231 155.292 250.685 155.292 257.412V343.487C155.292 350.214 160.748 355.668 167.478 355.668H380.33Z" fill="#3F3D56"/>
<path d="M249.215 295.611H221.414C220.713 295.611 220.143 296.181 220.143 296.881C220.143 297.582 220.713 298.152 221.414 298.152H249.215C249.916 298.152 250.486 297.582 250.486 296.881C250.486 296.181 249.916 295.611 249.215 295.611Z" fill="#2DB2C4"/>
<path d="M291.46 295.611H263.659C262.958 295.611 262.388 296.181 262.388 296.881C262.388 297.582 262.958 298.152 263.659 298.152H291.46C292.161 298.152 292.731 297.582 292.731 296.881C292.731 296.181 292.161 295.611 291.46 295.611Z" fill="#2DB2C4"/>
<path d="M249.215 309.501H221.414C220.713 309.501 220.143 310.071 220.143 310.772C220.143 311.472 220.713 312.042 221.414 312.042H249.215C249.916 312.042 250.486 311.472 250.486 310.772C250.486 310.071 249.916 309.501 249.215 309.501Z" fill="#2DB2C4"/>
<path d="M291.46 309.501H263.659C262.958 309.501 262.388 310.071 262.388 310.772C262.388 311.472 262.958 312.042 263.659 312.042H291.46C292.161 312.042 292.731 311.472 292.731 310.772C292.731 310.071 292.161 309.501 291.46 309.501Z" fill="#2DB2C4"/>
<path d="M334.977 310.772C334.977 310.071 334.407 309.501 333.706 309.501H305.905C305.204 309.501 304.634 310.071 304.634 310.772C304.634 311.472 305.204 312.042 305.905 312.042H333.706C334.407 312.042 334.977 311.472 334.977 310.772Z" fill="#2DB2C4"/>
<path d="M232.967 284.519C233.668 284.519 234.238 283.949 234.238 283.249C234.238 282.548 233.668 281.979 232.967 281.979H205.166C204.465 281.979 203.895 282.548 203.895 283.249C203.895 283.949 204.465 284.519 205.166 284.519H232.967Z" fill="#2DB2C4"/>
<path d="M314.841 284.003H342.643C343.344 284.003 343.914 283.433 343.914 282.732C343.914 282.032 343.344 281.462 342.643 281.462H314.841C314.141 281.462 313.57 282.032 313.57 282.732C313.57 283.433 314.141 284.003 314.841 284.003Z" fill="#2DB2C4"/>
<path d="M244.678 284.27H302.317C303.017 284.27 303.587 283.7 303.587 282.999C303.587 282.299 303.017 281.729 302.317 281.729H244.678C243.978 281.729 243.407 282.299 243.407 282.999C243.407 283.7 243.978 284.27 244.678 284.27Z" fill="#2DB2C4"/>
<path d="M267.357 322.122H239.555C238.854 322.122 238.284 322.692 238.284 323.392C238.284 324.093 238.854 324.663 239.555 324.663H267.357C268.058 324.663 268.628 324.093 268.628 323.392C268.628 322.692 268.058 322.122 267.357 322.122Z" fill="#2DB2C4"/>
<path d="M340.942 209.066C340.942 182.215 318.237 167.444 292.3 160.447C259.048 151.478 234.694 169.628 243.658 209.066C245.69 218.005 250.55 228.444 256.565 237.374H304.297C320.242 226.998 340.942 229.908 340.942 209.066H340.942Z" fill="#2DB2C4"/>
<path d="M291.587 259.826C294.302 254.653 297.744 250.92 301.537 248.079H256.83C268.337 264.507 283.596 275.051 291.587 259.826Z" fill="#2DB2C4"/>
<path d="M286.428 180.321C289.298 180.321 291.624 182.646 291.624 185.515V195.904H281.231V185.515C281.231 182.646 283.558 180.321 286.428 180.321ZM294.223 195.904V185.515C294.223 181.212 290.733 177.724 286.428 177.724C282.122 177.724 278.632 181.212 278.632 185.515V195.904C275.762 195.904 273.436 198.23 273.436 201.098V214.084C273.436 216.953 275.762 219.279 278.632 219.279H294.223C297.093 219.279 299.42 216.953 299.42 214.084V201.098C299.42 198.23 297.093 195.904 294.223 195.904H294.223ZM278.632 198.501H294.223C295.658 198.501 296.821 199.664 296.821 201.098V214.084C296.821 215.519 295.658 216.682 294.223 216.682H278.632C277.197 216.682 276.034 215.519 276.034 214.084V201.098C276.034 199.664 277.197 198.501 278.632 198.501Z" fill="white"/>
<path d="M212.162 240.802C211.535 246.032 213.726 250.594 217.056 250.993C220.385 251.391 223.592 247.475 224.219 242.245C224.493 239.956 224.227 237.795 223.562 236.055L225.939 213.862L215.496 212.969L214.262 234.941C213.205 236.475 212.436 238.513 212.162 240.802Z" fill="#FFB6B6"/>
<path d="M214.668 108.406C214.668 108.406 226.041 105.158 228.479 110.03C230.916 114.903 236.603 179.053 236.603 179.053L225.635 230.259L213.043 226.963L219.542 174.993L210.605 136.015L214.668 108.406Z" fill="#2DB2C4"/>
<path d="M47.5261 264.186C73.774 264.186 95.0522 242.918 95.0522 216.682C95.0522 190.446 73.774 169.178 47.5261 169.178C21.2782 169.178 0 190.446 0 216.682C0 242.918 21.2782 264.186 47.5261 264.186Z" fill="#2DB2C4"/>
<path d="M47.5264 195.416C50.8837 195.416 53.6053 198.136 53.6053 201.492V213.644H41.4475V201.492C41.4475 198.136 44.1691 195.416 47.5264 195.416ZM56.6448 213.644V201.492C56.6448 196.458 52.5624 192.377 47.5264 192.377C42.4905 192.377 38.408 196.458 38.408 201.492V213.644C35.0507 213.644 32.3291 216.364 32.3291 219.72V234.91C32.3291 238.266 35.0507 240.986 38.408 240.986H56.6448C60.0021 240.986 62.7237 238.266 62.7237 234.91V219.72C62.7237 216.364 60.0021 213.644 56.6448 213.644H56.6448ZM38.408 216.682H56.6448C58.3234 216.682 59.6843 218.042 59.6843 219.72V234.91C59.6843 236.588 58.3234 237.948 56.6448 237.948H38.408C36.7294 237.948 35.3686 236.588 35.3686 234.91V219.72C35.3686 218.042 36.7294 216.682 38.408 216.682Z" fill="white"/>
</svg>
