<svg width="314" height="314" viewBox="0 0 314 314" fill="none" xmlns="http://www.w3.org/2000/svg">
<path d="M314 159C314 244.604 244.604 314 159 314L24 314C12.9543 314 4 305.046 4 294L4.00003 14C4.00003 8.47715 8.47717 3.99997 14 3.99997L294 4C305.046 4 314 12.9543 314 24L314 159Z" fill="url(#paint0_linear_441_5432)"/>
<path d="M104 4H14C8.47716 4 4 8.47715 4 14V104" stroke="url(#paint1_linear_441_5432)" stroke-width="7"/>
<path d="M89 19H23C20.7909 19 19 20.7909 19 23V89" stroke="url(#paint2_linear_441_5432)" stroke-width="5"/>
<defs>
<linearGradient id="paint0_linear_441_5432" x1="206" y1="165.5" x2="4.00002" y2="3.99996" gradientUnits="userSpaceOnUse">
<stop stop-color="white" stop-opacity="0"/>
<stop offset="1" stop-color="#B9FEEA"/>
</linearGradient>
<linearGradient id="paint1_linear_441_5432" x1="4" y1="4" x2="56.5" y2="58.5" gradientUnits="userSpaceOnUse">
<stop stop-color="#16B8D5"/>
<stop offset="1" stop-color="white" stop-opacity="0"/>
</linearGradient>
<linearGradient id="paint2_linear_441_5432" x1="19" y1="19" x2="55.75" y2="57.15" gradientUnits="userSpaceOnUse">
<stop stop-color="#16B8D5"/>
<stop offset="1" stop-color="white" stop-opacity="0"/>
</linearGradient>
</defs>
</svg>
