<svg width="191" height="50" viewBox="0 0 191 50" fill="none" xmlns="http://www.w3.org/2000/svg">
<path d="M82.356 33.3376L80.3005 39.7215C80.2736 39.825 80.2122 39.916 80.1264 39.9792C80.0409 40.0424 79.9361 40.074 79.8299 40.0688H74.8405C74.5419 40.0688 74.4536 39.8951 74.4998 39.6451L83.0707 14.732C83.3562 13.8842 83.4982 12.9941 83.491 12.0989C83.4875 12.0252 83.512 11.953 83.5596 11.8971C83.6075 11.8412 83.6747 11.8058 83.7475 11.7983H90.6031C90.8176 11.7983 90.9017 11.8407 90.9479 12.0566L100.674 39.6792C100.759 39.8951 100.716 40.0688 100.46 40.0688H94.8989C94.7969 40.0861 94.692 40.0653 94.6045 40.0097C94.5169 39.9542 94.4524 39.8681 94.4242 39.7681L92.2383 33.3376H82.356ZM90.6704 27.9401C89.8298 25.091 88.0981 19.8713 87.2868 16.8064H87.2448C86.5552 19.6978 85.0128 24.4264 83.8819 27.9401H90.6704Z" fill="#FA0F00"/>
<path d="M101.359 29.5361C101.359 23.3639 105.945 18.1865 113.789 18.1865C114.129 18.1865 114.558 18.2289 115.201 18.2712V9.77065C115.197 9.73003 115.201 9.68888 115.214 9.65024C115.228 9.61163 115.25 9.57652 115.278 9.5476C115.307 9.51868 115.342 9.4967 115.38 9.48326C115.419 9.46986 115.459 9.46534 115.5 9.4701H120.901C121.115 9.4701 121.158 9.55475 121.158 9.72833V35.2341C121.146 36.2869 121.204 37.339 121.33 38.3838C121.33 38.5998 121.288 38.6886 121.031 38.7734C118.361 39.9164 115.489 40.5039 112.587 40.5004C106.244 40.5004 101.359 36.8768 101.359 29.5361ZM115.201 23.4105C114.69 23.2422 114.153 23.1691 113.616 23.1946C110.317 23.1946 107.488 25.2224 107.488 29.2355C107.488 33.507 109.93 35.3654 113.188 35.3654C113.869 35.3942 114.549 35.307 115.201 35.107V23.4105Z" fill="#FA0F00"/>
<path d="M145.702 29.2355C145.702 36.0088 141.331 40.5004 135.16 40.5004C127.83 40.5004 124.576 34.9338 124.576 29.3668C124.576 23.2369 128.645 18.1865 135.244 18.1865C142.146 18.1865 145.702 23.4105 145.702 29.2355ZM130.616 29.2779C130.616 33.0879 132.373 35.4925 135.24 35.4925C137.729 35.4925 139.612 33.3377 139.612 29.3668C139.612 25.9801 138.241 23.1946 134.988 23.1946C132.504 23.1946 130.616 25.4383 130.616 29.2779Z" fill="#FA0F00"/>
<path d="M154.709 9.47021C155.05 9.47021 155.13 9.51254 155.13 9.8131V18.6608C156.303 18.3444 157.513 18.185 158.728 18.1866C165.033 18.1866 169.013 22.674 169.013 28.4567C169.013 36.5297 162.67 40.5006 156.16 40.5006C153.88 40.5165 151.612 40.1811 149.434 39.5058C149.358 39.4638 149.295 39.4026 149.25 39.3283C149.205 39.254 149.18 39.1693 149.178 39.0825V9.77077C149.178 9.55487 149.262 9.47021 149.476 9.47021H154.709ZM157.652 23.2793C156.799 23.2686 155.949 23.3856 155.13 23.6265V35.3443C155.65 35.4634 156.181 35.5204 156.714 35.5138C159.972 35.5138 162.927 33.5283 162.927 29.0409C162.936 25.0912 160.666 23.2793 157.664 23.2793H157.652Z" fill="#FA0F00"/>
<path d="M177.399 30.9201C177.613 33.3797 179.328 35.4074 183.527 35.4074C185.334 35.4425 187.127 35.1039 188.798 34.4126C188.929 34.3279 189.055 34.3702 189.055 34.6285V38.7307C189.055 39.031 188.971 39.1539 188.756 39.247C187.041 40.0685 185.158 40.5171 182.199 40.5171C174.141 40.5171 171.316 34.9501 171.316 29.5993C171.316 23.643 174.957 18.2031 181.686 18.2031C188.155 18.2031 190.728 23.2535 190.728 27.5165C190.758 28.4852 190.686 29.4544 190.513 30.4078C190.507 30.498 190.469 30.5828 190.406 30.6467C190.343 30.7106 190.258 30.749 190.169 30.755C188.702 30.8946 187.228 30.9525 185.755 30.9285L177.399 30.9201ZM182.973 26.7333C183.687 26.7597 184.402 26.7299 185.112 26.6444V26.3439C185.1 25.8777 184.995 25.4188 184.805 24.9938C184.614 24.5689 184.342 24.1864 184.003 23.8687C183.664 23.551 183.266 23.3046 182.831 23.1437C182.396 22.9828 181.934 22.9108 181.472 22.9318C178.773 22.9318 177.613 24.9638 177.357 26.7418L182.973 26.7333Z" fill="#FA0F00"/>
<path d="M35.3633 0H56.0985V50L35.3633 0Z" fill="#FA0F00"/>
<path d="M20.7521 0H0V50L20.7521 0Z" fill="#FA0F00"/>
<path d="M28.0589 18.4277L41.2701 50H32.6112L28.66 39.9458H18.9922L28.0589 18.4277Z" fill="#FA0F00"/>
</svg>
