<svg width="145" height="44" viewBox="0 0 145 44" fill="none" xmlns="http://www.w3.org/2000/svg">
<path fill-rule="evenodd" clip-rule="evenodd" d="M89.9267 34.409C81.5031 40.6631 69.294 43.9998 58.7821 43.9998C44.0424 43.9998 30.7731 38.5086 20.7345 29.3755C19.9458 28.6573 20.6525 27.6785 21.599 28.2378C32.4327 34.5871 45.8282 38.4069 59.6654 38.4069C68.9973 38.4069 79.2632 36.462 88.7024 32.4263C90.1285 31.8161 91.3209 33.3668 89.9267 34.409Z" fill="#FF9900"/>
<path fill-rule="evenodd" clip-rule="evenodd" d="M93.429 30.3735C92.3563 28.988 86.3115 29.7189 83.5984 30.043C82.7718 30.1447 82.6456 29.4202 83.3903 28.899C88.2044 25.4861 96.1042 26.4712 97.0254 27.6152C97.9467 28.7656 96.7858 36.7418 92.2617 40.5487C91.5676 41.1336 90.9051 40.8222 91.2142 40.0467C92.2301 37.492 94.508 31.7655 93.429 30.3735Z" fill="#FF9900"/>
<path fill-rule="evenodd" clip-rule="evenodd" d="M83.7847 4.80502V1.48738C83.7847 0.985285 84.1633 0.648438 84.6177 0.648438H99.3634C99.8366 0.648438 100.215 0.991641 100.215 1.48738V4.32836C100.209 4.80502 99.8111 5.42787 99.1046 6.41298L91.4636 17.4019C94.3029 17.3319 97.3 17.7578 99.8742 19.2196C100.455 19.5501 100.613 20.0331 100.657 20.5098V24.0498C100.657 24.5329 100.127 25.0985 99.5715 24.8062C95.0349 22.4101 89.0089 22.1495 83.9928 24.8316C83.4816 25.1112 82.9453 24.5519 82.9453 24.0689V20.7068C82.9453 20.1666 82.9517 19.245 83.488 18.4251L92.3406 5.6376H84.6365C84.1633 5.6376 83.7847 5.30076 83.7847 4.80502Z" fill="black"/>
<path fill-rule="evenodd" clip-rule="evenodd" d="M29.9946 25.5053H25.5084C25.0793 25.4735 24.7386 25.1494 24.707 24.7363V1.54463C24.707 1.08067 25.0919 0.712039 25.5715 0.712039H29.7548C30.1902 0.731093 30.5372 1.06795 30.5687 1.48743V4.51907H30.6506C31.7424 1.58911 33.793 0.222656 36.5565 0.222656C39.3646 0.222656 41.1185 1.58911 42.3805 4.51907C43.4658 1.58911 45.933 0.222656 48.5766 0.222656C50.4568 0.222656 52.5138 1.0044 53.7693 2.75855C55.189 4.70974 54.899 7.54434 54.899 10.0294L54.8926 24.6664C54.8926 25.1304 54.5077 25.5053 54.0281 25.5053H49.5483C49.1002 25.4735 48.7408 25.1113 48.7408 24.6664V12.3746C48.7408 11.3958 48.829 8.95528 48.6146 8.02737C48.28 6.47022 47.2768 6.03169 45.977 6.03169C44.8919 6.03169 43.7558 6.76258 43.2954 7.93203C42.8349 9.10145 42.8789 11.059 42.8789 12.3746V24.6664C42.8789 25.1304 42.4939 25.5053 42.0146 25.5053H37.5345C37.0804 25.4735 36.727 25.1113 36.727 24.6664L36.7206 12.3746C36.7206 9.78785 37.1435 5.98085 33.9571 5.98085C30.7328 5.98085 30.859 9.69252 30.859 12.3746V24.6664C30.859 25.1304 30.4741 25.5053 29.9946 25.5053Z" fill="black"/>
<path fill-rule="evenodd" clip-rule="evenodd" d="M112.912 0.222656C119.569 0.222656 123.172 5.98085 123.172 13.3025C123.172 20.3763 119.19 25.9883 112.912 25.9883C106.375 25.9883 102.816 20.2302 102.816 13.0546C102.816 5.83467 106.419 0.222656 112.912 0.222656ZM112.95 4.9576C109.644 4.9576 109.435 9.4955 109.435 12.3238C109.435 15.1584 109.391 21.2089 112.912 21.2089C116.389 21.2089 116.553 16.3278 116.553 13.3534C116.553 11.3958 116.471 9.05697 115.884 7.20111C115.379 5.5868 114.376 4.9576 112.95 4.9576Z" fill="black"/>
<path fill-rule="evenodd" clip-rule="evenodd" d="M131.805 25.5053H127.337C126.889 25.4735 126.53 25.1113 126.53 24.6664L126.523 1.46836C126.561 1.04253 126.934 0.712039 127.388 0.712039H131.546C131.937 0.731093 132.259 0.998045 132.347 1.36031V4.90676H132.429C133.685 1.7353 135.445 0.222656 138.543 0.222656C140.556 0.222656 142.519 0.953553 143.781 2.95557C144.954 4.81142 144.954 7.93203 144.954 10.1755V24.7744C144.904 25.1812 144.531 25.5053 144.09 25.5053H139.591C139.181 25.4735 138.84 25.1685 138.796 24.7744V12.1776C138.796 9.64168 139.086 5.93 135.988 5.93C134.896 5.93 133.893 6.66725 133.395 7.78585C132.764 9.20314 132.682 10.6141 132.682 12.1776V24.6664C132.675 25.1304 132.284 25.5053 131.805 25.5053Z" fill="black"/>
<path fill-rule="evenodd" clip-rule="evenodd" d="M72.0312 14.4273C72.0312 16.1878 72.0754 17.6559 71.1921 19.2194C70.4792 20.4905 69.3432 21.2723 68.0876 21.2723C66.3652 21.2723 65.3557 19.9503 65.3557 17.9991C65.3557 14.1476 68.7817 13.4485 72.0312 13.4485V14.4273ZM76.5553 25.4416C76.2589 25.7085 75.8297 25.7276 75.4954 25.5496C74.0063 24.3039 73.7348 23.7255 72.9209 22.537C70.4601 25.0666 68.7122 25.8229 65.5259 25.8229C61.7465 25.8229 58.8125 23.4777 58.8125 18.7809C58.8125 15.1137 60.7812 12.6159 63.5951 11.3956C66.0307 10.3152 69.4318 10.1245 72.0312 9.82578V9.24107C72.0312 8.16698 72.1134 6.89584 71.4824 5.96793C70.9397 5.13535 69.8923 4.79215 68.9646 4.79215C67.255 4.79215 65.7343 5.67557 65.3621 7.506C65.2862 7.91276 64.9896 8.31316 64.5794 8.33222L60.2322 7.86191C59.8663 7.77929 59.4562 7.48058 59.5633 6.9149C60.5604 1.60162 65.3305 0 69.5956 0C71.7788 0 74.6308 0.58472 76.3536 2.24989C78.5364 4.30274 78.3283 7.04202 78.3283 10.0228V17.0648C78.3283 19.1813 79.199 20.1092 80.0192 21.2532C80.3031 21.6599 80.3662 22.1493 80.0004 22.4544C79.0855 23.2234 77.4574 24.6534 76.5617 25.4543L76.5553 25.4415" fill="black"/>
<path fill-rule="evenodd" clip-rule="evenodd" d="M13.2188 14.4273C13.2188 16.1878 13.263 17.6559 12.3796 19.2194C11.6666 20.4905 10.5372 21.2723 9.27524 21.2723C7.55268 21.2723 6.54945 19.9503 6.54945 17.9991C6.54945 14.1476 9.97561 13.4485 13.2188 13.4485V14.4273ZM17.7428 25.4416C17.4463 25.7085 17.0172 25.7276 16.6828 25.5496C15.1937 24.3039 14.9287 23.7255 14.1085 22.537C11.6477 25.0666 9.9062 25.8229 6.7135 25.8229C2.94031 25.8229 0 23.4777 0 18.7809C0 15.1137 1.97493 12.6159 4.78276 11.3956C7.21827 10.3152 10.6192 10.1245 13.2188 9.8258V9.24106C13.2188 8.16698 13.3008 6.89583 12.6762 5.96792C12.1272 5.13534 11.0798 4.79214 10.1586 4.79214C8.44868 4.79214 6.92172 5.67557 6.54945 7.506C6.47373 7.91275 6.17718 8.31315 5.77337 8.33222L1.41968 7.86191C1.05372 7.77929 0.649897 7.48058 0.750851 6.91493C1.75409 1.60162 6.5179 0 10.7833 0C12.9664 0 15.8184 0.584718 17.5409 2.24989C19.7241 4.30277 19.5158 7.04204 19.5158 10.0228V17.0648C19.5158 19.1813 20.3866 20.1092 21.2069 21.2532C21.4971 21.6599 21.5602 22.1493 21.1942 22.4544C20.2793 23.2234 18.6514 24.6535 17.7555 25.4543L17.7428 25.4415" fill="black"/>
</svg>
