<svg width="222" height="263" viewBox="0 0 222 263" fill="none" xmlns="http://www.w3.org/2000/svg">
<path d="M183.947 251.52C169.745 265.3 154.075 263.154 139.139 256.654C123.26 250.026 108.744 249.608 91.9735 256.654C71.0895 265.668 60.0055 263.048 47.4279 251.52C-23.583 178.422 -13.1017 67.072 67.6044 62.88C87.1783 63.928 100.883 73.7006 112.412 74.5128C129.549 71.0282 145.952 61.046 164.295 62.356C186.331 64.1376 202.813 72.836 213.819 88.4774C168.487 115.725 179.23 175.461 220.868 192.23C212.534 214.107 201.843 235.722 183.922 251.704L183.947 251.52ZM110.84 62.094C108.717 29.606 135.052 2.88199 165.343 0.261993C169.509 37.728 131.278 65.762 110.84 62.094Z" fill="black"/>
</svg>
