<svg width="660" height="83" viewBox="0 0 660 83" fill="none" xmlns="http://www.w3.org/2000/svg">
<path d="M24.9579 38.4015C24.7179 38.0864 24.4009 37.8387 24.0376 37.6825C23.6743 37.5262 23.277 37.4666 22.8841 37.5095C22.4911 37.5523 22.1158 37.6961 21.7945 37.927C21.4731 38.1578 21.2166 38.468 21.0496 38.8275L1.24594 78.5504C1.06553 78.912 0.98035 79.3146 0.998487 79.7189C1.01662 80.1232 1.13748 80.5161 1.34957 80.86C1.56166 81.2045 1.85795 81.4887 2.21031 81.6857C2.56268 81.8833 2.95941 81.9864 3.36286 81.9864H30.9385C31.3801 81.9966 31.8153 81.8782 32.191 81.6453C32.5668 81.4124 32.8671 81.0747 33.0554 80.6738C39.0038 68.3425 35.3988 49.5927 24.9579 38.4015Z" fill="url(#paint0_linear_685_812)"/>
<path d="M39.4826 2.27176C34.5481 9.88886 31.6725 18.6622 31.138 27.7308C30.6034 36.7994 32.4283 45.8517 36.4335 53.9992L49.728 80.6738C49.9246 81.0684 50.2267 81.3999 50.6006 81.6316C50.9745 81.864 51.4054 81.9864 51.8449 81.9864H79.4158C79.8188 81.9864 80.2156 81.8828 80.5681 81.6857C80.9206 81.4887 81.2169 81.2045 81.4292 80.86C81.6409 80.5161 81.7618 80.1232 81.7799 79.7189C81.7981 79.3146 81.713 78.912 81.5325 78.5498C81.5325 78.5498 44.4407 4.11854 43.5085 2.25685C43.3242 1.87791 43.0372 1.55875 42.6803 1.33599C42.3234 1.11324 41.9112 0.995911 41.4909 0.997467C41.0706 0.999023 40.6593 1.1194 40.3041 1.34479C39.9489 1.57018 39.6642 1.89145 39.4826 2.27176Z" fill="#2684FF"/>
<path d="M362.873 34.1217C362.873 43.9579 367.422 51.7673 385.212 55.215C395.827 57.4505 398.05 59.1693 398.05 62.7187C398.05 66.1666 395.822 68.3983 388.346 68.3983C379.31 68.2354 370.455 65.8312 362.57 61.401V77.4223C367.928 80.0588 375.003 83 388.144 83C406.743 83 414.123 74.6787 414.123 62.3126L362.873 34.1217ZM414.123 62.3126C414.123 50.6508 407.957 45.1738 390.571 41.4231C380.968 39.2931 378.643 37.1644 378.643 34.1217C378.643 30.2716 382.079 28.6459 388.447 28.6459C396.13 28.6459 403.712 30.9783 410.888 34.2235V18.9102C404.007 15.768 396.512 14.209 388.952 14.3473C371.769 14.3473 362.873 21.8512 362.873 34.1217" fill="#0052CC"/>
<path d="M601.824 15.3607V81.9864H615.975V31.1807L621.935 44.6671L641.949 81.9864H659.744V15.3607H645.593V58.3584L640.235 45.8842L624.16 15.3607H601.824Z" fill="#0052CC"/>
<path d="M511.813 15.3607H496.348V81.9864H511.813V15.3607Z" fill="#0052CC"/>
<path d="M478.502 62.3126C478.502 50.6508 472.335 45.1738 454.949 41.4231C445.346 39.2931 443.022 37.1644 443.022 34.1217C443.022 30.2716 446.458 28.6459 452.826 28.6459C460.509 28.6459 468.09 30.9783 475.267 34.2235V18.9102C468.385 15.768 460.891 14.209 453.331 14.3473C436.147 14.3473 427.252 21.8512 427.252 34.1217C427.252 43.9579 431.801 51.7673 449.591 55.215C460.206 57.4505 462.429 59.1693 462.429 62.7187C462.429 66.1666 460.201 68.3983 452.725 68.3983C443.689 68.2354 434.834 65.8312 426.949 61.401V77.4223C432.307 80.0588 439.382 83 452.523 83C471.122 83 478.502 74.6787 478.502 62.3126Z" fill="#0052CC"/>
<path d="M242.73 15.3607V81.9864H274.519L279.524 67.5863H258.297V15.3607H242.73Z" fill="#0052CC"/>
<path d="M179.926 15.3607V29.7599H197.11V81.9864H212.676V29.7599H231.073V15.3607H179.926Z" fill="#0052CC"/>
<path d="M157.352 15.3607H136.952L113.793 81.9864H131.478L134.761 70.7655C142.847 73.1475 151.445 73.1475 159.531 70.7655L162.814 81.9864H180.503L157.352 15.3607ZM147.151 58.7508C144.27 58.7508 141.404 58.3368 138.64 57.5225L147.151 28.4472L155.662 57.5325C152.898 58.3436 150.031 58.7542 147.151 58.7508Z" fill="#0052CC"/>
<path d="M329.319 15.3607H308.92L285.762 81.9864H303.451L306.734 70.7655C314.82 73.1475 323.417 73.1475 331.503 70.7655L334.786 81.9864H352.475L329.319 15.3607ZM319.12 58.7508C316.239 58.7508 313.373 58.3368 310.608 57.5225L319.12 28.4472L327.631 57.5325C324.866 58.3436 322 58.7542 319.12 58.7508Z" fill="#0052CC"/>
<path d="M567.546 15.3607H547.147L523.988 81.9864H541.677L544.96 70.7655C553.046 73.1475 561.644 73.1475 569.732 70.7655L573.013 81.9864H590.706L567.546 15.3607ZM557.34 58.7508C554.46 58.7508 551.593 58.3368 548.829 57.5225L557.34 28.4472L565.851 57.5325C563.087 58.3436 560.22 58.7542 557.34 58.7508Z" fill="#0052CC"/>
<defs>
<linearGradient id="paint0_linear_685_812" x1="35.811" y1="44.5317" x2="14.8107" y2="80.7889" gradientUnits="userSpaceOnUse">
<stop stop-color="#0052CC"/>
<stop offset="0.923" stop-color="#2684FF"/>
</linearGradient>
</defs>
</svg>
