<svg xmlns="http://www.w3.org/2000/svg" xmlns:xlink="http://www.w3.org/1999/xlink" width="355" height="130" viewBox="0 0 355 130">
  <defs>
    <linearGradient id="linear-gradient" x1="0.5" x2="0.5" y2="1" gradientUnits="objectBoundingBox">
      <stop offset="0" stop-color="#04b3d6"/>
      <stop offset="1" stop-color="#77d0d2"/>
    </linearGradient>
  </defs>
  <g id="Logo_t_Black" transform="translate(-4976 -2799)">
    <g id="Group_81" data-name="Group 81" transform="translate(6998 -835)">
      <text id="MAANG" transform="translate(-1894 3700)" fill="#2db2c4" font-size="54" font-family="Manrope-Bold, Manrope" font-weight="700" letter-spacing="0.126em"><tspan x="0" y="0">MAANG</tspan></text>
      <text id="CAREERS" transform="translate(-1894 3690)" font-size="54" font-family="Manrope-Light, Manrope" font-weight="300" letter-spacing="-0.014em"><tspan x="0" y="58">CAREERS</tspan></text>
    </g>
    <g id="Group_82" data-name="Group 82" transform="translate(652 -310)">
      <g id="Group_77" data-name="Group 77" transform="translate(4308.063 2591.072)">
        <g id="_1000_F_382001053_bsYrJeG4upvfrAxxz9rXlwFq5BWXKr4m" data-name="1000_F_382001053_bsYrJeG4upvfrAxxz9rXlwFq5BWXKr4m" transform="translate(46.075 551.681)">
          <g id="Group_62" data-name="Group 62" transform="translate(0 0)">
            <path id="Path_115" data-name="Path 115" d="M474.486-384.71a55.154,55.154,0,0,1,12.682,12.37L488.779-370l-6.757,3.638-6.7,3.586-1.4-2.027a33.3,33.3,0,0,0-11.643-9.668l-4.106-1.923,5.562-5.613a54.809,54.809,0,0,1,6.029-5.562A34.528,34.528,0,0,1,474.486-384.71Zm-51.457,47.4a32.307,32.307,0,0,0,8.056,13.67c5.821,5.821,11.331,8.316,18.4,8.316,9.2,0,16.788-4,22.662-11.9l2.7-3.638,2.391.936c1.351.52,4.834,1.819,7.8,2.911l5.3,1.975-.832,1.351c-8,12.526-18.244,20.011-30.978,22.61a54.817,54.817,0,0,1-18.192.052,44.158,44.158,0,0,1-12.734-4.99,56.839,56.839,0,0,1-12.37-11.383,54.091,54.091,0,0,1-6.809-13.93l-.884-3.274,6.965-7.121,6.965-7.121.364,4.262A43.348,43.348,0,0,0,423.029-337.308Z" transform="translate(-407.54 387.569)"/>
          </g>
        </g>
        <g id="_1000_F_382001053_bsYrJeG4upvfrAxxz9rXlwFq5BWXKr4m-2" data-name="1000_F_382001053_bsYrJeG4upvfrAxxz9rXlwFq5BWXKr4m" transform="translate(27 520.9)">
          <g id="Group_62-2" data-name="Group 62" transform="translate(0 0)">
            <path id="Path_115-2" data-name="Path 115" d="M466.121-389.174c-4.262,4.314-13.774,14.5-21.206,22.558l-13.462,14.761-13.93-14.034-13.93-14.034V-338.7l-7.381,7.381c-4.106,4.106-7.589,7.433-7.8,7.433-.26,0-.416-21.518-.416-47.87,0-30.25.208-47.766.52-47.662.26.052,9.408,9.616,20.271,21.206,10.915,11.591,20.479,21.674,21.258,22.506l1.4,1.455,21-22.922L473.5-420.1l.156,11.539.1,11.539Z" transform="translate(-388 420.1)" fill="url(#linear-gradient)"/>
          </g>
        </g>
      </g>
      <rect id="Rectangle_23" data-name="Rectangle 23" width="124" height="124" transform="translate(4324 3109)" fill="none"/>
    </g>
  </g>
</svg>
