<svg width="22" height="21" viewBox="0 0 22 21" fill="none" xmlns="http://www.w3.org/2000/svg">
<path d="M21.8733 10.7411C21.8733 10.0273 21.8146 9.30973 21.6894 8.60754H11.646V12.6509H17.3974C17.1587 13.955 16.3919 15.1086 15.269 15.8416V18.4651H18.7003C20.7152 16.6364 21.8733 13.9357 21.8733 10.7411Z" fill="#4285F4"/>
<path d="M11.6461 21.0001C14.5179 21.0001 16.9397 20.0702 18.7042 18.4652L15.273 15.8416C14.3183 16.4821 13.0859 16.8448 11.65 16.8448C8.87211 16.8448 6.51679 14.9967 5.67168 12.5121H2.13086V15.2166C3.93844 18.7624 7.62011 21.0001 11.6461 21.0001Z" fill="#34A853"/>
<path d="M5.66762 12.512C5.22159 11.208 5.22159 9.79587 5.66762 8.49181V5.78723H2.13072C0.62049 8.75417 0.62049 12.2497 2.13072 15.2165L5.66762 12.512Z" fill="#FBBC04"/>
<path d="M11.6461 4.15522C13.1641 4.13207 14.6313 4.69536 15.7307 5.72936L18.7707 2.73155C16.8458 0.949085 14.2909 -0.0308901 11.6461 -2.48418e-05C7.6201 -2.48418e-05 3.93844 2.23771 2.13086 5.78722L5.66776 8.49181C6.50895 6.00328 8.86819 4.15522 11.6461 4.15522Z" fill="#EA4335"/>
</svg>
