<svg width="140" height="47" viewBox="0 0 140 47" fill="none" xmlns="http://www.w3.org/2000/svg">
<path d="M59.5391 24.1026C59.5391 30.6264 54.4002 35.4335 48.0939 35.4335C41.7874 35.4335 36.6484 30.6264 36.6484 24.1026C36.6484 17.5328 41.7874 12.7715 48.0939 12.7715C54.4002 12.7715 59.5391 17.5328 59.5391 24.1026ZM54.5287 24.1026C54.5287 20.0258 51.5506 17.2365 48.0939 17.2365C44.637 17.2365 41.6589 20.0258 41.6589 24.1026C41.6589 28.1384 44.637 30.9686 48.0939 30.9686C51.5506 30.9686 54.5287 28.1333 54.5287 24.1026Z" fill="#EA4335"/>
<path d="M84.2305 24.1026C84.2305 30.6264 79.0916 35.4335 72.785 35.4335C66.4788 35.4335 61.3398 30.6264 61.3398 24.1026C61.3398 17.5379 66.4788 12.7715 72.785 12.7715C79.0916 12.7715 84.2305 17.5328 84.2305 24.1026ZM79.2201 24.1026C79.2201 20.0258 76.242 17.2365 72.785 17.2365C69.3284 17.2365 66.3503 20.0258 66.3503 24.1026C66.3503 28.1384 69.3284 30.9686 72.785 30.9686C76.242 30.9686 79.2201 28.1333 79.2201 24.1026Z" fill="#FBBC05"/>
<path d="M107.891 13.4561V33.799C107.891 42.1669 102.922 45.5845 97.048 45.5845C91.5183 45.5845 88.1902 41.9114 86.9351 38.9076L91.2971 37.1043C92.074 38.9484 93.9772 41.1248 97.0431 41.1248C100.803 41.1248 103.133 38.8208 103.133 34.4834V32.8537H102.959C101.837 34.2278 99.6768 35.4286 96.9504 35.4286C91.2459 35.4286 86.0195 30.4936 86.0195 24.1434C86.0195 17.7473 91.2459 12.7715 96.9504 12.7715C99.6715 12.7715 101.832 13.972 102.959 15.3054H103.133V13.4611H107.891V13.4561ZM103.488 24.1434C103.488 20.1536 100.808 17.2365 97.398 17.2365C93.941 17.2365 91.0451 20.1536 91.0451 24.1434C91.0451 28.0924 93.941 30.9686 97.398 30.9686C100.808 30.9686 103.488 28.0924 103.488 24.1434Z" fill="#4285F4"/>
<path d="M115.738 1.53271V34.7393H110.852V1.53271H115.738Z" fill="#34A853"/>
<path d="M134.779 27.8322L138.668 30.4069C137.413 32.2512 134.388 35.4289 129.162 35.4289C122.68 35.4289 117.84 30.4529 117.84 24.0977C117.84 17.3593 122.721 12.7666 128.601 12.7666C134.522 12.7666 137.417 17.4462 138.364 19.975L138.884 21.2624L123.632 27.5359C124.8 29.8092 126.615 30.9689 129.162 30.9689C131.713 30.9689 133.482 29.7224 134.779 27.8322ZM122.809 23.7554L133.004 19.551C132.444 18.1359 130.756 17.1499 128.771 17.1499C126.224 17.1499 122.68 19.3824 122.809 23.7554Z" fill="#EA4335"/>
<path d="M18.1513 21.1552V16.3479H34.4627C34.6221 17.1858 34.7043 18.1769 34.7043 19.2497C34.7043 22.8564 33.7115 27.3163 30.5121 30.4939C27.4 33.7124 23.4238 35.4289 18.1564 35.4289C8.39326 35.4289 0.183594 27.5309 0.183594 17.8346C0.183594 8.13828 8.39326 0.240234 18.1564 0.240234C23.5575 0.240234 27.4052 2.34502 30.296 5.0884L26.8805 8.48056C24.8075 6.54948 21.9989 5.04751 18.1513 5.04751C11.0218 5.04751 5.44583 10.7539 5.44583 17.8346C5.44583 24.9152 11.0218 30.6216 18.1513 30.6216C22.7756 30.6216 25.4093 28.7774 27.0965 27.1018C28.4648 25.7428 29.365 23.8015 29.7199 21.1501L18.1513 21.1552Z" fill="#4285F4"/>
</svg>
