<svg width="23" height="23" viewBox="0 0 23 23" fill="none" xmlns="http://www.w3.org/2000/svg">
<path fill-rule="evenodd" clip-rule="evenodd" d="M11.4725 0C5.13724 0 0 5.27895 0 11.7911C0 17.0008 3.28721 21.4207 7.84558 22.9797C8.41893 23.0888 8.62943 22.724 8.62943 22.4125C8.62943 22.1313 8.6188 21.2025 8.61386 20.2173C5.4222 20.9305 4.74872 18.826 4.74872 18.826C4.22686 17.4632 3.47491 17.1008 3.47491 17.1008C2.43402 16.369 3.55338 16.384 3.55338 16.384C4.70541 16.4669 5.312 17.5993 5.312 17.5993C6.33524 19.4016 7.99586 18.8804 8.65052 18.5792C8.75349 17.8172 9.05079 17.2968 9.3789 17.0026C6.8307 16.7044 4.152 15.6933 4.152 11.1753C4.152 9.88799 4.60015 8.83614 5.33404 8.0104C5.21494 7.71323 4.82224 6.51414 5.44519 4.89001C5.44519 4.89001 6.40858 4.5731 8.60093 6.09864C9.51606 5.83738 10.4975 5.70636 11.4725 5.70188C12.4474 5.70636 13.4296 5.83738 14.3465 6.09864C16.5362 4.5731 17.4982 4.89001 17.4982 4.89001C18.1228 6.51414 17.7299 7.71323 17.6107 8.0104C18.3462 8.83614 18.7915 9.88799 18.7915 11.1753C18.7915 15.7041 16.1076 16.7012 13.5529 16.9932C13.9644 17.3591 14.3311 18.0767 14.3311 19.1767C14.3311 20.7545 14.3178 22.0241 14.3178 22.4125C14.3178 22.7262 14.5243 23.0939 15.1058 22.9781C19.6617 21.4173 22.9447 16.9991 22.9447 11.7911C22.9447 5.27895 17.8082 0 11.4725 0Z" fill="#1B1817"/>
<path d="M4.34534 16.9295C4.32007 16.9883 4.2304 17.0057 4.14871 16.9654C4.0655 16.9271 4.01876 16.8472 4.04574 16.7885C4.07043 16.7282 4.1603 16.7115 4.24332 16.7516C4.32672 16.7902 4.37422 16.8709 4.34534 16.9295Z" fill="#1B1817"/>
<path d="M4.80992 17.4621C4.75522 17.5143 4.64825 17.4901 4.57568 17.4077C4.50065 17.3256 4.48658 17.2155 4.54206 17.1626C4.59847 17.1107 4.70221 17.1352 4.77744 17.2171C4.85248 17.3003 4.86711 17.4094 4.80992 17.4621Z" fill="#1B1817"/>
<path d="M5.26243 18.1413C5.19214 18.1915 5.0772 18.1445 5.00615 18.0396C4.93584 17.9348 4.93586 17.8089 5.00767 17.7586C5.07891 17.7083 5.19214 17.7537 5.26414 17.8576C5.33424 17.9642 5.33424 18.09 5.26243 18.1413Z" fill="#1B1817"/>
<path d="M5.88189 18.7974C5.81902 18.8686 5.68507 18.8494 5.58704 18.7522C5.48674 18.6571 5.45882 18.5222 5.52188 18.4509C5.58552 18.3795 5.72023 18.3997 5.81902 18.496C5.91855 18.591 5.94895 18.7268 5.88189 18.7974Z" fill="#1B1817"/>
<path d="M6.73673 19.1784C6.70899 19.2707 6.57999 19.3127 6.45004 19.2734C6.32029 19.233 6.23536 19.1249 6.26159 19.0314C6.28856 18.9385 6.41813 18.8949 6.54902 18.9367C6.67859 18.977 6.76371 19.0845 6.73673 19.1784Z" fill="#1B1817"/>
<path d="M7.67561 19.2489C7.67884 19.3461 7.56864 19.4268 7.43224 19.4286C7.29508 19.4316 7.18412 19.353 7.18262 19.2573C7.18262 19.1591 7.29033 19.0792 7.42749 19.0769C7.5639 19.0741 7.67561 19.1522 7.67561 19.2489Z" fill="#1B1817"/>
<path d="M8.54919 19.0961C8.56553 19.191 8.47073 19.2884 8.33528 19.3144C8.20209 19.3394 8.07881 19.2809 8.0619 19.1867C8.04537 19.0894 8.14188 18.992 8.27487 18.9669C8.41051 18.9426 8.53191 18.9996 8.54919 19.0961Z" fill="#1B1817"/>
</svg>
