<svg width="492" height="120" viewBox="0 0 492 120" fill="none" xmlns="http://www.w3.org/2000/svg">
<path d="M484.81 112.253C485.112 112.256 485.411 112.197 485.69 112.079C485.968 111.962 486.219 111.788 486.428 111.57C486.637 111.352 486.798 111.093 486.902 110.809C487.006 110.525 487.052 110.223 487.034 109.922C487.034 108.269 486.036 107.479 483.988 107.479H480.68V116.134H481.924V112.362H483.453L483.488 112.408L485.861 116.134H487.192L484.639 112.277L484.81 112.253ZM483.371 111.386H481.927V108.46H483.756C484.701 108.46 485.778 108.614 485.778 109.85C485.778 111.273 484.688 111.386 483.363 111.386" fill="#0A66C2"/>
<path d="M0 17.6107H18.369V84.475H52.3754V101.416H0V17.6107Z" fill="#0A66C2"/>
<path d="M60.4974 44.5937H78.1439V101.384H60.4974V44.5937ZM69.3207 16.3598C71.3453 16.3602 73.3243 16.9605 75.0075 18.0848C76.6907 19.2091 78.0024 20.8069 78.777 22.6762C79.5515 24.5456 79.754 26.6024 79.3588 28.5867C78.9636 30.571 77.9885 32.3936 76.5568 33.8241C75.1251 35.2546 73.301 36.2287 71.3153 36.6232C69.3296 37.0178 67.2713 36.8152 65.4009 36.0408C63.5305 35.2665 61.9319 33.9553 60.8071 32.273C59.6824 30.5907 59.082 28.613 59.082 26.5897C59.082 25.2462 59.3469 23.9158 59.8614 22.6746C60.376 21.4332 61.1302 20.3054 62.081 19.3555C63.0317 18.4055 64.1605 17.652 65.4026 17.1381C66.6449 16.6241 67.9762 16.3596 69.3207 16.3598Z" fill="#0A66C2"/>
<path d="M151.961 17.5977H169.608V67.6818L189.607 44.5676H211.243L188.082 70.8597L210.756 101.408H188.577L169.843 73.336H169.611V101.404H151.965L151.961 17.5977Z" fill="#0A66C2"/>
<path d="M87.9297 44.5997H104.876V52.3607H105.116C106.809 49.4627 109.257 47.0786 112.2 45.4629C115.144 43.8472 118.47 43.0605 121.826 43.187C139.721 43.187 143.015 54.9527 143.015 70.2378V101.382H125.368V73.7702C125.368 67.1792 125.247 58.7073 116.177 58.7073C107.004 58.7073 105.589 65.8842 105.589 73.2907V101.374H87.9422L87.9297 44.5997Z" fill="#0A66C2"/>
<path d="M248.404 66.3831C248.438 64.9525 248.18 63.5298 247.648 62.2014C247.116 60.873 246.318 59.6664 245.305 58.6548C244.293 57.6432 243.084 56.8476 241.755 56.3163C240.425 55.785 239.002 55.5289 237.57 55.5636C234.486 55.3718 231.452 56.3987 229.118 58.4226C226.786 60.4466 225.342 63.3056 225.1 66.3831H248.404ZM263.352 91.5492C260.42 95.1025 256.733 97.96 252.559 99.9142C248.386 101.868 243.829 102.871 239.22 102.848C221.574 102.848 207.445 91.0775 207.445 72.8492C207.445 54.6212 221.572 42.8557 239.22 42.8557C255.715 42.8557 266.058 54.6121 266.058 72.8492V78.3784H225.1C225.609 81.5142 227.236 84.36 229.68 86.3916C232.124 88.4233 235.221 89.5041 238.399 89.435C240.91 89.4191 243.379 88.7767 245.578 87.5642C247.778 86.3525 249.639 84.6092 250.992 82.495L263.352 91.5492Z" fill="#0A66C2"/>
<path d="M302.841 58.3214C294.018 58.3214 288.724 64.2088 288.724 72.7873C288.724 81.3658 294.016 87.2583 302.841 87.2583C311.666 87.2583 316.971 81.3805 316.971 72.7873C316.971 64.1941 311.675 58.3214 302.841 58.3214ZM333.217 101.374H316.971V93.8425H316.73C314.692 96.5817 312.049 98.8142 309.006 100.365C305.963 101.916 302.602 102.744 299.187 102.785C282.231 102.785 271.062 90.5558 271.062 73.2631C271.062 57.3809 280.946 42.7974 297.194 42.7974C304.497 42.7974 311.319 44.7942 315.32 50.3289H315.552V17.5927H333.215L333.217 101.374Z" fill="#0A66C2"/>
<path d="M452.348 101.408H434.702V73.7907C434.702 67.2052 434.584 58.7277 425.523 58.7277C416.333 58.7277 414.926 65.9028 414.926 73.3113V101.405H397.28V44.6145H414.221V52.3756H414.457C416.153 49.4788 418.603 47.0958 421.546 45.4803C424.49 43.8648 427.817 43.0774 431.172 43.2019C449.058 43.2019 452.356 54.9583 452.356 70.2527L452.348 101.408ZM377.369 36.8517C375.344 36.852 373.363 36.2522 371.679 35.128C369.995 34.0038 368.682 32.4057 367.907 30.5359C367.131 28.6662 366.928 26.6086 367.323 24.6233C367.718 22.6382 368.692 20.8145 370.124 19.3831C371.557 17.9517 373.38 16.9767 375.368 16.5814C377.354 16.1862 379.413 16.3885 381.284 17.1628C383.155 17.9369 384.755 19.2483 385.881 20.931C387.006 22.6138 387.607 24.5922 387.608 26.6162C387.608 27.9601 387.343 29.2908 386.829 30.5326C386.314 31.7742 385.56 32.9025 384.61 33.853C383.658 34.8034 382.53 35.5574 381.288 36.0719C380.045 36.5864 378.713 36.8514 377.369 36.8517ZM386.192 101.408H368.527V44.6145H386.192V101.408ZM461.146 0.00810856H359.66C357.356 -0.0178682 355.136 0.871092 353.489 2.47965C351.841 4.08821 350.899 6.28475 350.871 8.58658V110.425C350.899 112.727 351.839 114.926 353.487 116.536C355.135 118.147 357.355 119.037 359.66 119.012H461.146C463.455 119.042 465.681 118.153 467.336 116.543C468.99 114.933 469.937 112.732 469.969 110.425V8.57925C469.936 6.27284 468.989 4.0738 467.334 2.46527C465.68 0.856758 463.454 -0.0296612 461.146 0.00075783" fill="#0A66C2"/>
<path d="M483.524 103.624C481.377 103.644 479.326 104.514 477.818 106.042C476.311 107.57 475.471 109.633 475.481 111.778C475.491 113.924 476.351 115.978 477.873 117.492C479.395 119.005 481.455 119.855 483.602 119.855C485.749 119.855 487.809 119.005 489.331 117.492C490.853 115.978 491.712 113.924 491.723 111.778C491.733 109.633 490.893 107.57 489.386 106.042C487.878 104.514 485.827 103.644 483.68 103.624H483.524ZM483.524 118.926C482.116 118.949 480.732 118.554 479.548 117.793C478.364 117.03 477.433 115.934 476.872 114.643C476.312 113.352 476.147 111.923 476.399 110.538C476.651 109.153 477.308 107.874 478.287 106.863C479.266 105.851 480.523 105.153 481.9 104.855C483.277 104.558 484.711 104.674 486.02 105.191C487.33 105.708 488.458 106.602 489.26 107.758C490.061 108.916 490.502 110.284 490.526 111.692C490.526 111.733 490.526 111.771 490.526 111.811C490.565 113.658 489.869 115.443 488.591 116.777C487.313 118.11 485.557 118.882 483.71 118.922H483.526" fill="#0A66C2"/>
</svg>
