<svg width="26" height="22" viewBox="0 0 26 22" fill="none" xmlns="http://www.w3.org/2000/svg">
<path d="M24.7102 20.5797C24.7661 20.5803 24.8213 20.5695 24.8727 20.548C24.9241 20.5264 24.9704 20.4946 25.0089 20.4546C25.0473 20.4144 25.0772 20.3671 25.0964 20.315C25.1156 20.263 25.1238 20.2077 25.1206 20.1524C25.1206 19.8493 24.9366 19.7045 24.5587 19.7045H23.9482V21.2914H24.1779V20.5996H24.4599L24.4664 20.6081L24.9042 21.2914H25.1498L24.6787 20.5842L24.7102 20.5797ZM24.4447 20.4208H24.1786V19.8844H24.5159C24.6902 19.8844 24.889 19.9127 24.889 20.1393C24.889 20.3999 24.6879 20.4208 24.4433 20.4208" fill="#0A66C2"/>
<path d="M18.7211 18.5911H15.4654V13.5281C15.4654 12.3207 15.4437 10.7665 13.7722 10.7665C12.0765 10.7665 11.8171 12.0819 11.8171 13.4401V18.5908H8.56145V8.17909H11.6868V9.60195H11.7306C12.0434 9.07088 12.4954 8.63398 13.0384 8.33782C13.5814 8.04165 14.1952 7.89729 14.8143 7.92011C18.114 7.92011 18.7224 10.0755 18.7224 12.8794L18.7211 18.5911ZM4.88803 6.75588C4.51437 6.75596 4.14906 6.64599 3.83834 6.43988C3.5276 6.23378 3.28542 5.94082 3.14235 5.59801C2.99931 5.25521 2.96182 4.87799 3.03465 4.51404C3.10748 4.15009 3.28735 3.81575 3.55154 3.55333C3.81571 3.29088 4.15231 3.11215 4.51878 3.03969C4.88526 2.96722 5.26512 3.00432 5.61037 3.14625C5.95562 3.2882 6.25072 3.52861 6.45837 3.83711C6.66603 4.1456 6.77691 4.50833 6.77697 4.87939C6.77702 5.12578 6.72819 5.36975 6.63328 5.59739C6.53837 5.82504 6.39926 6.03189 6.22386 6.20613C6.04846 6.38039 5.8402 6.51862 5.61099 6.61295C5.38179 6.70727 5.13614 6.75584 4.88803 6.75588ZM6.51583 18.5911H3.25683V8.17909H6.51583V18.5911ZM20.3441 0.00124243H1.62088C1.19592 -0.00351998 0.786414 0.159456 0.482393 0.454359C0.178369 0.749261 0.00469818 1.15196 -0.000488281 1.57397V20.2443C0.00452067 20.6666 0.178089 21.0695 0.482102 21.3648C0.786114 21.6599 1.19571 21.8233 1.62088 21.8187H20.3441C20.7701 21.824 21.1809 21.6612 21.4861 21.366C21.7912 21.0708 21.966 20.6673 21.972 20.2443V1.57262C21.9658 1.14978 21.7909 0.746618 21.4858 0.451723C21.1806 0.156829 20.77 -0.00568203 20.3441 -0.000105206" fill="#0A66C2"/>
<path d="M24.4726 18.9976C24.0766 19.0014 23.698 19.1607 23.42 19.4409C23.1419 19.7211 22.9869 20.0992 22.9888 20.4926C22.9908 20.8859 23.1494 21.2625 23.4302 21.5399C23.7109 21.8175 24.0909 21.9732 24.4871 21.9732C24.8832 21.9732 25.2631 21.8175 25.5439 21.5399C25.8246 21.2625 25.9834 20.8859 25.9852 20.4926C25.9872 20.0992 25.8322 19.7211 25.5542 19.4409C25.276 19.1607 24.8976 19.0014 24.5014 18.9976H24.4726ZM24.4726 21.8029C24.2128 21.8073 23.9576 21.7349 23.7392 21.5951C23.5208 21.4554 23.3489 21.2544 23.2456 21.0177C23.1422 20.7809 23.1117 20.5191 23.1582 20.2653C23.2046 20.0114 23.3259 19.7769 23.5065 19.5914C23.6871 19.4059 23.9191 19.2778 24.1731 19.2232C24.4271 19.1687 24.6916 19.1902 24.9332 19.2849C25.1749 19.3797 25.3829 19.5436 25.5308 19.7556C25.6788 19.9678 25.76 20.2187 25.7643 20.4768C25.7643 20.4841 25.7643 20.4913 25.7643 20.4986C25.7717 20.837 25.6432 21.1646 25.4074 21.409C25.1717 21.6534 24.8477 21.7949 24.5069 21.8023H24.4729" fill="#0A66C2"/>
</svg>
