<svg width="235" height="50" viewBox="0 0 235 50" fill="none" xmlns="http://www.w3.org/2000/svg">
<path d="M82.8546 28.7988L81.4554 32.7523H81.3388C81.1055 31.8608 80.6783 30.5042 79.9785 28.8763L72.478 10.0778H65.1328V40.0391H69.9909V21.5507C69.9909 20.3879 69.9909 19.0701 69.9519 17.4422C69.9132 16.6282 69.8352 16.0081 69.7966 15.543H69.9132C70.1461 16.7057 70.4184 17.5584 70.6127 18.1011L79.629 39.9617H83.0489L91.9872 17.9073C92.1815 17.4034 92.3761 16.3957 92.5704 15.543H92.687C92.5704 17.7523 92.4924 19.729 92.4537 20.9306V39.9228H97.6223V10.0003H90.5494L82.8546 28.7988ZM102.519 18.4499H107.571V39.9228H102.519V18.4499ZM105.084 9.38015C104.229 9.38015 103.53 9.69025 102.947 10.2329C102.364 10.7755 102.053 11.4732 102.053 12.3259C102.053 13.1398 102.364 13.8375 102.947 14.3801C103.53 14.9228 104.229 15.1941 105.084 15.1941C105.939 15.1941 106.678 14.884 107.221 14.3801C107.805 13.8375 108.116 13.1398 108.116 12.3259C108.116 11.512 107.805 10.8143 107.221 10.2329C106.716 9.69025 105.978 9.38015 105.084 9.38015ZM125.487 18.2561C124.554 18.0623 123.583 17.946 122.65 17.946C120.357 17.946 118.259 18.4499 116.51 19.4577C114.761 20.4654 113.362 21.8608 112.468 23.605C111.535 25.3879 111.069 27.4422 111.069 29.8065C111.069 31.8608 111.535 33.6825 112.429 35.3492C113.323 36.977 114.567 38.295 116.238 39.1863C117.831 40.078 119.697 40.5429 121.795 40.5429C124.205 40.5429 126.264 40.0391 127.897 39.1089L127.936 39.07V34.4189L127.741 34.574C127.003 35.1165 126.148 35.5818 125.293 35.853C124.399 36.1631 123.583 36.3183 122.883 36.3183C120.863 36.3183 119.269 35.7367 118.142 34.4577C116.976 33.2174 116.393 31.512 116.393 29.3801C116.393 27.1709 116.976 25.4267 118.181 24.1476C119.386 22.8685 120.979 22.2096 122.922 22.2096C124.554 22.2096 126.226 22.7523 127.741 23.8375L127.936 23.9926V19.0701L127.897 19.0313C127.236 18.76 126.498 18.4499 125.487 18.2561ZM142.16 18.1011C140.916 18.1011 139.75 18.4887 138.74 19.3026C137.885 20.0003 137.301 21.0081 136.796 22.2096H136.758V18.4499H131.705V39.9228H136.758V28.9538C136.758 27.0933 137.146 25.543 138.001 24.4189C138.856 23.2561 139.944 22.6747 141.266 22.6747C141.732 22.6747 142.199 22.791 142.781 22.8686C143.326 23.0236 143.714 23.1786 143.986 23.3724L144.181 23.5274V18.4887L144.064 18.4499C143.714 18.2174 143.015 18.1011 142.16 18.1011ZM155.917 17.9848C152.38 17.9848 149.543 19.0313 147.561 21.0856C145.541 23.1399 144.569 25.9693 144.569 29.5352C144.569 32.8685 145.579 35.5818 147.523 37.5585C149.466 39.4964 152.109 40.504 155.412 40.504C158.871 40.504 161.63 39.4575 163.612 37.3648C165.633 35.2717 166.604 32.4809 166.604 29.0313C166.604 25.6205 165.672 22.9073 163.767 20.9306C161.941 18.9538 159.259 17.9848 155.917 17.9848ZM159.959 34.4964C159.026 35.6981 157.549 36.2794 155.723 36.2794C153.896 36.2794 152.419 35.6981 151.37 34.4189C150.321 33.2174 149.816 31.4732 149.816 29.2639C149.816 26.9771 150.359 25.2329 151.37 23.9926C152.419 22.7523 153.857 22.1321 155.684 22.1321C157.471 22.1321 158.871 22.7135 159.881 23.915C160.892 25.1166 161.435 26.8608 161.435 29.1476C161.358 31.4732 160.93 33.2949 159.959 34.4964ZM177.875 27.3647C176.281 26.7057 175.271 26.2019 174.804 25.7755C174.416 25.3879 174.222 24.8453 174.222 24.1476C174.222 23.5662 174.455 22.9848 175.038 22.5972C175.621 22.2096 176.281 22.0158 177.253 22.0158C178.108 22.0158 179.002 22.1708 179.857 22.4034C180.712 22.636 181.489 22.9848 182.111 23.4499L182.305 23.605V18.8763L182.189 18.8375C181.605 18.605 180.828 18.3724 179.896 18.1786C178.963 18.0236 178.108 17.946 177.408 17.946C174.999 17.946 173.017 18.5274 171.462 19.8065C169.908 21.0081 169.169 22.636 169.169 24.5352C169.169 25.543 169.325 26.4344 169.674 27.1708C170.024 27.9073 170.529 28.605 171.229 29.1864C171.929 29.729 172.939 30.3491 174.338 30.9306C175.504 31.4344 176.398 31.822 176.942 32.1321C177.486 32.4422 177.836 32.791 178.108 33.0623C178.302 33.3724 178.419 33.76 178.419 34.2639C178.419 35.6981 177.331 36.3957 175.115 36.3957C174.261 36.3957 173.367 36.2405 172.317 35.8919C171.268 35.5429 170.297 35.0391 169.48 34.4577L169.286 34.3026V39.2252L169.402 39.2638C170.141 39.6127 171.035 39.8454 172.123 40.1165C173.211 40.3103 174.183 40.4655 175.038 40.4655C177.641 40.4655 179.779 39.8839 181.295 38.6051C182.849 37.3648 183.665 35.7756 183.665 33.7213C183.665 32.2871 183.277 31.0081 182.421 30.0391C181.295 29.1088 179.896 28.1398 177.875 27.3647ZM196.995 17.9848C193.459 17.9848 190.622 19.0313 188.64 21.0856C186.658 23.1399 185.647 25.9693 185.647 29.5352C185.647 32.8685 186.658 35.5818 188.601 37.5585C190.544 39.4964 193.187 40.504 196.49 40.504C199.949 40.504 202.708 39.4575 204.69 37.3648C206.711 35.2717 207.683 32.4809 207.683 29.0313C207.683 25.6205 206.75 22.9073 204.846 20.9306C203.019 18.9538 200.338 17.9848 196.995 17.9848ZM200.998 34.4964C200.065 35.6981 198.589 36.2794 196.762 36.2794C194.897 36.2794 193.459 35.6981 192.41 34.4189C191.36 33.2174 190.855 31.4732 190.855 29.2639C190.855 26.9771 191.399 25.2329 192.41 23.9926C193.459 22.7523 194.897 22.1321 196.723 22.1321C198.472 22.1321 199.91 22.7135 200.92 23.915C201.931 25.1166 202.475 26.8608 202.475 29.1476C202.475 31.4732 201.97 33.2949 200.998 34.4964ZM234.692 22.5972V18.4499H229.601V12.0933L229.446 12.1321L224.627 13.5662L224.51 13.605V18.4499H216.893V15.7367C216.893 14.4964 217.204 13.5274 217.748 12.9073C218.292 12.2871 219.108 11.9771 220.119 11.9771C220.818 11.9771 221.557 12.1321 222.373 12.4809L222.567 12.5972V8.21737L222.451 8.17862C221.751 7.94605 220.818 7.79102 219.613 7.79102C218.098 7.79102 216.776 8.13987 215.572 8.72126C214.367 9.38015 213.473 10.2716 212.812 11.4732C212.152 12.636 211.802 13.9538 211.802 15.4654V18.4499H208.266V22.5584H211.802V39.9228H216.893V22.5972H224.51V33.6437C224.51 38.1787 226.648 40.4655 230.923 40.4655C231.622 40.4655 232.361 40.3492 233.06 40.2329C233.799 40.078 234.343 39.8839 234.653 39.729L234.692 39.6901V35.5429L234.498 35.6981C234.187 35.8919 233.915 36.0467 233.449 36.1631C233.06 36.2794 232.71 36.3183 232.439 36.3183C231.428 36.3183 230.728 36.0856 230.223 35.504C229.757 34.9617 229.523 34.0701 229.523 32.7523V22.5972H234.692Z" fill="#737373"/>
<path d="M0 0H23.823V23.7597H0V0Z" fill="#F25022"/>
<path d="M26.3086 0H50.1316V23.7597H26.3086V0Z" fill="#7FBA00"/>
<path d="M0 26.2402H23.823V49.9998H0V26.2402Z" fill="#00A4EF"/>
<path d="M26.3086 26.2402H50.1316V49.9998H26.3086V26.2402Z" fill="#FFB900"/>
</svg>
