 <svg width="509" height="138" viewBox="0 0 509 138" fill="none" xmlns="http://www.w3.org/2000/svg">
<path d="M69.9665 129.105C62.312 130.454 54.523 130.858 46.4656 131.936L21.8894 59.7015V135.036C14.235 135.844 7.25191 136.922 0 138V0H20.4131L48.3454 78.3V0H69.9665V129.105ZM112.269 50.5371C120.596 50.5371 133.353 50.1327 141.007 50.1327V71.6947C131.473 71.6947 120.326 71.6947 112.269 72.0992V104.174C124.893 103.366 137.517 102.287 150.273 101.882V122.635L90.7815 127.353V0H150.273V21.5625H112.269V50.5371ZM230.178 21.5631H207.885V120.75C200.634 120.75 193.382 120.75 186.399 121.019V21.5631H164.107V0H230.179L230.178 21.5631ZM265.093 49.0552H294.505V70.6172H265.093V119.538H244.009V0H304.039V21.5625H265.093V49.0552ZM338.955 100.67C351.176 100.938 363.53 101.883 375.483 102.556V123.849C356.279 122.636 337.075 121.425 317.469 121.019V0H338.955V100.67ZM393.612 125.332C400.461 125.737 407.713 126.142 414.696 126.948V0H393.612V125.332ZM508.836 0L481.574 65.6311L508.836 138C500.778 136.922 492.721 135.439 484.663 134.092L469.22 94.2018L453.508 130.859C445.718 129.509 438.197 129.105 430.411 128.027L458.074 64.8218L433.095 0H456.193L470.293 36.252L485.335 0H508.836Z" fill="#D81F26"/>
</svg>
