<svg width="508" height="144" viewBox="0 0 508 144" fill="none" xmlns="http://www.w3.org/2000/svg">
<path d="M109.477 27.2736C109.379 26.5583 108.754 26.1615 108.236 26.1183C107.721 26.0751 97.6377 25.9219 97.6377 25.9219C97.6377 25.9219 89.2047 17.7327 88.3716 16.8996C87.5388 16.0665 85.9118 16.318 85.2792 16.5066C85.2714 16.5106 83.6956 16.9978 81.0432 17.8191C80.5992 16.3809 79.9467 14.6126 79.0154 12.8364C76.0134 7.10713 71.6162 4.07744 66.3033 4.06961C66.2955 4.06961 66.2915 4.06961 66.2837 4.06961C65.9142 4.06961 65.5488 4.10497 65.1796 4.13639C65.0224 3.94777 64.8652 3.7631 64.7001 3.58232C62.3855 1.10671 59.4189 -0.0996624 55.8626 0.00643543C49.0015 0.202913 42.1682 5.15808 36.6275 13.9603C32.7293 20.1532 29.7624 27.9339 28.9216 33.9578C21.0428 36.398 15.5335 38.1033 15.4117 38.1428C11.435 39.3923 11.3093 39.5141 10.7906 43.263C10.4055 46.0961 0 126.558 0 126.558L87.2007 141.639L124.995 132.244C124.995 132.244 109.576 27.9889 109.477 27.2736ZM76.6774 19.1709C74.6694 19.7917 72.3862 20.4991 69.9106 21.2653C69.8596 17.7916 69.447 12.9583 67.828 8.78112C73.0347 9.76745 75.5967 15.6579 76.6774 19.1709ZM65.3484 22.68C60.7784 24.0945 55.7917 25.6388 50.7895 27.1872C52.1962 21.7997 54.8645 16.4359 58.1418 12.9189C59.3599 11.6104 61.0652 10.1525 63.085 9.31947C64.9829 13.2805 65.3956 18.8879 65.3484 22.68ZM56 4.57257C57.6111 4.5372 58.9668 4.89088 60.1261 5.6532C58.2714 6.61595 56.4794 7.99915 54.7977 9.80281C50.4397 14.479 47.0996 21.7369 45.7674 28.7393C41.6139 30.0242 37.5507 31.2858 33.8098 32.4411C36.1716 21.4186 45.4098 4.87907 56 4.57257Z" fill="#95BF47"/>
<path d="M108.238 26.1203C107.724 26.0771 97.64 25.9239 97.64 25.9239C97.64 25.9239 89.2073 17.7347 88.3742 16.9016C88.0638 16.5912 87.6434 16.4301 87.2031 16.3633L87.2071 141.634L124.998 132.242C124.998 132.242 109.579 27.9909 109.48 27.2757C109.382 26.5604 108.753 26.1635 108.238 26.1203Z" fill="#5E8E3E"/>
<path d="M66.2551 45.5559L61.866 61.9774C61.866 61.9774 56.9698 59.7494 51.1658 60.1148C42.6543 60.6533 42.5638 66.0209 42.6505 67.3689C43.1141 74.7131 62.4356 76.3165 63.5203 93.52C64.373 107.053 56.3409 116.311 44.7685 117.042C30.8774 117.919 23.2305 109.725 23.2305 109.725L26.1738 97.2059C26.1738 97.2059 33.8717 103.014 40.0332 102.625C44.0572 102.369 45.4953 99.0961 45.3499 96.7814C44.7449 87.2012 29.0108 87.7671 28.0168 72.0253C27.1797 58.7789 35.8799 45.3555 55.0756 44.1452C62.471 43.6698 66.2551 45.5559 66.2551 45.5559Z" fill="white"/>
<path d="M174.766 79.9391C170.42 77.581 168.187 75.5934 168.187 72.8611C168.187 69.3846 171.289 67.1512 176.134 67.1512C181.773 67.1512 186.809 69.5092 186.809 69.5092L190.78 57.3412C190.78 57.3412 187.128 54.4844 176.379 54.4844C161.42 54.4844 151.053 63.051 151.053 75.0943C151.053 81.9228 155.894 87.1377 162.352 90.8597C167.567 93.8375 169.43 95.95 169.43 99.0524C169.43 102.28 166.823 104.887 161.982 104.887C154.767 104.887 147.955 101.161 147.955 101.161L143.734 113.329C143.734 113.329 150.028 117.55 160.618 117.55C176.013 117.55 187.062 109.977 187.062 96.3202C187.058 89.0007 181.473 83.7858 174.766 79.9391Z" fill="black"/>
<path d="M236.097 54.3648C228.524 54.3648 222.565 57.9662 217.973 63.4266L217.724 63.3017L224.303 28.9141H207.169L190.535 116.437H207.668L213.378 86.5193C215.611 75.2205 221.446 68.2712 226.91 68.2712C230.757 68.2712 232.25 70.8785 232.25 74.6046C232.25 76.9626 232 79.8195 231.505 82.1775L225.051 116.441H242.185L248.887 81.0588C249.633 77.3328 250.131 72.8664 250.131 69.8847C250.124 60.1994 245.035 54.3648 236.097 54.3648Z" fill="black"/>
<path d="M288.857 54.3633C268.246 54.3633 254.594 72.9858 254.594 93.7166C254.594 106.999 262.786 117.675 278.182 117.675C298.417 117.675 312.074 99.5512 312.074 78.3213C312.074 66.0325 304.871 54.3633 288.857 54.3633ZM280.415 104.52C274.58 104.52 272.096 99.555 272.096 93.3462C272.096 83.54 277.188 67.5254 286.498 67.5254C292.582 67.5254 294.565 72.74 294.565 77.8303C294.565 88.3808 289.48 104.52 280.415 104.52Z" fill="black"/>
<path d="M355.896 54.3633C344.331 54.3633 337.769 64.5436 337.769 64.5436H337.523L338.517 55.3571H323.371C322.627 61.5659 321.258 70.9979 319.896 78.0758L307.977 140.767H325.111L329.825 115.441H330.2C330.2 115.441 333.715 117.675 340.257 117.675C360.367 117.675 373.526 97.0685 373.526 76.209C373.526 64.6685 368.434 54.3633 355.896 54.3633ZM339.509 104.766C335.061 104.766 332.429 102.283 332.429 102.283L335.285 86.2685C337.273 75.5931 342.858 68.5152 348.819 68.5152C354.034 68.5152 355.646 73.3559 355.646 77.9512C355.646 89.0005 349.067 104.766 339.509 104.766Z" fill="black"/>
<path d="M397.982 29.7852C392.522 29.7852 388.176 34.1309 388.176 39.716C388.176 44.8062 391.403 48.2828 396.244 48.2828H396.492C401.832 48.2828 406.424 44.6814 406.549 38.352C406.549 33.3863 403.197 29.7852 397.982 29.7852Z" fill="black"/>
<path d="M374.023 116.438H391.152L402.825 55.7344H385.566L374.023 116.438Z" fill="black"/>
<path d="M446.404 55.6072H434.485L435.103 52.7504C436.097 46.9158 439.574 41.7008 445.285 41.7008C448.332 41.7008 450.745 42.57 450.745 42.57L454.097 29.1627C454.097 29.1627 451.118 27.6738 444.784 27.6738C438.701 27.6738 432.622 29.412 428.026 33.3835C422.19 38.3492 419.459 45.5478 418.095 52.7504L417.601 55.6072H409.653L407.169 68.5198H415.118L406.055 116.44H423.189L432.251 68.5198H444.045L446.404 55.6072Z" fill="black"/>
<path d="M487.616 55.7325C487.616 55.7325 476.906 82.7148 472.097 97.4437H471.847C471.521 92.7004 467.626 55.7325 467.626 55.7325H449.624L459.933 111.471C460.183 112.71 460.058 113.459 459.56 114.328C457.57 118.174 454.22 121.901 450.247 124.633C447.02 126.991 443.42 128.479 440.566 129.473L445.282 143.999C448.76 143.255 455.957 140.398 462.041 134.688C469.864 127.365 477.062 116.066 484.51 100.671L505.491 55.7285H487.616V55.7325Z" fill="black"/>
</svg>
