<svg width="113" height="39" viewBox="0 0 113 39" fill="none" xmlns="http://www.w3.org/2000/svg">
<path d="M6.49821 27.8533C6.9755 29.1132 7.63632 30.1903 8.48075 31.0849C9.3252 31.9797 10.3256 32.6644 11.482 33.1392C12.6385 33.6139 13.8959 33.8512 15.2543 33.8512C16.5761 33.8512 17.8151 33.6047 18.9716 33.1115C20.1281 32.6186 21.1377 31.9248 22.0004 31.0302C22.8631 30.1356 23.5332 29.0675 24.0105 27.826C24.4878 26.5843 24.7264 25.1968 24.7264 23.663V0H30.5086V38.3427H24.7814V34.7823C23.4965 36.1332 21.982 37.174 20.2382 37.9045C18.4942 38.6349 16.6128 39 14.5935 39C12.5375 39 10.6193 38.6439 8.83864 37.9318C7.05812 37.2198 5.51606 36.2066 4.21283 34.8917C2.90963 33.5771 1.88154 31.9981 1.12897 30.1538C0.376285 28.3097 0 26.2557 0 23.9916V0H5.78231V23.663C5.78231 25.1968 6.02091 26.5934 6.49821 27.8533Z" fill="#010202"/>
<path d="M40.4761 0V13.9677C41.761 12.6896 43.248 11.6764 44.9368 10.9277C46.6255 10.179 48.4613 9.80476 50.4438 9.80476C52.4999 9.80476 54.4271 10.1881 56.2261 10.955C58.0249 11.7218 59.5851 12.7626 60.9071 14.0772C62.2287 15.3919 63.2752 16.9438 64.046 18.7331C64.8169 20.5225 65.2024 22.4214 65.2024 24.4298C65.2024 26.4382 64.8169 28.3278 64.046 30.0988C63.2752 31.87 62.2287 33.413 60.9071 34.7273C59.5851 36.042 58.0249 37.0828 56.2261 37.8498C54.4271 38.6165 52.4996 39 50.4438 39C48.4613 39 46.6165 38.6257 44.9093 37.8769C43.202 37.1283 41.706 36.1151 40.4211 34.837V38.3427H34.9141V0H40.4761ZM41.1095 28.2092C41.605 29.3778 42.2934 30.4002 43.1745 31.2766C44.0556 32.1531 45.0838 32.8469 46.2584 33.3583C47.4334 33.8696 48.6998 34.125 50.0582 34.125C51.3802 34.125 52.6281 33.8696 53.803 33.3583C54.9777 32.8469 55.9966 32.1533 56.8595 31.2766C57.7221 30.4005 58.4104 29.3778 58.9245 28.2092C59.4386 27.0408 59.6954 25.781 59.6954 24.4298C59.6954 23.0787 59.4386 21.8097 58.9245 20.6229C58.4104 19.4361 57.7221 18.4045 56.8595 17.5281C55.9966 16.6518 54.978 15.967 53.803 15.4741C52.6281 14.9812 51.3799 14.7345 50.0582 14.7345C48.7368 14.7345 47.4884 14.981 46.3137 15.4741C45.1388 15.9671 44.1109 16.6518 43.2298 17.5281C42.3486 18.4045 41.651 19.4361 41.137 20.6229C40.6231 21.8097 40.3661 23.0787 40.3661 24.4298C40.3661 25.781 40.6139 27.0408 41.1095 28.2092Z" fill="#010202"/>
<path d="M68.3414 18.7881C69.0755 17.0353 70.0854 15.4925 71.3703 14.1596C72.655 12.8268 74.1787 11.7769 75.941 11.0101C77.7032 10.2432 79.6122 9.85986 81.6683 9.85986C83.6876 9.85986 85.5599 10.2251 87.2854 10.9553C89.0108 11.6857 90.4978 12.699 91.746 13.9954C92.9944 15.2917 93.9673 16.8255 94.6647 18.5965C95.3623 20.3676 95.7111 22.2939 95.7111 24.3754V26.183H72.8573C73.0408 27.315 73.4079 28.3648 73.9587 29.3325C74.5093 30.3001 75.1976 31.14 76.0237 31.852C76.8496 32.5643 77.786 33.1211 78.8321 33.5228C79.8785 33.9244 80.9892 34.1254 82.1639 34.1254C85.5048 34.1254 88.2035 32.7558 90.2593 30.0171L94.2794 32.9749C92.8842 34.8374 91.1589 36.298 89.1029 37.357C87.0468 38.4159 84.734 38.9454 82.1641 38.9454C80.0713 38.9454 78.1166 38.5801 76.2993 37.8499C74.4818 37.1197 72.9033 36.0971 71.5631 34.7824C70.2232 33.4678 69.1678 31.9249 68.3966 30.1539C67.6258 28.3829 67.2402 26.4565 67.2402 24.3751C67.24 22.4033 67.6073 20.5409 68.3414 18.7881ZM76.0787 16.6244C74.5185 17.9208 73.4814 19.6462 72.9673 21.8007H90.094C89.6167 19.6462 88.5981 17.9208 87.0376 16.6244C85.4773 15.3282 83.6508 14.68 81.5583 14.68C79.4655 14.68 77.639 15.3282 76.0787 16.6244Z" fill="#010202"/>
<path d="M106.117 17.2541C104.943 18.5321 104.355 20.2666 104.355 22.4577V38.3427H98.793V10.4072H104.3V13.8581C104.998 12.7261 105.906 11.8314 107.026 11.1741C108.146 10.5167 109.477 10.188 111.018 10.188H112.946V15.3369H110.633C108.797 15.337 107.292 15.976 106.117 17.2541Z" fill="#010202"/>
</svg>
