<svg width="1440" height="616" viewBox="0 0 1440 616" fill="none" xmlns="http://www.w3.org/2000/svg">
<g filter="url(#filter0_d_715_785)">
<rect x="-65" width="1529" height="608" fill="#0B0C10"/>
</g>
<path d="M444.097 539C441.794 538.982 439.464 538.966 437.176 538.895L437.247 536.587C439.511 536.657 441.827 536.689 444.098 536.691C446.379 536.691 448.703 536.654 451.009 536.579L451.083 538.886C448.752 538.962 446.402 539 444.097 539ZM423.299 538.025C418.703 537.59 414.062 537 409.505 536.273L409.869 533.993C414.377 534.712 418.969 535.296 423.516 535.727L423.299 538.025ZM464.958 538L464.739 535.702C469.284 535.267 473.875 534.677 478.384 533.951L478.751 536.231C474.194 536.965 469.553 537.56 464.958 538H464.958ZM395.85 533.638C391.35 532.617 386.823 531.436 382.394 530.127L383.048 527.913C387.43 529.208 391.909 530.376 396.361 531.385L395.85 533.638ZM492.402 533.58L491.889 531.33C496.351 530.312 500.829 529.138 505.197 527.84L505.855 530.055C501.439 531.366 496.912 532.552 492.402 533.58H492.402ZM369.191 525.757C364.849 524.162 360.504 522.405 356.279 520.535L357.213 518.424C361.393 520.273 365.691 522.012 369.986 523.59L369.191 525.757ZM519.051 525.667L518.253 523.5C522.522 521.927 526.805 520.189 530.982 518.336L531.919 520.447C527.696 522.32 523.367 524.077 519.051 525.667H519.051ZM343.734 514.491C339.648 512.358 335.568 510.058 331.607 507.657L332.804 505.681C336.723 508.059 340.76 510.333 344.802 512.444L343.734 514.491ZM544.428 514.407L543.359 512.36C547.393 510.251 551.42 507.977 555.328 505.601L556.527 507.574C552.577 509.976 548.506 512.274 544.428 514.407H544.428ZM319.946 500.06C316.162 497.418 312.411 494.617 308.797 491.735L310.237 489.929C313.812 492.781 317.524 495.552 321.268 498.166L319.946 500.06ZM568.169 499.978L566.846 498.086C570.589 495.469 574.295 492.698 577.862 489.849L579.303 491.652C575.698 494.532 571.952 497.333 568.169 499.978ZM298.203 482.714C294.782 479.608 291.419 476.353 288.208 473.042L289.865 471.434C293.042 474.71 296.37 477.93 299.755 481.005L298.203 482.714ZM589.886 482.634L588.333 480.925C591.71 477.857 595.035 474.635 598.217 471.35L599.874 472.956C596.659 476.276 593.298 479.532 589.886 482.634ZM278.85 462.755C275.854 459.241 272.934 455.587 270.168 451.894L272.016 450.509C274.752 454.165 277.642 457.78 280.606 461.255L278.85 462.755ZM609.23 462.659L607.474 461.162C610.437 457.683 613.327 454.063 616.063 450.403L617.911 451.786C615.146 455.485 612.226 459.143 609.23 462.659V462.659ZM262.198 440.502C259.673 436.634 257.242 432.639 254.974 428.629L256.984 427.492C259.227 431.46 261.632 435.413 264.131 439.239L262.198 440.502ZM625.884 440.377L623.95 439.116C626.45 435.282 628.854 431.322 631.099 427.346L633.11 428.48C630.842 432.5 628.41 436.503 625.884 440.377ZM248.528 416.319C246.519 412.163 244.622 407.893 242.888 403.624L245.026 402.756C246.742 406.977 248.619 411.203 250.606 415.314L248.528 416.319ZM639.558 416.139L637.48 415.135C639.466 411.018 641.344 406.781 643.062 402.539L645.201 403.405C643.465 407.693 641.567 411.977 639.558 416.139ZM238.069 390.576C236.609 386.19 235.275 381.704 234.104 377.242L236.337 376.655C237.495 381.069 238.815 385.508 240.259 389.845L238.069 390.576ZM650.011 390.331L647.82 389.605C649.256 385.272 650.571 380.833 651.727 376.41L653.961 376.994C652.792 381.465 651.463 385.952 650.011 390.331ZM231.007 363.683C230.125 359.153 229.378 354.534 228.788 349.953L231.078 349.657C231.662 354.19 232.4 358.759 233.272 363.241L231.007 363.683ZM657.041 363.429L654.776 362.992C655.641 358.511 656.375 353.939 656.953 349.404L659.244 349.697C658.659 354.281 657.917 358.901 657.041 363.429V363.429ZM227.454 336.11C227.158 331.508 227.005 326.83 227 322.206L229.309 322.204C229.314 326.779 229.465 331.407 229.758 335.961L227.454 336.11ZM660.563 335.852L658.259 335.705C658.546 331.156 658.691 326.528 658.691 321.951L658.69 321.445H660.999L661 321.943C661 326.576 660.852 331.253 660.563 335.852ZM229.726 308.449L227.422 308.307C227.708 303.695 228.146 299.037 228.723 294.459L231.014 294.748C230.442 299.278 230.009 303.887 229.726 308.449ZM658.227 307.691C657.927 303.127 657.477 298.519 656.89 293.996L659.178 293.698C659.772 298.27 660.228 302.926 660.531 307.54L658.227 307.691ZM233.176 281.16L230.909 280.724C231.78 276.192 232.811 271.627 233.973 267.157L236.208 267.737C235.058 272.161 234.038 276.676 233.176 281.16ZM654.678 280.415C653.798 275.929 652.761 271.417 651.598 267.004L653.83 266.415C655.007 270.876 656.054 275.436 656.943 279.971L654.678 280.415ZM240.1 254.538L237.907 253.814C239.356 249.427 240.969 245.026 242.703 240.733L244.843 241.598C243.129 245.845 241.533 250.198 240.1 254.538ZM647.662 253.818C646.212 249.485 644.604 245.143 642.88 240.915L645.017 240.043C646.76 244.317 648.387 248.705 649.851 253.086L647.662 253.818ZM250.411 228.993L248.331 227.992C250.333 223.828 252.498 219.673 254.766 215.644L256.778 216.777C254.534 220.763 252.393 224.873 250.411 228.993ZM637.286 228.363C635.297 224.263 633.148 220.168 630.894 216.192L632.902 215.054C635.18 219.072 637.354 223.211 639.362 227.356L637.286 228.363ZM263.913 204.997L261.978 203.737C264.495 199.867 267.173 196.025 269.936 192.32L271.787 193.7C269.053 197.366 266.404 201.167 263.913 204.997ZM623.732 204.453C621.234 200.638 618.578 196.849 615.834 193.192L617.68 191.807C620.453 195.503 623.139 199.332 625.664 203.188L623.732 204.453ZM280.364 182.932L278.605 181.437C281.595 177.919 284.738 174.451 287.947 171.13L289.608 172.734C286.432 176.02 283.322 179.451 280.364 182.932ZM607.231 182.456C604.263 178.985 601.143 175.564 597.96 172.288L599.615 170.679C602.833 173.99 605.986 177.447 608.985 180.956L607.231 182.456ZM299.48 163.147L297.926 161.44C301.342 158.327 304.899 155.288 308.499 152.408L309.941 154.211C306.38 157.061 302.86 160.068 299.48 163.147ZM588.057 162.728C584.673 159.663 581.143 156.665 577.565 153.818L579.004 152.011C582.619 154.889 586.186 157.918 589.606 161.016L588.057 162.728ZM320.948 145.96L319.624 144.07C323.401 141.422 327.314 138.862 331.256 136.46L332.457 138.432C328.558 140.809 324.685 143.341 320.948 145.96ZM566.526 145.593C562.768 142.977 558.883 140.452 554.98 138.09L556.175 136.114C560.12 138.502 564.047 141.053 567.845 143.698L566.526 145.593ZM344.419 131.659L343.347 129.613C347.428 127.472 351.634 125.435 355.848 123.558L356.787 125.668C352.618 127.524 348.457 129.54 344.419 131.659ZM542.974 131.342C538.92 129.231 534.742 127.225 530.557 125.378L531.489 123.265C535.719 125.132 539.942 127.16 544.04 129.293L542.974 131.342ZM369.511 120.488L368.709 118.322C373.038 116.721 377.476 115.239 381.901 113.92L382.561 116.133C378.183 117.438 373.792 118.904 369.511 120.488H369.511ZM517.777 120.226C513.486 118.656 509.09 117.206 504.711 115.918L505.362 113.702C509.789 115.005 514.233 116.471 518.57 118.058L517.777 120.226ZM395.865 112.629L395.35 110.379C399.841 109.35 404.433 108.453 408.997 107.711L409.367 109.991C404.851 110.724 400.308 111.611 395.865 112.629ZM491.394 112.461C486.943 111.458 482.397 110.587 477.882 109.871L478.244 107.59C482.807 108.314 487.402 109.195 491.901 110.209L491.394 112.461ZM423.011 108.224L422.787 105.926C427.371 105.481 432.039 105.178 436.662 105.024L436.739 107.331C432.164 107.484 427.545 107.784 423.011 108.224ZM464.232 108.152C459.691 107.728 455.071 107.444 450.501 107.308L450.57 105C455.188 105.138 459.857 105.424 464.447 105.853L464.232 108.152Z" fill="#D0CDE1"/>
<path d="M444 174C481.555 174 512 143.555 512 106C512 68.4446 481.555 38 444 38C406.445 38 376 68.4446 376 106C376 143.555 406.445 174 444 174Z" fill="#2DB2C4"/>
<path d="M404.536 93.62C404.536 95.3933 405.469 96.28 407.336 96.28C409.203 96.28 410.136 95.3933 410.136 93.62V84.3H412.376V93.58C412.376 95.1933 411.949 96.3733 411.096 97.12C410.256 97.8533 408.996 98.22 407.316 98.22C405.649 98.22 404.396 97.8533 403.556 97.12C402.716 96.3733 402.296 95.1933 402.296 93.58V84.3H404.536V93.62ZM415.086 102.3V88H417.246V88.62C418.166 88.06 419.026 87.78 419.826 87.78C421.146 87.78 422.112 88.1867 422.726 89C423.339 89.8 423.646 91.1533 423.646 93.06C423.646 94.9533 423.292 96.2867 422.586 97.06C421.892 97.8333 420.752 98.22 419.166 98.22C418.619 98.22 417.986 98.16 417.266 98.04V102.3H415.086ZM419.446 89.72C418.819 89.72 418.192 89.86 417.566 90.14L417.266 90.28V96.18C417.799 96.2867 418.386 96.34 419.026 96.34C419.932 96.34 420.559 96.08 420.906 95.56C421.252 95.04 421.426 94.1533 421.426 92.9C421.426 90.78 420.766 89.72 419.446 89.72ZM423.205 86.28V84.3H433.205V86.28H429.345V98H427.105V86.28H423.205ZM433.751 89.08C434.444 88.2133 435.591 87.78 437.191 87.78C438.791 87.78 439.931 88.2133 440.611 89.08C441.304 89.9467 441.651 91.2467 441.651 92.98C441.651 94.7133 441.317 96.02 440.651 96.9C439.984 97.78 438.831 98.22 437.191 98.22C435.551 98.22 434.397 97.78 433.731 96.9C433.064 96.02 432.731 94.7133 432.731 92.98C432.731 91.2467 433.071 89.9467 433.751 89.08ZM435.391 95.58C435.697 96.1133 436.297 96.38 437.191 96.38C438.084 96.38 438.684 96.1133 438.991 95.58C439.297 95.0467 439.451 94.1733 439.451 92.96C439.451 91.7467 439.284 90.8867 438.951 90.38C438.631 89.8733 438.044 89.62 437.191 89.62C436.337 89.62 435.744 89.8733 435.411 90.38C435.091 90.8867 434.931 91.7467 434.931 92.96C434.931 94.1733 435.084 95.0467 435.391 95.58ZM453.211 98H448.471V84.3H453.211C455.317 84.3 456.757 84.8333 457.531 85.9C458.304 86.9667 458.691 88.64 458.691 90.92C458.691 92.08 458.611 93.0667 458.451 93.88C458.304 94.68 458.037 95.4067 457.651 96.06C456.891 97.3533 455.411 98 453.211 98ZM456.391 90.92C456.391 89.2667 456.184 88.0733 455.771 87.34C455.357 86.6067 454.504 86.24 453.211 86.24H450.691V96.04H453.211C454.531 96.04 455.411 95.5533 455.851 94.58C456.064 94.0867 456.204 93.56 456.271 93C456.351 92.44 456.391 91.7467 456.391 90.92ZM468.423 91.08V95.64C468.436 95.9333 468.51 96.1533 468.643 96.3C468.79 96.4333 469.01 96.52 469.303 96.56L469.243 98.22C468.096 98.22 467.21 97.9733 466.583 97.48C465.516 97.9733 464.443 98.22 463.363 98.22C461.376 98.22 460.383 97.16 460.383 95.04C460.383 94.0267 460.65 93.2933 461.183 92.84C461.73 92.3867 462.563 92.1133 463.683 92.02L466.263 91.8V91.08C466.263 90.5467 466.143 90.1733 465.903 89.96C465.676 89.7467 465.336 89.64 464.883 89.64C464.03 89.64 462.963 89.6933 461.683 89.8L461.043 89.84L460.963 88.3C462.416 87.9533 463.75 87.78 464.963 87.78C466.19 87.78 467.07 88.0467 467.603 88.58C468.15 89.1 468.423 89.9333 468.423 91.08ZM463.943 93.56C463.023 93.64 462.563 94.14 462.563 95.06C462.563 95.98 462.97 96.44 463.783 96.44C464.45 96.44 465.156 96.3333 465.903 96.12L466.263 96V93.34L463.943 93.56ZM476.54 89.86H473.78V94.26C473.78 95.0733 473.84 95.6133 473.96 95.88C474.08 96.1467 474.387 96.28 474.88 96.28L476.52 96.22L476.62 97.96C475.727 98.1333 475.047 98.22 474.58 98.22C473.447 98.22 472.667 97.96 472.24 97.44C471.827 96.92 471.62 95.94 471.62 94.5V89.86H470.34V88H471.62V85.1H473.78V88H476.54V89.86ZM485.448 96.2L486.008 96.14L486.048 97.76C484.528 98.0667 483.181 98.22 482.008 98.22C480.528 98.22 479.461 97.8133 478.808 97C478.168 96.1867 477.848 94.8867 477.848 93.1C477.848 89.5533 479.294 87.78 482.188 87.78C484.988 87.78 486.388 89.3067 486.388 92.36L486.248 93.92H480.048C480.061 94.7467 480.241 95.3533 480.588 95.74C480.934 96.1267 481.581 96.32 482.528 96.32C483.474 96.32 484.448 96.28 485.448 96.2ZM484.248 92.24C484.248 91.2533 484.088 90.5667 483.768 90.18C483.461 89.78 482.934 89.58 482.188 89.58C481.441 89.58 480.894 89.7867 480.548 90.2C480.214 90.6133 480.041 91.2933 480.028 92.24H484.248ZM403.533 128V118H405.693V119.2C406.826 118.467 407.96 117.993 409.093 117.78V119.96C407.946 120.187 406.966 120.48 406.153 120.84L405.713 121.02V128H403.533ZM417.801 126.2L418.361 126.14L418.401 127.76C416.881 128.067 415.535 128.22 414.361 128.22C412.881 128.22 411.815 127.813 411.161 127C410.521 126.187 410.201 124.887 410.201 123.1C410.201 119.553 411.648 117.78 414.541 117.78C417.341 117.78 418.741 119.307 418.741 122.36L418.601 123.92H412.401C412.415 124.747 412.595 125.353 412.941 125.74C413.288 126.127 413.935 126.32 414.881 126.32C415.828 126.32 416.801 126.28 417.801 126.2ZM416.601 122.24C416.601 121.253 416.441 120.567 416.121 120.18C415.815 119.78 415.288 119.58 414.541 119.58C413.795 119.58 413.248 119.787 412.901 120.2C412.568 120.613 412.395 121.293 412.381 122.24H416.601ZM427.778 120.06C426.204 119.847 425.064 119.74 424.358 119.74C423.651 119.74 423.158 119.827 422.878 120C422.611 120.16 422.478 120.42 422.478 120.78C422.478 121.14 422.624 121.393 422.918 121.54C423.224 121.687 423.931 121.86 425.038 122.06C426.158 122.247 426.951 122.547 427.418 122.96C427.884 123.373 428.118 124.107 428.118 125.16C428.118 126.213 427.778 126.987 427.098 127.48C426.431 127.973 425.451 128.22 424.158 128.22C423.344 128.22 422.318 128.107 421.078 127.88L420.458 127.78L420.538 125.96C422.138 126.173 423.291 126.28 423.998 126.28C424.704 126.28 425.204 126.193 425.498 126.02C425.804 125.847 425.958 125.56 425.958 125.16C425.958 124.76 425.811 124.487 425.518 124.34C425.238 124.18 424.551 124.013 423.458 123.84C422.378 123.653 421.584 123.367 421.078 122.98C420.571 122.593 420.318 121.887 420.318 120.86C420.318 119.833 420.664 119.067 421.358 118.56C422.064 118.053 422.964 117.8 424.058 117.8C424.911 117.8 425.958 117.907 427.198 118.12L427.818 118.24L427.778 120.06ZM430.753 119.08C431.446 118.213 432.593 117.78 434.193 117.78C435.793 117.78 436.933 118.213 437.613 119.08C438.306 119.947 438.653 121.247 438.653 122.98C438.653 124.713 438.319 126.02 437.653 126.9C436.986 127.78 435.833 128.22 434.193 128.22C432.553 128.22 431.399 127.78 430.733 126.9C430.066 126.02 429.733 124.713 429.733 122.98C429.733 121.247 430.073 119.947 430.753 119.08ZM432.393 125.58C432.699 126.113 433.299 126.38 434.193 126.38C435.086 126.38 435.686 126.113 435.993 125.58C436.299 125.047 436.453 124.173 436.453 122.96C436.453 121.747 436.286 120.887 435.953 120.38C435.633 119.873 435.046 119.62 434.193 119.62C433.339 119.62 432.746 119.873 432.413 120.38C432.093 120.887 431.933 121.747 431.933 122.96C431.933 124.173 432.086 125.047 432.393 125.58ZM446.878 118H449.038V128H446.878V127.38C445.905 127.94 445.005 128.22 444.178 128.22C442.805 128.22 441.885 127.853 441.418 127.12C440.951 126.373 440.718 125.073 440.718 123.22V118H442.898V123.24C442.898 124.44 442.998 125.247 443.198 125.66C443.398 126.073 443.865 126.28 444.598 126.28C445.318 126.28 445.978 126.147 446.578 125.88L446.878 125.76V118ZM451.677 128V118H453.837V119.2C454.971 118.467 456.104 117.993 457.237 117.78V119.96C456.091 120.187 455.111 120.48 454.297 120.84L453.857 121.02V128H451.677ZM462.566 117.78C463.273 117.78 464.106 117.873 465.066 118.06L465.566 118.16L465.486 119.88C464.433 119.773 463.653 119.72 463.146 119.72C462.133 119.72 461.453 119.947 461.106 120.4C460.759 120.853 460.586 121.707 460.586 122.96C460.586 124.213 460.753 125.08 461.086 125.56C461.419 126.04 462.113 126.28 463.166 126.28L465.506 126.12L465.566 127.86C464.219 128.1 463.206 128.22 462.526 128.22C461.006 128.22 459.933 127.813 459.306 127C458.693 126.173 458.386 124.827 458.386 122.96C458.386 121.093 458.713 119.767 459.366 118.98C460.019 118.18 461.086 117.78 462.566 117.78ZM474.696 126.2L475.256 126.14L475.296 127.76C473.776 128.067 472.429 128.22 471.256 128.22C469.776 128.22 468.709 127.813 468.056 127C467.416 126.187 467.096 124.887 467.096 123.1C467.096 119.553 468.543 117.78 471.436 117.78C474.236 117.78 475.636 119.307 475.636 122.36L475.496 123.92H469.296C469.309 124.747 469.489 125.353 469.836 125.74C470.183 126.127 470.829 126.32 471.776 126.32C472.723 126.32 473.696 126.28 474.696 126.2ZM473.496 122.24C473.496 121.253 473.336 120.567 473.016 120.18C472.709 119.78 472.183 119.58 471.436 119.58C470.689 119.58 470.143 119.787 469.796 120.2C469.463 120.613 469.289 121.293 469.276 122.24H473.496ZM484.672 120.06C483.099 119.847 481.959 119.74 481.252 119.74C480.545 119.74 480.052 119.827 479.772 120C479.505 120.16 479.372 120.42 479.372 120.78C479.372 121.14 479.519 121.393 479.812 121.54C480.119 121.687 480.825 121.86 481.932 122.06C483.052 122.247 483.845 122.547 484.312 122.96C484.779 123.373 485.012 124.107 485.012 125.16C485.012 126.213 484.672 126.987 483.992 127.48C483.325 127.973 482.345 128.22 481.052 128.22C480.239 128.22 479.212 128.107 477.972 127.88L477.352 127.78L477.432 125.96C479.032 126.173 480.185 126.28 480.892 126.28C481.599 126.28 482.099 126.193 482.392 126.02C482.699 125.847 482.852 125.56 482.852 125.16C482.852 124.76 482.705 124.487 482.412 124.34C482.132 124.18 481.445 124.013 480.352 123.84C479.272 123.653 478.479 123.367 477.972 122.98C477.465 122.593 477.212 121.887 477.212 120.86C477.212 119.833 477.559 119.067 478.252 118.56C478.959 118.053 479.859 117.8 480.952 117.8C481.805 117.8 482.852 117.907 484.092 118.12L484.712 118.24L484.672 120.06Z" fill="white"/>
<path d="M248 318C285.555 318 316 287.555 316 250C316 212.445 285.555 182 248 182C210.445 182 180 212.445 180 250C180 287.555 210.445 318 248 318Z" fill="#2DB2C4"/>
<path d="M219.204 229.02C217.51 229.02 216.664 229.613 216.664 230.8C216.664 231.413 216.864 231.853 217.264 232.12C217.664 232.373 218.544 232.693 219.904 233.08C221.277 233.453 222.244 233.907 222.804 234.44C223.364 234.96 223.644 235.787 223.644 236.92C223.644 238.36 223.23 239.44 222.404 240.16C221.59 240.867 220.477 241.22 219.064 241.22C217.93 241.22 216.677 241.087 215.304 240.82L214.584 240.68L214.804 238.9C216.604 239.14 217.977 239.26 218.924 239.26C220.577 239.26 221.404 238.527 221.404 237.06C221.404 236.487 221.217 236.067 220.844 235.8C220.47 235.52 219.63 235.22 218.324 234.9C217.017 234.567 216.044 234.113 215.404 233.54C214.764 232.967 214.444 232.06 214.444 230.82C214.444 229.58 214.844 228.647 215.644 228.02C216.457 227.38 217.577 227.06 219.004 227.06C220.03 227.06 221.244 227.18 222.644 227.42L223.344 227.54L223.164 229.34C221.297 229.127 219.977 229.02 219.204 229.02ZM231.026 232.86H228.266V237.26C228.266 238.073 228.326 238.613 228.446 238.88C228.566 239.147 228.873 239.28 229.366 239.28L231.006 239.22L231.106 240.96C230.213 241.133 229.533 241.22 229.066 241.22C227.933 241.22 227.153 240.96 226.726 240.44C226.313 239.92 226.106 238.94 226.106 237.5V232.86H224.826V231H226.106V228.1H228.266V231H231.026V232.86ZM238.874 231H241.034V241H238.874V240.38C237.901 240.94 237.001 241.22 236.174 241.22C234.801 241.22 233.881 240.853 233.414 240.12C232.947 239.373 232.714 238.073 232.714 236.22V231H234.894V236.24C234.894 237.44 234.994 238.247 235.194 238.66C235.394 239.073 235.861 239.28 236.594 239.28C237.314 239.28 237.974 239.147 238.574 238.88L238.874 238.76V231ZM251.834 226.84V241H249.674V240.48C248.7 240.973 247.807 241.22 246.994 241.22C245.687 241.22 244.727 240.827 244.114 240.04C243.514 239.253 243.214 237.933 243.214 236.08C243.214 234.227 243.547 232.88 244.214 232.04C244.894 231.2 245.947 230.78 247.374 230.78C247.854 230.78 248.614 230.867 249.654 231.04V226.84H251.834ZM249.314 238.92L249.654 238.78V232.86C248.854 232.727 248.114 232.66 247.434 232.66C246.087 232.66 245.414 233.78 245.414 236.02C245.414 237.247 245.567 238.1 245.874 238.58C246.194 239.047 246.694 239.28 247.374 239.28C248.054 239.28 248.7 239.16 249.314 238.92ZM261.594 239.2L262.154 239.14L262.194 240.76C260.674 241.067 259.328 241.22 258.154 241.22C256.674 241.22 255.608 240.813 254.954 240C254.314 239.187 253.994 237.887 253.994 236.1C253.994 232.553 255.441 230.78 258.334 230.78C261.134 230.78 262.534 232.307 262.534 235.36L262.394 236.92H256.194C256.208 237.747 256.388 238.353 256.734 238.74C257.081 239.127 257.728 239.32 258.674 239.32C259.621 239.32 260.594 239.28 261.594 239.2ZM260.394 235.24C260.394 234.253 260.234 233.567 259.914 233.18C259.608 232.78 259.081 232.58 258.334 232.58C257.588 232.58 257.041 232.787 256.694 233.2C256.361 233.613 256.188 234.293 256.174 235.24H260.394ZM266.811 241H264.631V231H266.791V231.62C267.764 231.06 268.684 230.78 269.551 230.78C270.884 230.78 271.791 231.16 272.271 231.92C272.764 232.667 273.011 233.907 273.011 235.64V241H270.851V235.7C270.851 234.62 270.731 233.853 270.491 233.4C270.264 232.947 269.791 232.72 269.071 232.72C268.391 232.72 267.737 232.853 267.111 233.12L266.811 233.24V241ZM280.929 232.86H278.169V237.26C278.169 238.073 278.229 238.613 278.349 238.88C278.469 239.147 278.775 239.28 279.269 239.28L280.909 239.22L281.009 240.96C280.115 241.133 279.435 241.22 278.969 241.22C277.835 241.22 277.055 240.96 276.629 240.44C276.215 239.92 276.009 238.94 276.009 237.5V232.86H274.729V231H276.009V228.1H278.169V231H280.929V232.86ZM199.676 271V257.3H203.536L206.596 268L209.656 257.3H213.536V271H211.296V259.76H210.996L207.756 270.44H205.436L202.196 259.76H201.896V271H199.676ZM223.411 269.2L223.971 269.14L224.011 270.76C222.491 271.067 221.144 271.22 219.971 271.22C218.491 271.22 217.424 270.813 216.771 270C216.131 269.187 215.811 267.887 215.811 266.1C215.811 262.553 217.257 260.78 220.151 260.78C222.951 260.78 224.351 262.307 224.351 265.36L224.211 266.92H218.011C218.024 267.747 218.204 268.353 218.551 268.74C218.897 269.127 219.544 269.32 220.491 269.32C221.437 269.32 222.411 269.28 223.411 269.2ZM222.211 265.24C222.211 264.253 222.051 263.567 221.731 263.18C221.424 262.78 220.897 262.58 220.151 262.58C219.404 262.58 218.857 262.787 218.511 263.2C218.177 263.613 218.004 264.293 217.991 265.24H222.211ZM228.627 271H226.447V261H228.607V261.62C229.58 261.06 230.5 260.78 231.367 260.78C232.7 260.78 233.607 261.16 234.087 261.92C234.58 262.667 234.827 263.907 234.827 265.64V271H232.667V265.7C232.667 264.62 232.547 263.853 232.307 263.4C232.08 262.947 231.607 262.72 230.887 262.72C230.207 262.72 229.554 262.853 228.927 263.12L228.627 263.24V271ZM242.745 262.86H239.985V267.26C239.985 268.073 240.045 268.613 240.165 268.88C240.285 269.147 240.592 269.28 241.085 269.28L242.725 269.22L242.825 270.96C241.932 271.133 241.252 271.22 240.785 271.22C239.652 271.22 238.872 270.96 238.445 270.44C238.032 269.92 237.825 268.94 237.825 267.5V262.86H236.545V261H237.825V258.1H239.985V261H242.745V262.86ZM245.073 262.08C245.766 261.213 246.913 260.78 248.513 260.78C250.113 260.78 251.253 261.213 251.933 262.08C252.626 262.947 252.973 264.247 252.973 265.98C252.973 267.713 252.64 269.02 251.973 269.9C251.306 270.78 250.153 271.22 248.513 271.22C246.873 271.22 245.72 270.78 245.053 269.9C244.386 269.02 244.053 267.713 244.053 265.98C244.053 264.247 244.393 262.947 245.073 262.08ZM246.713 268.58C247.02 269.113 247.62 269.38 248.513 269.38C249.406 269.38 250.006 269.113 250.313 268.58C250.62 268.047 250.773 267.173 250.773 265.96C250.773 264.747 250.606 263.887 250.273 263.38C249.953 262.873 249.366 262.62 248.513 262.62C247.66 262.62 247.066 262.873 246.733 263.38C246.413 263.887 246.253 264.747 246.253 265.96C246.253 267.173 246.406 268.047 246.713 268.58ZM255.138 271V261H257.298V262.2C258.432 261.467 259.565 260.993 260.698 260.78V262.96C259.552 263.187 258.572 263.48 257.758 263.84L257.318 264.02V271H255.138ZM269.305 263.06C267.732 262.847 266.592 262.74 265.885 262.74C265.178 262.74 264.685 262.827 264.405 263C264.138 263.16 264.005 263.42 264.005 263.78C264.005 264.14 264.152 264.393 264.445 264.54C264.752 264.687 265.458 264.86 266.565 265.06C267.685 265.247 268.478 265.547 268.945 265.96C269.412 266.373 269.645 267.107 269.645 268.16C269.645 269.213 269.305 269.987 268.625 270.48C267.958 270.973 266.978 271.22 265.685 271.22C264.872 271.22 263.845 271.107 262.605 270.88L261.985 270.78L262.065 268.96C263.665 269.173 264.818 269.28 265.525 269.28C266.232 269.28 266.732 269.193 267.025 269.02C267.332 268.847 267.485 268.56 267.485 268.16C267.485 267.76 267.338 267.487 267.045 267.34C266.765 267.18 266.078 267.013 264.985 266.84C263.905 266.653 263.112 266.367 262.605 265.98C262.098 265.593 261.845 264.887 261.845 263.86C261.845 262.833 262.192 262.067 262.885 261.56C263.592 261.053 264.492 260.8 265.585 260.8C266.438 260.8 267.485 260.907 268.725 261.12L269.345 261.24L269.305 263.06ZM273.92 271H271.74V256.84H273.92V261.52C274.907 261.027 275.82 260.78 276.66 260.78C277.993 260.78 278.9 261.16 279.38 261.92C279.873 262.667 280.12 263.907 280.12 265.64V271H277.94V265.7C277.94 264.62 277.827 263.853 277.6 263.4C277.373 262.947 276.893 262.72 276.16 262.72C275.52 262.72 274.88 262.827 274.24 263.04L273.92 263.16V271ZM282.658 271V261H284.838V271H282.658ZM282.658 259.3V257H284.838V259.3H282.658ZM287.482 275.3V261H289.642V261.62C290.562 261.06 291.422 260.78 292.222 260.78C293.542 260.78 294.509 261.187 295.122 262C295.735 262.8 296.042 264.153 296.042 266.06C296.042 267.953 295.689 269.287 294.982 270.06C294.289 270.833 293.149 271.22 291.562 271.22C291.015 271.22 290.382 271.16 289.662 271.04V275.3H287.482ZM291.842 262.72C291.215 262.72 290.589 262.86 289.962 263.14L289.662 263.28V269.18C290.195 269.287 290.782 269.34 291.422 269.34C292.329 269.34 292.955 269.08 293.302 268.56C293.649 268.04 293.822 267.153 293.822 265.9C293.822 263.78 293.162 262.72 291.842 262.72Z" fill="white"/>
<path d="M247 510C284.555 510 315 479.555 315 442C315 404.445 284.555 374 247 374C209.445 374 179 404.445 179 442C179 479.555 209.445 510 247 510Z" fill="#2DB2C4"/>
<path d="M197.145 433.22C195.145 433.22 193.785 432.667 193.065 431.56C192.358 430.453 192.005 428.633 192.005 426.1C192.005 423.567 192.365 421.767 193.085 420.7C193.805 419.62 195.158 419.08 197.145 419.08C198.332 419.08 199.638 419.247 201.065 419.58L200.985 421.38C199.785 421.167 198.585 421.06 197.385 421.06C196.185 421.06 195.372 421.42 194.945 422.14C194.518 422.847 194.305 424.187 194.305 426.16C194.305 428.12 194.512 429.46 194.925 430.18C195.338 430.887 196.145 431.24 197.345 431.24C198.545 431.24 199.758 431.14 200.985 430.94L201.045 432.78C199.672 433.073 198.372 433.22 197.145 433.22ZM203.528 424.08C204.221 423.213 205.368 422.78 206.968 422.78C208.568 422.78 209.708 423.213 210.388 424.08C211.081 424.947 211.428 426.247 211.428 427.98C211.428 429.713 211.095 431.02 210.428 431.9C209.761 432.78 208.608 433.22 206.968 433.22C205.328 433.22 204.175 432.78 203.508 431.9C202.841 431.02 202.508 429.713 202.508 427.98C202.508 426.247 202.848 424.947 203.528 424.08ZM205.168 430.58C205.475 431.113 206.075 431.38 206.968 431.38C207.861 431.38 208.461 431.113 208.768 430.58C209.075 430.047 209.228 429.173 209.228 427.96C209.228 426.747 209.061 425.887 208.728 425.38C208.408 424.873 207.821 424.62 206.968 424.62C206.115 424.62 205.521 424.873 205.188 425.38C204.868 425.887 204.708 426.747 204.708 427.96C204.708 429.173 204.861 430.047 205.168 430.58ZM213.713 433V418.84H215.893V433H213.713ZM218.772 433V418.84H220.952V433H218.772ZM231.111 426.08V430.64C231.124 430.933 231.197 431.153 231.331 431.3C231.477 431.433 231.697 431.52 231.991 431.56L231.931 433.22C230.784 433.22 229.897 432.973 229.271 432.48C228.204 432.973 227.131 433.22 226.051 433.22C224.064 433.22 223.071 432.16 223.071 430.04C223.071 429.027 223.337 428.293 223.871 427.84C224.417 427.387 225.251 427.113 226.371 427.02L228.951 426.8V426.08C228.951 425.547 228.831 425.173 228.591 424.96C228.364 424.747 228.024 424.64 227.571 424.64C226.717 424.64 225.651 424.693 224.371 424.8L223.731 424.84L223.651 423.3C225.104 422.953 226.437 422.78 227.651 422.78C228.877 422.78 229.757 423.047 230.291 423.58C230.837 424.1 231.111 424.933 231.111 426.08ZM226.631 428.56C225.711 428.64 225.251 429.14 225.251 430.06C225.251 430.98 225.657 431.44 226.471 431.44C227.137 431.44 227.844 431.333 228.591 431.12L228.951 431V428.34L226.631 428.56ZM238.507 422.78C239.881 422.78 240.867 423.167 241.467 423.94C242.081 424.7 242.387 426.053 242.387 428C242.387 429.947 242.027 431.307 241.307 432.08C240.587 432.84 239.321 433.22 237.507 433.22C236.881 433.22 235.887 433.16 234.527 433.04L233.847 432.98V418.84H236.007V423.38C236.927 422.98 237.761 422.78 238.507 422.78ZM237.507 431.28C238.574 431.28 239.281 431.033 239.627 430.54C239.987 430.033 240.167 429.18 240.167 427.98C240.167 426.78 240.014 425.94 239.707 425.46C239.414 424.967 238.927 424.72 238.247 424.72C237.607 424.72 236.967 424.82 236.327 425.02L236.007 425.12V431.2C236.741 431.253 237.241 431.28 237.507 431.28ZM245.11 424.08C245.803 423.213 246.95 422.78 248.55 422.78C250.15 422.78 251.29 423.213 251.97 424.08C252.663 424.947 253.01 426.247 253.01 427.98C253.01 429.713 252.677 431.02 252.01 431.9C251.343 432.78 250.19 433.22 248.55 433.22C246.91 433.22 245.757 432.78 245.09 431.9C244.423 431.02 244.09 429.713 244.09 427.98C244.09 426.247 244.43 424.947 245.11 424.08ZM246.75 430.58C247.057 431.113 247.657 431.38 248.55 431.38C249.443 431.38 250.043 431.113 250.35 430.58C250.657 430.047 250.81 429.173 250.81 427.96C250.81 426.747 250.643 425.887 250.31 425.38C249.99 424.873 249.403 424.62 248.55 424.62C247.697 424.62 247.103 424.873 246.77 425.38C246.45 425.887 246.29 426.747 246.29 427.96C246.29 429.173 246.443 430.047 246.75 430.58ZM255.175 433V423H257.335V424.2C258.469 423.467 259.602 422.993 260.735 422.78V424.96C259.589 425.187 258.609 425.48 257.795 425.84L257.355 426.02V433H255.175ZM269.802 426.08V430.64C269.815 430.933 269.889 431.153 270.022 431.3C270.169 431.433 270.389 431.52 270.682 431.56L270.622 433.22C269.475 433.22 268.589 432.973 267.962 432.48C266.895 432.973 265.822 433.22 264.742 433.22C262.755 433.22 261.762 432.16 261.762 430.04C261.762 429.027 262.029 428.293 262.562 427.84C263.109 427.387 263.942 427.113 265.062 427.02L267.642 426.8V426.08C267.642 425.547 267.522 425.173 267.282 424.96C267.055 424.747 266.715 424.64 266.262 424.64C265.409 424.64 264.342 424.693 263.062 424.8L262.422 424.84L262.342 423.3C263.795 422.953 265.129 422.78 266.342 422.78C267.569 422.78 268.449 423.047 268.982 423.58C269.529 424.1 269.802 424.933 269.802 426.08ZM265.322 428.56C264.402 428.64 263.942 429.14 263.942 430.06C263.942 430.98 264.349 431.44 265.162 431.44C265.829 431.44 266.535 431.333 267.282 431.12L267.642 431V428.34L265.322 428.56ZM277.919 424.86H275.159V429.26C275.159 430.073 275.219 430.613 275.339 430.88C275.459 431.147 275.765 431.28 276.259 431.28L277.899 431.22L277.999 432.96C277.105 433.133 276.425 433.22 275.959 433.22C274.825 433.22 274.045 432.96 273.619 432.44C273.205 431.92 272.999 430.94 272.999 429.5V424.86H271.719V423H272.999V420.1H275.159V423H277.919V424.86ZM279.707 433V423H281.887V433H279.707ZM279.707 421.3V419H281.887V421.3H279.707ZM283.591 423H285.871L287.791 431.14H288.431L290.431 423H292.651L290.051 433H286.171L283.591 423ZM301.319 431.2L301.879 431.14L301.919 432.76C300.399 433.067 299.052 433.22 297.879 433.22C296.399 433.22 295.332 432.813 294.679 432C294.039 431.187 293.719 429.887 293.719 428.1C293.719 424.553 295.166 422.78 298.059 422.78C300.859 422.78 302.259 424.307 302.259 427.36L302.119 428.92H295.919C295.932 429.747 296.112 430.353 296.459 430.74C296.806 431.127 297.452 431.32 298.399 431.32C299.346 431.32 300.319 431.28 301.319 431.2ZM300.119 427.24C300.119 426.253 299.959 425.567 299.639 425.18C299.332 424.78 298.806 424.58 298.059 424.58C297.312 424.58 296.766 424.787 296.419 425.2C296.086 425.613 295.912 426.293 295.899 427.24H300.119ZM219.17 463H211.49V449.3H213.71V461.02H219.17V463ZM227.842 461.2L228.402 461.14L228.442 462.76C226.922 463.067 225.576 463.22 224.402 463.22C222.922 463.22 221.856 462.813 221.202 462C220.562 461.187 220.242 459.887 220.242 458.1C220.242 454.553 221.689 452.78 224.582 452.78C227.382 452.78 228.782 454.307 228.782 457.36L228.642 458.92H222.442C222.456 459.747 222.636 460.353 222.982 460.74C223.329 461.127 223.976 461.32 224.922 461.32C225.869 461.32 226.842 461.28 227.842 461.2ZM226.642 457.24C226.642 456.253 226.482 455.567 226.162 455.18C225.856 454.78 225.329 454.58 224.582 454.58C223.836 454.58 223.289 454.787 222.942 455.2C222.609 455.613 222.436 456.293 222.422 457.24H226.642ZM238.279 456.08V460.64C238.292 460.933 238.365 461.153 238.499 461.3C238.645 461.433 238.865 461.52 239.159 461.56L239.099 463.22C237.952 463.22 237.065 462.973 236.439 462.48C235.372 462.973 234.299 463.22 233.219 463.22C231.232 463.22 230.239 462.16 230.239 460.04C230.239 459.027 230.505 458.293 231.039 457.84C231.585 457.387 232.419 457.113 233.539 457.02L236.119 456.8V456.08C236.119 455.547 235.999 455.173 235.759 454.96C235.532 454.747 235.192 454.64 234.739 454.64C233.885 454.64 232.819 454.693 231.539 454.8L230.899 454.84L230.819 453.3C232.272 452.953 233.605 452.78 234.819 452.78C236.045 452.78 236.925 453.047 237.459 453.58C238.005 454.1 238.279 454.933 238.279 456.08ZM233.799 458.56C232.879 458.64 232.419 459.14 232.419 460.06C232.419 460.98 232.825 461.44 233.639 461.44C234.305 461.44 235.012 461.333 235.759 461.12L236.119 461V458.34L233.799 458.56ZM241.015 463V453H243.175V454.2C244.309 453.467 245.442 452.993 246.575 452.78V454.96C245.429 455.187 244.449 455.48 243.635 455.84L243.195 456.02V463H241.015ZM250.422 463H248.242V453H250.402V453.62C251.375 453.06 252.295 452.78 253.162 452.78C254.495 452.78 255.402 453.16 255.882 453.92C256.375 454.667 256.622 455.907 256.622 457.64V463H254.462V457.7C254.462 456.62 254.342 455.853 254.102 455.4C253.875 454.947 253.402 454.72 252.682 454.72C252.002 454.72 251.349 454.853 250.722 455.12L250.422 455.24V463ZM259.16 463V453H261.34V463H259.16ZM259.16 451.3V449H261.34V451.3H259.16ZM266.164 463H263.984V453H266.144V453.62C267.117 453.06 268.037 452.78 268.904 452.78C270.237 452.78 271.144 453.16 271.624 453.92C272.117 454.667 272.364 455.907 272.364 457.64V463H270.204V457.7C270.204 456.62 270.084 455.853 269.844 455.4C269.617 454.947 269.144 454.72 268.424 454.72C267.744 454.72 267.091 454.853 266.464 455.12L266.164 455.24V463ZM283.642 464.36C283.642 466.547 282.062 467.64 278.902 467.64C277.382 467.64 276.255 467.433 275.522 467.02C274.789 466.607 274.422 465.853 274.422 464.76C274.422 464.267 274.542 463.84 274.782 463.48C275.022 463.133 275.409 462.753 275.942 462.34C275.502 462.047 275.282 461.56 275.282 460.88C275.282 460.613 275.462 460.18 275.822 459.58L276.002 459.28C275.042 458.707 274.562 457.707 274.562 456.28C274.562 455.08 274.922 454.2 275.642 453.64C276.362 453.08 277.335 452.8 278.562 452.8C279.149 452.8 279.729 452.867 280.302 453L280.602 453.06L283.702 452.98V454.74L282.042 454.64C282.402 455.107 282.582 455.653 282.582 456.28C282.582 457.587 282.249 458.493 281.582 459C280.929 459.493 279.902 459.74 278.502 459.74C278.155 459.74 277.862 459.713 277.622 459.66C277.435 460.113 277.342 460.467 277.342 460.72C277.342 460.96 277.462 461.127 277.702 461.22C277.955 461.313 278.555 461.367 279.502 461.38C281.089 461.393 282.175 461.607 282.762 462.02C283.349 462.433 283.642 463.213 283.642 464.36ZM276.562 464.56C276.562 465.027 276.749 465.36 277.122 465.56C277.495 465.76 278.135 465.86 279.042 465.86C280.655 465.86 281.462 465.4 281.462 464.48C281.462 463.96 281.315 463.627 281.022 463.48C280.742 463.347 280.175 463.273 279.322 463.26L277.362 463.14C277.069 463.38 276.862 463.6 276.742 463.8C276.622 464.013 276.562 464.267 276.562 464.56ZM276.722 456.28C276.722 456.893 276.869 457.347 277.162 457.64C277.455 457.92 277.929 458.06 278.582 458.06C279.235 458.06 279.702 457.92 279.982 457.64C280.275 457.347 280.422 456.893 280.422 456.28C280.422 455.667 280.275 455.22 279.982 454.94C279.689 454.647 279.215 454.5 278.562 454.5C277.335 454.5 276.722 455.093 276.722 456.28Z" fill="white"/>
<path d="M444 579C481.555 579 512 548.555 512 511C512 473.445 481.555 443 444 443C406.445 443 376 473.445 376 511C376 548.555 406.445 579 444 579Z" fill="#2DB2C4"/>
<path d="M404.653 503.74H401.853V508H399.633V494.3H404.653C407.759 494.3 409.313 495.833 409.313 498.9C409.313 500.473 408.919 501.673 408.133 502.5C407.359 503.327 406.199 503.74 404.653 503.74ZM401.853 501.82H404.633C406.233 501.82 407.033 500.847 407.033 498.9C407.033 497.967 406.839 497.287 406.453 496.86C406.066 496.433 405.459 496.22 404.633 496.22H401.853V501.82ZM411.189 508V498H413.349V499.2C414.482 498.467 415.616 497.993 416.749 497.78V499.96C415.602 500.187 414.622 500.48 413.809 500.84L413.369 501.02V508H411.189ZM418.878 499.08C419.571 498.213 420.718 497.78 422.318 497.78C423.918 497.78 425.058 498.213 425.738 499.08C426.431 499.947 426.778 501.247 426.778 502.98C426.778 504.713 426.444 506.02 425.778 506.9C425.111 507.78 423.958 508.22 422.318 508.22C420.678 508.22 419.524 507.78 418.858 506.9C418.191 506.02 417.858 504.713 417.858 502.98C417.858 501.247 418.198 499.947 418.878 499.08ZM420.518 505.58C420.824 506.113 421.424 506.38 422.318 506.38C423.211 506.38 423.811 506.113 424.118 505.58C424.424 505.047 424.578 504.173 424.578 502.96C424.578 501.747 424.411 500.887 424.078 500.38C423.758 499.873 423.171 499.62 422.318 499.62C421.464 499.62 420.871 499.873 420.538 500.38C420.218 500.887 420.058 501.747 420.058 502.96C420.058 504.173 420.211 505.047 420.518 505.58ZM437.103 493.84V508H434.943V507.48C433.97 507.973 433.076 508.22 432.263 508.22C430.956 508.22 429.996 507.827 429.383 507.04C428.783 506.253 428.483 504.933 428.483 503.08C428.483 501.227 428.816 499.88 429.483 499.04C430.163 498.2 431.216 497.78 432.643 497.78C433.123 497.78 433.883 497.867 434.923 498.04V493.84H437.103ZM434.583 505.92L434.923 505.78V499.86C434.123 499.727 433.383 499.66 432.703 499.66C431.356 499.66 430.683 500.78 430.683 503.02C430.683 504.247 430.836 505.1 431.143 505.58C431.463 506.047 431.963 506.28 432.643 506.28C433.323 506.28 433.97 506.16 434.583 505.92ZM445.804 498H447.964V508H445.804V507.38C444.83 507.94 443.93 508.22 443.104 508.22C441.73 508.22 440.81 507.853 440.344 507.12C439.877 506.373 439.644 505.073 439.644 503.22V498H441.824V503.24C441.824 504.44 441.924 505.247 442.124 505.66C442.324 506.073 442.79 506.28 443.524 506.28C444.244 506.28 444.904 506.147 445.504 505.88L445.804 505.76V498ZM454.343 497.78C455.05 497.78 455.883 497.873 456.843 498.06L457.343 498.16L457.263 499.88C456.21 499.773 455.43 499.72 454.923 499.72C453.91 499.72 453.23 499.947 452.883 500.4C452.537 500.853 452.363 501.707 452.363 502.96C452.363 504.213 452.53 505.08 452.863 505.56C453.197 506.04 453.89 506.28 454.943 506.28L457.283 506.12L457.343 507.86C455.997 508.1 454.983 508.22 454.303 508.22C452.783 508.22 451.71 507.813 451.083 507C450.47 506.173 450.163 504.827 450.163 502.96C450.163 501.093 450.49 499.767 451.143 498.98C451.797 498.18 452.863 497.78 454.343 497.78ZM464.831 499.86H462.071V504.26C462.071 505.073 462.131 505.613 462.251 505.88C462.371 506.147 462.678 506.28 463.171 506.28L464.811 506.22L464.911 507.96C464.018 508.133 463.338 508.22 462.871 508.22C461.738 508.22 460.958 507.96 460.531 507.44C460.118 506.92 459.911 505.94 459.911 504.5V499.86H458.631V498H459.911V495.1H462.071V498H464.831V499.86ZM466.619 508V498H468.799V508H466.619ZM466.619 496.3V494H468.799V496.3H466.619ZM470.503 498H472.783L474.703 506.14H475.343L477.343 498H479.563L476.963 508H473.083L470.503 498ZM488.231 506.2L488.791 506.14L488.831 507.76C487.311 508.067 485.964 508.22 484.791 508.22C483.311 508.22 482.244 507.813 481.591 507C480.951 506.187 480.631 504.887 480.631 503.1C480.631 499.553 482.078 497.78 484.971 497.78C487.771 497.78 489.171 499.307 489.171 502.36L489.031 503.92H482.831C482.844 504.747 483.024 505.353 483.371 505.74C483.718 506.127 484.364 506.32 485.311 506.32C486.258 506.32 487.231 506.28 488.231 506.2ZM487.031 502.24C487.031 501.253 486.871 500.567 486.551 500.18C486.244 499.78 485.718 499.58 484.971 499.58C484.224 499.58 483.678 499.787 483.331 500.2C482.998 500.613 482.824 501.293 482.811 502.24H487.031ZM417.999 535.1C418.452 535.887 419.319 536.28 420.599 536.28C421.879 536.28 422.739 535.893 423.179 535.12C423.632 534.347 423.859 533.053 423.859 531.24C423.859 529.413 423.626 528.087 423.159 527.26C422.706 526.433 421.852 526.02 420.599 526.02C419.346 526.02 418.486 526.433 418.019 527.26C417.552 528.087 417.319 529.407 417.319 531.22C417.319 533.02 417.546 534.313 417.999 535.1ZM424.919 536.54C424.106 537.66 422.666 538.22 420.599 538.22C418.532 538.22 417.086 537.66 416.259 536.54C415.432 535.407 415.019 533.633 415.019 531.22C415.019 528.807 415.432 527.013 416.259 525.84C417.099 524.667 418.546 524.08 420.599 524.08C422.652 524.08 424.092 524.667 424.919 525.84C425.746 527 426.159 528.793 426.159 531.22C426.159 533.647 425.746 535.42 424.919 536.54ZM434.544 528H436.704V538H434.544V537.38C433.571 537.94 432.671 538.22 431.844 538.22C430.471 538.22 429.551 537.853 429.084 537.12C428.617 536.373 428.384 535.073 428.384 533.22V528H430.564V533.24C430.564 534.44 430.664 535.247 430.864 535.66C431.064 536.073 431.531 536.28 432.264 536.28C432.984 536.28 433.644 536.147 434.244 535.88L434.544 535.76V528ZM444.723 529.86H441.963V534.26C441.963 535.073 442.023 535.613 442.143 535.88C442.263 536.147 442.57 536.28 443.063 536.28L444.703 536.22L444.803 537.96C443.91 538.133 443.23 538.22 442.763 538.22C441.63 538.22 440.85 537.96 440.423 537.44C440.01 536.92 439.803 535.94 439.803 534.5V529.86H438.523V528H439.803V525.1H441.963V528H444.723V529.86ZM446.511 542.3V528H448.671V528.62C449.591 528.06 450.451 527.78 451.251 527.78C452.571 527.78 453.538 528.187 454.151 529C454.765 529.8 455.071 531.153 455.071 533.06C455.071 534.953 454.718 536.287 454.011 537.06C453.318 537.833 452.178 538.22 450.591 538.22C450.045 538.22 449.411 538.16 448.691 538.04V542.3H446.511ZM450.871 529.72C450.245 529.72 449.618 529.86 448.991 530.14L448.691 530.28V536.18C449.225 536.287 449.811 536.34 450.451 536.34C451.358 536.34 451.985 536.08 452.331 535.56C452.678 535.04 452.851 534.153 452.851 532.9C452.851 530.78 452.191 529.72 450.871 529.72ZM463.314 528H465.474V538H463.314V537.38C462.34 537.94 461.44 538.22 460.614 538.22C459.24 538.22 458.32 537.853 457.854 537.12C457.387 536.373 457.154 535.073 457.154 533.22V528H459.334V533.24C459.334 534.44 459.434 535.247 459.634 535.66C459.834 536.073 460.3 536.28 461.034 536.28C461.754 536.28 462.414 536.147 463.014 535.88L463.314 535.76V528ZM473.493 529.86H470.733V534.26C470.733 535.073 470.793 535.613 470.913 535.88C471.033 536.147 471.34 536.28 471.833 536.28L473.473 536.22L473.573 537.96C472.68 538.133 472 538.22 471.533 538.22C470.4 538.22 469.62 537.96 469.193 537.44C468.78 536.92 468.573 535.94 468.573 534.5V529.86H467.293V528H468.573V525.1H470.733V528H473.493V529.86Z" fill="white"/>
<path d="M632 498C669.555 498 700 467.555 700 430C700 392.445 669.555 362 632 362C594.445 362 564 392.445 564 430C564 467.555 594.445 498 632 498Z" fill="#2DB2C4"/>
<path d="M603.704 397.02C602.01 397.02 601.164 397.613 601.164 398.8C601.164 399.413 601.364 399.853 601.764 400.12C602.164 400.373 603.044 400.693 604.404 401.08C605.777 401.453 606.744 401.907 607.304 402.44C607.864 402.96 608.144 403.787 608.144 404.92C608.144 406.36 607.73 407.44 606.904 408.16C606.09 408.867 604.977 409.22 603.564 409.22C602.43 409.22 601.177 409.087 599.804 408.82L599.084 408.68L599.304 406.9C601.104 407.14 602.477 407.26 603.424 407.26C605.077 407.26 605.904 406.527 605.904 405.06C605.904 404.487 605.717 404.067 605.344 403.8C604.97 403.52 604.13 403.22 602.824 402.9C601.517 402.567 600.544 402.113 599.904 401.54C599.264 400.967 598.944 400.06 598.944 398.82C598.944 397.58 599.344 396.647 600.144 396.02C600.957 395.38 602.077 395.06 603.504 395.06C604.53 395.06 605.744 395.18 607.144 395.42L607.844 395.54L607.664 397.34C605.797 397.127 604.477 397.02 603.704 397.02ZM615.526 400.86H612.766V405.26C612.766 406.073 612.826 406.613 612.946 406.88C613.066 407.147 613.373 407.28 613.866 407.28L615.506 407.22L615.606 408.96C614.713 409.133 614.033 409.22 613.566 409.22C612.433 409.22 611.653 408.96 611.226 408.44C610.813 407.92 610.606 406.94 610.606 405.5V400.86H609.326V399H610.606V396.1H612.766V399H615.526V400.86ZM623.374 399H625.534V409H623.374V408.38C622.401 408.94 621.501 409.22 620.674 409.22C619.301 409.22 618.381 408.853 617.914 408.12C617.447 407.373 617.214 406.073 617.214 404.22V399H619.394V404.24C619.394 405.44 619.494 406.247 619.694 406.66C619.894 407.073 620.361 407.28 621.094 407.28C621.814 407.28 622.474 407.147 623.074 406.88L623.374 406.76V399ZM636.334 394.84V409H634.174V408.48C633.2 408.973 632.307 409.22 631.494 409.22C630.187 409.22 629.227 408.827 628.614 408.04C628.014 407.253 627.714 405.933 627.714 404.08C627.714 402.227 628.047 400.88 628.714 400.04C629.394 399.2 630.447 398.78 631.874 398.78C632.354 398.78 633.114 398.867 634.154 399.04V394.84H636.334ZM633.814 406.92L634.154 406.78V400.86C633.354 400.727 632.614 400.66 631.934 400.66C630.587 400.66 629.914 401.78 629.914 404.02C629.914 405.247 630.067 406.1 630.374 406.58C630.694 407.047 631.194 407.28 631.874 407.28C632.554 407.28 633.2 407.16 633.814 406.92ZM646.094 407.2L646.654 407.14L646.694 408.76C645.174 409.067 643.828 409.22 642.654 409.22C641.174 409.22 640.108 408.813 639.454 408C638.814 407.187 638.494 405.887 638.494 404.1C638.494 400.553 639.941 398.78 642.834 398.78C645.634 398.78 647.034 400.307 647.034 403.36L646.894 404.92H640.694C640.708 405.747 640.888 406.353 641.234 406.74C641.581 407.127 642.228 407.32 643.174 407.32C644.121 407.32 645.094 407.28 646.094 407.2ZM644.894 403.24C644.894 402.253 644.734 401.567 644.414 401.18C644.108 400.78 643.581 400.58 642.834 400.58C642.088 400.58 641.541 400.787 641.194 401.2C640.861 401.613 640.688 402.293 640.674 403.24H644.894ZM651.311 409H649.131V399H651.291V399.62C652.264 399.06 653.184 398.78 654.051 398.78C655.384 398.78 656.291 399.16 656.771 399.92C657.264 400.667 657.511 401.907 657.511 403.64V409H655.351V403.7C655.351 402.62 655.231 401.853 654.991 401.4C654.764 400.947 654.291 400.72 653.571 400.72C652.891 400.72 652.237 400.853 651.611 401.12L651.311 401.24V409ZM665.429 400.86H662.669V405.26C662.669 406.073 662.729 406.613 662.849 406.88C662.969 407.147 663.275 407.28 663.769 407.28L665.409 407.22L665.509 408.96C664.615 409.133 663.935 409.22 663.469 409.22C662.335 409.22 661.555 408.96 661.129 408.44C660.715 407.92 660.509 406.94 660.509 405.5V400.86H659.229V399H660.509V396.1H662.669V399H665.429V400.86ZM588.161 434.74H585.361V439H583.141V425.3H588.161C591.267 425.3 592.821 426.833 592.821 429.9C592.821 431.473 592.427 432.673 591.641 433.5C590.867 434.327 589.707 434.74 588.161 434.74ZM585.361 432.82H588.141C589.741 432.82 590.541 431.847 590.541 429.9C590.541 428.967 590.347 428.287 589.961 427.86C589.574 427.433 588.967 427.22 588.141 427.22H585.361V432.82ZM594.697 439V429H596.857V430.2C597.99 429.467 599.124 428.993 600.257 428.78V430.96C599.11 431.187 598.13 431.48 597.317 431.84L596.877 432.02V439H594.697ZM608.965 437.2L609.525 437.14L609.565 438.76C608.045 439.067 606.699 439.22 605.525 439.22C604.045 439.22 602.979 438.813 602.325 438C601.685 437.187 601.365 435.887 601.365 434.1C601.365 430.553 602.812 428.78 605.705 428.78C608.505 428.78 609.905 430.307 609.905 433.36L609.765 434.92H603.565C603.579 435.747 603.759 436.353 604.105 436.74C604.452 437.127 605.099 437.32 606.045 437.32C606.992 437.32 607.965 437.28 608.965 437.2ZM607.765 433.24C607.765 432.253 607.605 431.567 607.285 431.18C606.979 430.78 606.452 430.58 605.705 430.58C604.959 430.58 604.412 430.787 604.065 431.2C603.732 431.613 603.559 432.293 603.545 433.24H607.765ZM612.002 443.3V429H614.162V429.62C615.082 429.06 615.942 428.78 616.742 428.78C618.062 428.78 619.028 429.187 619.642 430C620.255 430.8 620.562 432.153 620.562 434.06C620.562 435.953 620.208 437.287 619.502 438.06C618.808 438.833 617.668 439.22 616.082 439.22C615.535 439.22 614.902 439.16 614.182 439.04V443.3H612.002ZM616.362 430.72C615.735 430.72 615.108 430.86 614.482 431.14L614.182 431.28V437.18C614.715 437.287 615.302 437.34 615.942 437.34C616.848 437.34 617.475 437.08 617.822 436.56C618.168 436.04 618.342 435.153 618.342 433.9C618.342 431.78 617.682 430.72 616.362 430.72ZM630.144 432.08V436.64C630.157 436.933 630.23 437.153 630.364 437.3C630.51 437.433 630.73 437.52 631.024 437.56L630.964 439.22C629.817 439.22 628.93 438.973 628.304 438.48C627.237 438.973 626.164 439.22 625.084 439.22C623.097 439.22 622.104 438.16 622.104 436.04C622.104 435.027 622.37 434.293 622.904 433.84C623.45 433.387 624.284 433.113 625.404 433.02L627.984 432.8V432.08C627.984 431.547 627.864 431.173 627.624 430.96C627.397 430.747 627.057 430.64 626.604 430.64C625.75 430.64 624.684 430.693 623.404 430.8L622.764 430.84L622.684 429.3C624.137 428.953 625.47 428.78 626.684 428.78C627.91 428.78 628.79 429.047 629.324 429.58C629.87 430.1 630.144 430.933 630.144 432.08ZM625.664 434.56C624.744 434.64 624.284 435.14 624.284 436.06C624.284 436.98 624.69 437.44 625.504 437.44C626.17 437.44 626.877 437.333 627.624 437.12L627.984 437V434.34L625.664 434.56ZM632.881 439V429H635.041V430.2C636.174 429.467 637.307 428.993 638.441 428.78V430.96C637.294 431.187 636.314 431.48 635.501 431.84L635.061 432.02V439H632.881ZM647.507 432.08V436.64C647.52 436.933 647.594 437.153 647.727 437.3C647.874 437.433 648.094 437.52 648.387 437.56L648.327 439.22C647.18 439.22 646.294 438.973 645.667 438.48C644.6 438.973 643.527 439.22 642.447 439.22C640.46 439.22 639.467 438.16 639.467 436.04C639.467 435.027 639.734 434.293 640.267 433.84C640.814 433.387 641.647 433.113 642.767 433.02L645.347 432.8V432.08C645.347 431.547 645.227 431.173 644.987 430.96C644.76 430.747 644.42 430.64 643.967 430.64C643.114 430.64 642.047 430.693 640.767 430.8L640.127 430.84L640.047 429.3C641.5 428.953 642.834 428.78 644.047 428.78C645.274 428.78 646.154 429.047 646.687 429.58C647.234 430.1 647.507 430.933 647.507 432.08ZM643.027 434.56C642.107 434.64 641.647 435.14 641.647 436.06C641.647 436.98 642.054 437.44 642.867 437.44C643.534 437.44 644.24 437.333 644.987 437.12L645.347 437V434.34L643.027 434.56ZM655.624 430.86H652.864V435.26C652.864 436.073 652.924 436.613 653.044 436.88C653.164 437.147 653.47 437.28 653.964 437.28L655.604 437.22L655.704 438.96C654.81 439.133 654.13 439.22 653.664 439.22C652.53 439.22 651.75 438.96 651.324 438.44C650.91 437.92 650.704 436.94 650.704 435.5V430.86H649.424V429H650.704V426.1H652.864V429H655.624V430.86ZM657.412 439V429H659.592V439H657.412ZM657.412 427.3V425H659.592V427.3H657.412ZM662.776 430.08C663.469 429.213 664.616 428.78 666.216 428.78C667.816 428.78 668.956 429.213 669.636 430.08C670.329 430.947 670.676 432.247 670.676 433.98C670.676 435.713 670.343 437.02 669.676 437.9C669.009 438.78 667.856 439.22 666.216 439.22C664.576 439.22 663.423 438.78 662.756 437.9C662.089 437.02 661.756 435.713 661.756 433.98C661.756 432.247 662.096 430.947 662.776 430.08ZM664.416 436.58C664.723 437.113 665.323 437.38 666.216 437.38C667.109 437.38 667.709 437.113 668.016 436.58C668.323 436.047 668.476 435.173 668.476 433.96C668.476 432.747 668.309 431.887 667.976 431.38C667.656 430.873 667.069 430.62 666.216 430.62C665.363 430.62 664.769 430.873 664.436 431.38C664.116 431.887 663.956 432.747 663.956 433.96C663.956 435.173 664.109 436.047 664.416 436.58ZM675.021 439H672.841V429H675.001V429.62C675.975 429.06 676.895 428.78 677.761 428.78C679.095 428.78 680.001 429.16 680.481 429.92C680.975 430.667 681.221 431.907 681.221 433.64V439H679.061V433.7C679.061 432.62 678.941 431.853 678.701 431.4C678.475 430.947 678.001 430.72 677.281 430.72C676.601 430.72 675.948 430.853 675.321 431.12L675.021 431.24V439ZM619.635 464.74H616.835V469H614.615V455.3H619.635C622.742 455.3 624.295 456.833 624.295 459.9C624.295 461.473 623.902 462.673 623.115 463.5C622.342 464.327 621.182 464.74 619.635 464.74ZM616.835 462.82H619.615C621.215 462.82 622.015 461.847 622.015 459.9C622.015 458.967 621.822 458.287 621.435 457.86C621.048 457.433 620.442 457.22 619.615 457.22H616.835V462.82ZM626.292 469V454.84H628.472V469H626.292ZM638.63 462.08V466.64C638.643 466.933 638.717 467.153 638.85 467.3C638.997 467.433 639.217 467.52 639.51 467.56L639.45 469.22C638.303 469.22 637.417 468.973 636.79 468.48C635.723 468.973 634.65 469.22 633.57 469.22C631.583 469.22 630.59 468.16 630.59 466.04C630.59 465.027 630.857 464.293 631.39 463.84C631.937 463.387 632.77 463.113 633.89 463.02L636.47 462.8V462.08C636.47 461.547 636.35 461.173 636.11 460.96C635.883 460.747 635.543 460.64 635.09 460.64C634.237 460.64 633.17 460.693 631.89 460.8L631.25 460.84L631.17 459.3C632.623 458.953 633.957 458.78 635.17 458.78C636.397 458.78 637.277 459.047 637.81 459.58C638.357 460.1 638.63 460.933 638.63 462.08ZM634.15 464.56C633.23 464.64 632.77 465.14 632.77 466.06C632.77 466.98 633.177 467.44 633.99 467.44C634.657 467.44 635.363 467.333 636.11 467.12L636.47 467V464.34L634.15 464.56ZM643.547 469H641.367V459H643.527V459.62C644.5 459.06 645.42 458.78 646.287 458.78C647.62 458.78 648.527 459.16 649.007 459.92C649.5 460.667 649.747 461.907 649.747 463.64V469H647.587V463.7C647.587 462.62 647.467 461.853 647.227 461.4C647 460.947 646.527 460.72 645.807 460.72C645.127 460.72 644.474 460.853 643.847 461.12L643.547 461.24V469Z" fill="white"/>
<path d="M624 299C661.555 299 692 268.555 692 231C692 193.445 661.555 163 624 163C586.445 163 556 193.445 556 231C556 268.555 586.445 299 624 299Z" fill="#2DB2C4"/>
<path d="M578.91 205V191.3H581.13V205H578.91ZM586.201 205H584.021V195H586.181V195.62C587.155 195.06 588.075 194.78 588.941 194.78C590.275 194.78 591.181 195.16 591.661 195.92C592.155 196.667 592.401 197.907 592.401 199.64V205H590.241V199.7C590.241 198.62 590.121 197.853 589.881 197.4C589.655 196.947 589.181 196.72 588.461 196.72C587.781 196.72 587.128 196.853 586.501 197.12L586.201 197.24V205ZM600.319 196.86H597.559V201.26C597.559 202.073 597.619 202.613 597.739 202.88C597.859 203.147 598.166 203.28 598.659 203.28L600.299 203.22L600.399 204.96C599.506 205.133 598.826 205.22 598.359 205.22C597.226 205.22 596.446 204.96 596.019 204.44C595.606 203.92 595.399 202.94 595.399 201.5V196.86H594.119V195H595.399V192.1H597.559V195H600.319V196.86ZM609.227 203.2L609.787 203.14L609.827 204.76C608.307 205.067 606.96 205.22 605.787 205.22C604.307 205.22 603.24 204.813 602.587 204C601.947 203.187 601.627 201.887 601.627 200.1C601.627 196.553 603.074 194.78 605.967 194.78C608.767 194.78 610.167 196.307 610.167 199.36L610.027 200.92H603.827C603.84 201.747 604.02 202.353 604.367 202.74C604.714 203.127 605.36 203.32 606.307 203.32C607.254 203.32 608.227 203.28 609.227 203.2ZM608.027 199.24C608.027 198.253 607.867 197.567 607.547 197.18C607.24 196.78 606.714 196.58 605.967 196.58C605.22 196.58 604.674 196.787 604.327 197.2C603.994 197.613 603.82 198.293 603.807 199.24H608.027ZM612.263 205V195H614.423V196.2C615.557 195.467 616.69 194.993 617.823 194.78V196.96C616.677 197.187 615.697 197.48 614.883 197.84L614.443 198.02V205H612.263ZM626.89 198.08V202.64C626.903 202.933 626.977 203.153 627.11 203.3C627.257 203.433 627.477 203.52 627.77 203.56L627.71 205.22C626.563 205.22 625.677 204.973 625.05 204.48C623.983 204.973 622.91 205.22 621.83 205.22C619.843 205.22 618.85 204.16 618.85 202.04C618.85 201.027 619.117 200.293 619.65 199.84C620.197 199.387 621.03 199.113 622.15 199.02L624.73 198.8V198.08C624.73 197.547 624.61 197.173 624.37 196.96C624.143 196.747 623.803 196.64 623.35 196.64C622.497 196.64 621.43 196.693 620.15 196.8L619.51 196.84L619.43 195.3C620.883 194.953 622.217 194.78 623.43 194.78C624.657 194.78 625.537 195.047 626.07 195.58C626.617 196.1 626.89 196.933 626.89 198.08ZM622.41 200.56C621.49 200.64 621.03 201.14 621.03 202.06C621.03 202.98 621.437 203.44 622.25 203.44C622.917 203.44 623.623 203.333 624.37 203.12L624.73 203V200.34L622.41 200.56ZM633.367 194.78C634.073 194.78 634.907 194.873 635.867 195.06L636.367 195.16L636.287 196.88C635.233 196.773 634.453 196.72 633.947 196.72C632.933 196.72 632.253 196.947 631.907 197.4C631.56 197.853 631.387 198.707 631.387 199.96C631.387 201.213 631.553 202.08 631.887 202.56C632.22 203.04 632.913 203.28 633.967 203.28L636.307 203.12L636.367 204.86C635.02 205.1 634.007 205.22 633.327 205.22C631.807 205.22 630.733 204.813 630.107 204C629.493 203.173 629.187 201.827 629.187 199.96C629.187 198.093 629.513 196.767 630.167 195.98C630.82 195.18 631.887 194.78 633.367 194.78ZM643.854 196.86H641.094V201.26C641.094 202.073 641.154 202.613 641.274 202.88C641.394 203.147 641.701 203.28 642.194 203.28L643.834 203.22L643.934 204.96C643.041 205.133 642.361 205.22 641.894 205.22C640.761 205.22 639.981 204.96 639.554 204.44C639.141 203.92 638.934 202.94 638.934 201.5V196.86H637.654V195H638.934V192.1H641.094V195H643.854V196.86ZM645.642 205V195H647.822V205H645.642ZM645.642 193.3V191H647.822V193.3H645.642ZM651.006 196.08C651.7 195.213 652.846 194.78 654.446 194.78C656.046 194.78 657.186 195.213 657.866 196.08C658.56 196.947 658.906 198.247 658.906 199.98C658.906 201.713 658.573 203.02 657.906 203.9C657.24 204.78 656.086 205.22 654.446 205.22C652.806 205.22 651.653 204.78 650.986 203.9C650.32 203.02 649.986 201.713 649.986 199.98C649.986 198.247 650.326 196.947 651.006 196.08ZM652.646 202.58C652.953 203.113 653.553 203.38 654.446 203.38C655.34 203.38 655.94 203.113 656.246 202.58C656.553 202.047 656.706 201.173 656.706 199.96C656.706 198.747 656.54 197.887 656.206 197.38C655.886 196.873 655.3 196.62 654.446 196.62C653.593 196.62 653 196.873 652.666 197.38C652.346 197.887 652.186 198.747 652.186 199.96C652.186 201.173 652.34 202.047 652.646 202.58ZM663.252 205H661.072V195H663.232V195.62C664.205 195.06 665.125 194.78 665.992 194.78C667.325 194.78 668.232 195.16 668.712 195.92C669.205 196.667 669.452 197.907 669.452 199.64V205H667.292V199.7C667.292 198.62 667.172 197.853 666.932 197.4C666.705 196.947 666.232 196.72 665.512 196.72C664.832 196.72 664.179 196.853 663.552 197.12L663.252 197.24V205ZM569.755 225H571.895L573.475 233.14H573.875L575.775 225.2H578.015L579.915 233.14H580.315L581.875 225H584.035L581.915 235H578.455L576.895 228.14L575.335 235H571.875L569.755 225ZM585.886 235V225H588.066V235H585.886ZM585.886 223.3V221H588.066V223.3H585.886ZM596.091 226.86H593.331V231.26C593.331 232.073 593.391 232.613 593.511 232.88C593.631 233.147 593.937 233.28 594.431 233.28L596.071 233.22L596.171 234.96C595.277 235.133 594.597 235.22 594.131 235.22C592.997 235.22 592.217 234.96 591.791 234.44C591.377 233.92 591.171 232.94 591.171 231.5V226.86H589.891V225H591.171V222.1H593.331V225H596.091V226.86ZM600.059 235H597.879V220.84H600.059V225.52C601.045 225.027 601.959 224.78 602.799 224.78C604.132 224.78 605.039 225.16 605.519 225.92C606.012 226.667 606.259 227.907 606.259 229.64V235H604.079V229.7C604.079 228.62 603.965 227.853 603.739 227.4C603.512 226.947 603.032 226.72 602.299 226.72C601.659 226.72 601.019 226.827 600.379 227.04L600.059 227.16V235ZM613.451 235V221.3H617.311L620.371 232L623.431 221.3H627.311V235H625.071V223.76H624.771L621.531 234.44H619.211L615.971 223.76H615.671V235H613.451ZM629.263 235L632.643 221.3H637.063L640.463 235H638.223L637.483 232.06H632.223L631.483 235H629.263ZM634.363 223.16L632.663 230.1H637.043L635.363 223.16H634.363ZM641.236 235L644.616 221.3H649.036L652.436 235H650.196L649.456 232.06H644.196L643.456 235H641.236ZM646.336 223.16L644.636 230.1H649.016L647.336 223.16H646.336ZM654.389 235V221.3H658.269L662.429 233.04H662.729V221.3H664.949V235H661.149L656.889 223.24H656.609V235H654.389ZM673.68 229.76V227.8H677.58V234.76C677.22 234.853 676.486 234.953 675.38 235.06C674.286 235.167 673.493 235.22 673 235.22C670.92 235.22 669.486 234.647 668.7 233.5C667.913 232.353 667.52 230.56 667.52 228.12C667.52 225.667 667.92 223.88 668.72 222.76C669.533 221.64 670.933 221.08 672.92 221.08C674.093 221.08 675.413 221.213 676.88 221.48L677.58 221.62L677.5 223.38C675.886 223.167 674.44 223.06 673.16 223.06C671.88 223.06 671 223.42 670.52 224.14C670.053 224.86 669.82 226.193 669.82 228.14C669.82 230.087 670.04 231.433 670.48 232.18C670.933 232.913 671.84 233.28 673.2 233.28C674.173 233.28 674.9 233.22 675.38 233.1V229.76H673.68ZM586.19 263.2L586.75 263.14L586.79 264.76C585.27 265.067 583.923 265.22 582.75 265.22C581.27 265.22 580.203 264.813 579.55 264C578.91 263.187 578.59 261.887 578.59 260.1C578.59 256.553 580.037 254.78 582.93 254.78C585.73 254.78 587.13 256.307 587.13 259.36L586.99 260.92H580.79C580.803 261.747 580.983 262.353 581.33 262.74C581.677 263.127 582.323 263.32 583.27 263.32C584.217 263.32 585.19 263.28 586.19 263.2ZM584.99 259.24C584.99 258.253 584.83 257.567 584.51 257.18C584.203 256.78 583.677 256.58 582.93 256.58C582.183 256.58 581.637 256.787 581.29 257.2C580.957 257.613 580.783 258.293 580.77 259.24H584.99ZM591.406 265H589.226V255H591.386V255.62C592.333 255.06 593.2 254.78 593.986 254.78C595.146 254.78 595.993 255.107 596.526 255.76C597.74 255.107 598.946 254.78 600.146 254.78C601.346 254.78 602.193 255.153 602.686 255.9C603.18 256.633 603.426 257.88 603.426 259.64V265H601.266V259.7C601.266 258.62 601.153 257.853 600.926 257.4C600.713 256.947 600.26 256.72 599.566 256.72C598.966 256.72 598.32 256.853 597.626 257.12L597.286 257.26C597.393 257.527 597.446 258.38 597.446 259.82V265H595.286V259.86C595.286 258.673 595.18 257.853 594.966 257.4C594.753 256.947 594.286 256.72 593.566 256.72C592.9 256.72 592.28 256.853 591.706 257.12L591.406 257.24V265ZM605.984 269.3V255H608.144V255.62C609.064 255.06 609.924 254.78 610.724 254.78C612.044 254.78 613.011 255.187 613.624 256C614.237 256.8 614.544 258.153 614.544 260.06C614.544 261.953 614.191 263.287 613.484 264.06C612.791 264.833 611.651 265.22 610.064 265.22C609.517 265.22 608.884 265.16 608.164 265.04V269.3H605.984ZM610.344 256.72C609.717 256.72 609.091 256.86 608.464 257.14L608.164 257.28V263.18C608.697 263.287 609.284 263.34 609.924 263.34C610.831 263.34 611.457 263.08 611.804 262.56C612.151 262.04 612.324 261.153 612.324 259.9C612.324 257.78 611.664 256.72 610.344 256.72ZM616.846 265V250.84H619.026V265H616.846ZM622.325 256.08C623.018 255.213 624.165 254.78 625.765 254.78C627.365 254.78 628.505 255.213 629.185 256.08C629.878 256.947 630.225 258.247 630.225 259.98C630.225 261.713 629.892 263.02 629.225 263.9C628.558 264.78 627.405 265.22 625.765 265.22C624.125 265.22 622.972 264.78 622.305 263.9C621.638 263.02 621.305 261.713 621.305 259.98C621.305 258.247 621.645 256.947 622.325 256.08ZM623.965 262.58C624.272 263.113 624.872 263.38 625.765 263.38C626.658 263.38 627.258 263.113 627.565 262.58C627.872 262.047 628.025 261.173 628.025 259.96C628.025 258.747 627.858 257.887 627.525 257.38C627.205 256.873 626.618 256.62 625.765 256.62C624.912 256.62 624.318 256.873 623.985 257.38C623.665 257.887 623.505 258.747 623.505 259.96C623.505 261.173 623.658 262.047 623.965 262.58ZM631.295 255H633.435L635.555 263.14H636.095L638.215 255H640.375L636.575 269.3H634.435L635.635 265H633.915L631.295 255ZM649.003 263.2L649.563 263.14L649.603 264.76C648.083 265.067 646.736 265.22 645.562 265.22C644.083 265.22 643.016 264.813 642.363 264C641.723 263.187 641.403 261.887 641.403 260.1C641.403 256.553 642.849 254.78 645.743 254.78C648.543 254.78 649.943 256.307 649.943 259.36L649.803 260.92H643.603C643.616 261.747 643.796 262.353 644.143 262.74C644.489 263.127 645.136 263.32 646.083 263.32C647.029 263.32 648.003 263.28 649.003 263.2ZM647.803 259.24C647.803 258.253 647.643 257.567 647.323 257.18C647.016 256.78 646.489 256.58 645.743 256.58C644.996 256.58 644.449 256.787 644.103 257.2C643.769 257.613 643.596 258.293 643.583 259.24H647.803ZM659.159 263.2L659.719 263.14L659.759 264.76C658.239 265.067 656.892 265.22 655.719 265.22C654.239 265.22 653.172 264.813 652.519 264C651.879 263.187 651.559 261.887 651.559 260.1C651.559 256.553 653.005 254.78 655.899 254.78C658.699 254.78 660.099 256.307 660.099 259.36L659.959 260.92H653.759C653.772 261.747 653.952 262.353 654.299 262.74C654.645 263.127 655.292 263.32 656.239 263.32C657.185 263.32 658.159 263.28 659.159 263.2ZM657.959 259.24C657.959 258.253 657.799 257.567 657.479 257.18C657.172 256.78 656.645 256.58 655.899 256.58C655.152 256.58 654.605 256.787 654.259 257.2C653.925 257.613 653.752 258.293 653.739 259.24H657.959ZM669.135 257.06C667.562 256.847 666.422 256.74 665.715 256.74C665.008 256.74 664.515 256.827 664.235 257C663.968 257.16 663.835 257.42 663.835 257.78C663.835 258.14 663.982 258.393 664.275 258.54C664.582 258.687 665.288 258.86 666.395 259.06C667.515 259.247 668.308 259.547 668.775 259.96C669.242 260.373 669.475 261.107 669.475 262.16C669.475 263.213 669.135 263.987 668.455 264.48C667.788 264.973 666.808 265.22 665.515 265.22C664.702 265.22 663.675 265.107 662.435 264.88L661.815 264.78L661.895 262.96C663.495 263.173 664.648 263.28 665.355 263.28C666.062 263.28 666.562 263.193 666.855 263.02C667.162 262.847 667.315 262.56 667.315 262.16C667.315 261.76 667.168 261.487 666.875 261.34C666.595 261.18 665.908 261.013 664.815 260.84C663.735 260.653 662.942 260.367 662.435 259.98C661.928 259.593 661.675 258.887 661.675 257.86C661.675 256.833 662.022 256.067 662.715 255.56C663.422 255.053 664.322 254.8 665.415 254.8C666.268 254.8 667.315 254.907 668.555 255.12L669.175 255.24L669.135 257.06Z" fill="white"/>
<path d="M924.289 222.032L937.125 241.816L926.999 250.066L914.163 228.71C913.423 228.449 912.723 228.085 912.085 227.628C911.221 227.075 910.478 226.352 909.903 225.503C909.327 224.654 908.93 223.697 908.736 222.689C908.542 221.682 908.555 220.646 908.774 219.644C908.993 218.642 909.414 217.695 910.01 216.86C910.607 216.026 911.367 215.321 912.244 214.79C913.122 214.258 914.098 213.911 915.114 213.768C916.13 213.626 917.164 213.692 918.154 213.962C919.143 214.232 920.068 214.7 920.871 215.339C921.942 216.092 922.814 217.096 923.409 218.262C924.005 219.429 924.307 220.723 924.289 222.032Z" fill="#FFB6B6"/>
<path d="M1102.27 562.627L1094.43 567.724L1071.04 539.913L1082.61 532.39L1102.27 562.627Z" fill="#FFB6B6"/>
<path d="M1107.86 570.625L1083.76 586.3L1083.56 585.995C1081.94 583.507 1081.38 580.478 1081.99 577.574C1082.61 574.67 1084.35 572.13 1086.84 570.511L1086.84 570.511L1089.07 564.307L1099.46 562.306L1101.56 560.938L1107.86 570.625Z" fill="#2F2E41"/>
<path d="M967.928 575.983L958.577 575.982L954.129 539.915L967.929 539.916L967.928 575.983Z" fill="#FFB6B6"/>
<path d="M968.256 585.739L939.502 585.737V585.374C939.502 582.406 940.681 579.559 942.78 577.46C944.879 575.361 947.726 574.182 950.694 574.182H950.695L955.947 570.197L965.747 574.183L968.257 574.183L968.256 585.739Z" fill="#2F2E41"/>
<path d="M1064.71 353.427L980.863 355.27L972.551 365.66C972.551 365.66 962.749 370.773 962.109 374.796C961.469 378.819 955.814 450.258 958.872 452.948C961.93 455.639 953.074 474.213 952.423 475.346C951.773 476.479 944.762 532.39 952.423 536.987L955.301 556.503H968.692C968.692 556.503 982.106 540.979 979.407 538.165C976.707 535.351 984.428 525.994 984.723 520.976C985.018 515.958 987.838 493.199 985.653 489.55C983.469 485.9 980.516 472.206 986.057 466.896C991.598 461.587 1017.44 396.346 1017.44 396.346C1017.44 396.346 1024.95 472.831 1024.93 478.837C1024.91 486.647 1030.04 482.782 1030.04 489.638C1030.04 491.024 1046.74 526.627 1057.96 537.756L1081.17 555.61L1091.89 547.576V535.971C1091.89 535.971 1081.96 514.438 1078.5 510.975C1075.03 507.512 1062.25 496.911 1062.25 492.063C1062.25 487.214 1056.23 485.525 1060.27 479.097C1064.32 472.669 1062.94 469.899 1061.55 467.128C1060.17 464.358 1076.1 377.088 1076.1 377.088L1064.71 353.427Z" fill="#2F2E41"/>
<path d="M1048.84 195.067L1012.46 193.319L1003.15 208.593C1003.15 208.593 975.954 211.322 979.843 221.549C983.731 231.776 987.107 292.502 981.61 301.272C976.112 310.042 967.676 302.772 975.011 319.913C982.346 337.054 966.023 367.213 966.023 367.213L1013.51 377.226C1013.51 377.226 1051.61 366.144 1058.53 359.218C1065.46 352.292 1071.69 346.751 1067.54 344.673C1063.38 342.595 1051.61 341.21 1057.84 331.513C1064.07 321.817 1064.84 322.265 1064.8 315.807C1064.77 309.349 1061.12 293.348 1061.12 293.348C1061.12 293.348 1085.03 225.541 1077.83 222.981C1070.63 220.42 1050.52 208.593 1050.52 208.593L1048.84 195.067Z" fill="#E6E6E6"/>
<path d="M1001.76 215.866C1001.76 215.866 980.893 205.951 977.815 219.559C974.737 233.168 962.855 267.307 962.855 267.307C962.855 267.307 949.693 259.687 951.773 255.533C953.853 251.378 942.591 250.747 946.232 243.758C949.873 236.77 933.072 229.906 933.072 229.906L912.986 238.217C912.986 238.217 920.764 249.874 925.931 255.013C931.099 260.153 923.379 261.071 929.609 267.307C935.84 273.544 948.385 296.875 948.385 296.875L964.719 303.686L1010.6 275.66L1001.76 215.866Z" fill="#E6E6E6"/>
<path d="M1029.75 185.109C1043.74 185.109 1055.09 173.765 1055.09 159.771C1055.09 145.778 1043.74 134.434 1029.75 134.434C1015.76 134.434 1004.41 145.778 1004.41 159.771C1004.41 173.765 1015.76 185.109 1029.75 185.109Z" fill="#FFB6B6"/>
<path d="M1046.25 166.282C1047.46 165.67 1048.99 166.739 1049.28 168.058C1049.36 168.729 1049.31 169.41 1049.12 170.059C1048.93 170.708 1048.61 171.312 1048.18 171.834C1047.32 172.87 1046.54 173.978 1045.86 175.145C1045.53 175.736 1045.38 176.409 1045.42 177.084C1045.46 177.76 1045.69 178.41 1046.08 178.959C1046.52 179.379 1047.06 179.668 1047.65 179.793C1048.24 179.917 1048.85 179.872 1049.41 179.662C1050.54 179.222 1051.53 178.504 1052.3 177.575C1057.15 172.319 1062.2 163.595 1059.72 156.89C1059.52 156.173 1059.44 155.427 1059.48 154.683C1059.43 153.83 1059.28 152.545 1060.08 152.254C1062.32 151.445 1056.03 138.338 1046.32 135.486C1046.79 131.011 1023.43 124.573 1024.7 130.192C1024.93 131.201 1022.68 130.652 1021.64 130.708C1013.72 131.137 1004.77 133.129 1005.49 142.316C1005.77 145.874 1004.29 145.053 1003.11 148.421C1004.95 149.518 1005.56 151.925 1006.98 150.319C1008.4 148.713 1009.61 146.702 1011.64 146.027C1013.81 145.309 1016.16 146.383 1018.01 147.723C1019.85 149.062 1021.55 150.727 1023.72 151.428C1026.15 152.215 1028.81 151.668 1031.35 151.986C1034.96 152.439 1038.16 154.645 1040.55 157.391C1042.82 160.236 1044.74 163.347 1046.26 166.656" fill="#2F2E41"/>
<path d="M1141.58 586.707L860.057 586.981C859.776 586.98 859.507 586.867 859.309 586.668C859.111 586.469 859 586.199 859 585.918C859 585.637 859.111 585.368 859.309 585.169C859.507 584.97 859.776 584.857 860.057 584.855L1141.58 584.581C1141.86 584.582 1142.13 584.695 1142.33 584.894C1142.53 585.093 1142.64 585.363 1142.64 585.644C1142.64 585.925 1142.53 586.194 1142.33 586.394C1142.13 586.593 1141.86 586.706 1141.58 586.707Z" fill="#CACACA"/>
<path d="M1062.51 365C1053.89 365.007 1045.63 367.406 1039.53 371.672C1033.44 375.937 1030.01 381.721 1030 387.753V484.247C1030.01 490.279 1033.44 496.063 1039.53 500.328C1045.63 504.594 1053.89 506.993 1062.51 507H1276.49C1285.11 506.993 1293.37 504.594 1299.47 500.328C1305.56 496.063 1308.99 490.279 1309 484.247V387.753C1308.99 381.721 1305.56 375.937 1299.47 371.672C1293.37 367.406 1285.11 365.007 1276.49 365H1062.51Z" fill="white"/>
<path d="M1275.4 508H1062.6C1053.69 507.993 1045.15 505.496 1038.85 501.057C1032.55 496.618 1029.01 490.6 1029 484.322V387.678C1029.01 381.4 1032.55 375.382 1038.85 370.943C1045.15 366.504 1053.69 364.007 1062.6 364H1275.4C1284.31 364.007 1292.85 366.504 1299.15 370.943C1305.45 375.382 1308.99 381.4 1309 387.678V484.322C1308.99 490.6 1305.45 496.618 1299.15 501.057C1292.85 505.496 1284.31 507.993 1275.4 508ZM1062.6 365.778C1054.36 365.784 1046.46 368.094 1040.63 372.199C1034.81 376.305 1031.53 381.872 1031.52 387.678V484.322C1031.53 490.128 1034.81 495.695 1040.63 499.801C1046.46 503.906 1054.36 506.216 1062.6 506.222H1275.4C1283.64 506.216 1291.54 503.906 1297.37 499.801C1303.19 495.695 1306.47 490.128 1306.48 484.322V387.678C1306.47 381.872 1303.19 376.305 1297.37 372.199C1291.54 368.094 1283.64 365.784 1275.4 365.778H1062.6Z" fill="#3F3D56"/>
<path d="M1119.7 461.81C1120.08 459.246 1117.39 456.732 1113.7 456.195C1110.02 455.659 1106.73 457.303 1106.35 459.868C1105.98 462.433 1108.67 464.947 1112.35 465.483C1116.04 466.019 1119.33 464.375 1119.7 461.81Z" fill="#E6E6E6"/>
<path d="M1088.61 411.716C1088.63 409.362 1087.32 407.443 1085.68 407.43C1084.04 407.418 1082.7 409.317 1082.68 411.671C1082.66 414.026 1083.98 415.945 1085.61 415.957C1087.25 415.969 1088.59 414.071 1088.61 411.716Z" fill="#E6E6E6"/>
<path d="M1082.14 384.603C1082.16 382.248 1080.85 380.329 1079.21 380.317C1077.57 380.305 1076.23 382.203 1076.21 384.558C1076.19 386.913 1077.51 388.831 1079.15 388.844C1080.78 388.856 1082.13 386.957 1082.14 384.603Z" fill="#3F3D56"/>
<path d="M1132.44 432.321C1132.46 429.966 1131.15 428.047 1129.51 428.035C1127.87 428.022 1126.53 429.921 1126.51 432.276C1126.49 434.63 1127.81 436.549 1129.44 436.561C1131.08 436.574 1132.42 434.675 1132.44 432.321Z" fill="#E6E6E6"/>
<path d="M1111.23 442.911C1111.25 440.557 1109.94 438.638 1108.3 438.626C1106.66 438.613 1105.32 440.512 1105.3 442.867C1105.28 445.221 1106.6 447.14 1108.23 447.152C1109.87 447.165 1111.21 445.266 1111.23 442.911Z" fill="#FF6584"/>
<path d="M1140.76 462.487C1140.78 460.132 1139.47 458.213 1137.83 458.201C1136.19 458.189 1134.85 460.087 1134.83 462.442C1134.81 464.796 1136.12 466.715 1137.76 466.728C1139.4 466.74 1140.74 464.841 1140.76 462.487Z" fill="#3F3D56"/>
<path d="M1150.61 451.039C1153.2 451.039 1155.31 448.018 1155.31 444.293C1155.31 440.567 1153.2 437.547 1150.61 437.547C1148.02 437.547 1145.92 440.567 1145.92 444.293C1145.92 448.018 1148.02 451.039 1150.61 451.039Z" fill="#E6E6E6"/>
<path d="M1117.18 468.049C1119.77 468.049 1121.87 465.029 1121.87 461.304C1121.87 457.578 1119.77 454.558 1117.18 454.558C1114.59 454.558 1112.49 457.578 1112.49 461.304C1112.49 465.029 1114.59 468.049 1117.18 468.049Z" fill="#FF6584"/>
<path d="M1106.33 481.406C1108.66 481.084 1110.37 479.508 1110.15 477.886C1109.92 476.263 1107.85 475.208 1105.52 475.529C1103.19 475.851 1101.48 477.427 1101.7 479.049C1101.92 480.672 1104 481.727 1106.33 481.406Z" fill="#E6E6E6"/>
<path d="M1080.43 491.71C1082.76 491.389 1084.47 489.813 1084.25 488.19C1084.02 486.568 1081.95 485.513 1079.62 485.834C1077.29 486.155 1075.58 487.731 1075.8 489.354C1076.02 490.977 1078.1 492.032 1080.43 491.71Z" fill="#3F3D56"/>
<path d="M1120.41 435.064C1122.74 434.742 1124.45 433.166 1124.23 431.544C1124 429.921 1121.93 428.866 1119.6 429.188C1117.27 429.509 1115.56 431.085 1115.78 432.708C1116 434.33 1118.08 435.385 1120.41 435.064Z" fill="#E6E6E6"/>
<path d="M1133.94 454.53C1136.27 454.208 1137.98 452.632 1137.76 451.01C1137.54 449.387 1135.46 448.332 1133.13 448.653C1130.8 448.975 1129.09 450.551 1129.31 452.173C1129.54 453.796 1131.61 454.851 1133.94 454.53Z" fill="#FF6584"/>
<path d="M1043.73 427.513C1039.13 408.189 1039.9 389.157 1047.77 370.51C1047.86 369.356 1048.39 368.282 1049.27 367.524C1050.14 366.767 1051.28 366.386 1052.43 366.467L1095.48 369.521C1096.64 369.605 1097.71 370.142 1098.47 371.016C1099.23 371.889 1099.61 373.028 1099.53 374.182L1095.48 431.185C1095.4 432.339 1094.86 433.412 1093.99 434.17C1093.11 434.928 1091.98 435.308 1090.82 435.228L1047.77 432.173C1046.62 432.09 1045.55 431.553 1044.79 430.679C1044.03 429.805 1043.65 428.667 1043.73 427.513Z" fill="#F2F2F2"/>
<path d="M1048.26 410.53C1044.57 401.008 1046.93 387.911 1050.86 373.883C1050.93 372.803 1051.44 371.797 1052.25 371.087C1053.07 370.378 1054.14 370.021 1055.22 370.097L1092.22 372.722C1093.3 372.8 1094.3 373.303 1095.01 374.121C1095.72 374.94 1096.08 376.006 1096 377.087L1092.41 427.812C1092.33 428.892 1091.82 429.898 1091.01 430.608C1090.19 431.317 1089.12 431.674 1088.04 431.598L1065.12 429.972C1060.31 429.625 1055.83 427.383 1052.67 423.738C1049.51 420.094 1047.92 415.343 1048.26 410.53Z" fill="white"/>
<path d="M1058.21 361.048L1070.02 341.751L1081.99 346.959L1068.78 366.917C1068.97 368.312 1068.78 369.734 1068.21 371.024C1067.64 372.314 1066.73 373.419 1065.56 374.217C1064.4 375.015 1063.04 375.473 1061.64 375.54C1060.23 375.606 1058.83 375.279 1057.6 374.595C1056.37 373.911 1055.35 372.897 1054.66 371.666C1053.98 370.436 1053.65 369.039 1053.71 367.631C1053.77 366.224 1054.23 364.862 1055.03 363.699C1055.82 362.536 1056.92 361.618 1058.21 361.048Z" fill="#FFB6B6"/>
<path d="M1059.36 226.002C1059.36 226.002 1075.85 220.002 1077.93 224.157C1080.01 228.313 1091.16 304.147 1089.74 308.133C1088.32 312.12 1079.31 301.038 1088.32 312.12C1097.32 323.202 1095.94 320.431 1093.86 322.509C1091.78 324.587 1083.21 353.682 1083.21 353.682L1059.36 350.541L1067.54 305.194L1057 248.549L1059.36 226.002Z" fill="#E6E6E6"/>
<path d="M1053.84 400.52H1059.06L1062.09 420.752H1062.63L1067.02 400.52H1072.78L1077.17 420.752H1077.71L1080.74 400.52H1085.96L1081.28 425H1073.75L1069.9 406.388L1066.05 425H1058.52L1053.84 400.52ZM1093.68 425H1088.86V399.8H1093.68V407.864C1095.34 407 1096.83 406.568 1098.15 406.568C1100.55 406.568 1102.2 407.276 1103.12 408.692C1104.03 410.108 1104.48 412.292 1104.48 415.244V425H1099.66V415.352C1099.66 413.84 1099.48 412.724 1099.12 412.004C1098.76 411.26 1098.04 410.888 1096.96 410.888C1096.02 410.888 1095.09 411.032 1094.15 411.32L1093.68 411.464V425ZM1122.55 412.616V420.104C1122.6 420.68 1122.69 421.088 1122.84 421.328C1122.98 421.544 1123.28 421.7 1123.74 421.796L1123.59 425.432C1122.37 425.432 1121.38 425.348 1120.64 425.18C1119.92 425.012 1119.19 424.676 1118.44 424.172C1116.72 425.012 1114.95 425.432 1113.15 425.432C1109.43 425.432 1107.57 423.464 1107.57 419.528C1107.57 417.608 1108.09 416.252 1109.12 415.46C1110.15 414.644 1111.74 414.164 1113.87 414.02L1117.72 413.732V412.616C1117.72 411.872 1117.56 411.368 1117.22 411.104C1116.88 410.816 1116.34 410.672 1115.6 410.672L1108.83 410.96L1108.69 407.612C1111.26 406.916 1113.69 406.568 1116 406.568C1118.32 406.568 1119.99 407.048 1121 408.008C1122.03 408.968 1122.55 410.504 1122.55 412.616ZM1114.45 417.368C1113.1 417.488 1112.43 418.208 1112.43 419.528C1112.43 420.848 1113.02 421.508 1114.2 421.508C1115.11 421.508 1116.1 421.364 1117.18 421.076L1117.72 420.932V417.08L1114.45 417.368ZM1137.12 411.104H1132.69V418.484C1132.69 419.204 1132.7 419.72 1132.73 420.032C1132.77 420.32 1132.91 420.572 1133.12 420.788C1133.36 421.004 1133.72 421.112 1134.2 421.112L1136.94 421.04L1137.15 424.892C1135.55 425.252 1134.32 425.432 1133.48 425.432C1131.32 425.432 1129.85 424.952 1129.05 423.992C1128.26 423.008 1127.87 421.208 1127.87 418.592V411.104H1125.74V407H1127.87V401.996H1132.69V407H1137.12V411.104ZM1146.8 407H1151.55L1153.75 420.896H1154.61L1157.35 407.36H1162.32L1165.05 420.896H1165.92L1168.11 407H1172.87L1169.45 425H1161.89L1159.83 413.984L1157.78 425H1150.22L1146.8 407ZM1179.94 418.052C1179.96 419.156 1180.25 419.96 1180.8 420.464C1181.38 420.944 1182.19 421.184 1183.25 421.184C1185.48 421.184 1187.47 421.112 1189.23 420.968L1190.23 420.86L1190.31 424.424C1187.55 425.096 1185.05 425.432 1182.82 425.432C1180.11 425.432 1178.14 424.712 1176.91 423.272C1175.69 421.832 1175.08 419.492 1175.08 416.252C1175.08 409.796 1177.73 406.568 1183.03 406.568C1188.27 406.568 1190.88 409.28 1190.88 414.704L1190.52 418.052H1179.94ZM1186.13 414.38C1186.13 412.94 1185.9 411.944 1185.45 411.392C1184.99 410.816 1184.19 410.528 1183.03 410.528C1181.91 410.528 1181.1 410.828 1180.62 411.428C1180.17 412.004 1179.93 412.988 1179.9 414.38H1186.13ZM1207.93 411.104V425H1203.1V411.104H1201.16V407H1203.1V406.208C1203.1 403.616 1203.49 401.828 1204.26 400.844C1205.02 399.86 1206.39 399.368 1208.36 399.368C1209.22 399.368 1210.34 399.488 1211.71 399.728L1212.46 399.836L1212.39 403.76C1211.34 403.712 1210.45 403.688 1209.73 403.688C1209.01 403.688 1208.53 403.88 1208.29 404.264C1208.05 404.648 1207.93 405.308 1207.93 406.244V407H1212.28V411.104H1207.93ZM1215.94 409.052C1217.21 407.396 1219.33 406.568 1222.31 406.568C1225.29 406.568 1227.41 407.396 1228.68 409.052C1229.95 410.684 1230.59 412.988 1230.59 415.964C1230.59 422.276 1227.83 425.432 1222.31 425.432C1216.79 425.432 1214.03 422.276 1214.03 415.964C1214.03 412.988 1214.67 410.684 1215.94 409.052ZM1219.65 420.032C1220.15 420.896 1221.04 421.328 1222.31 421.328C1223.58 421.328 1224.46 420.896 1224.94 420.032C1225.44 419.168 1225.69 417.812 1225.69 415.964C1225.69 414.116 1225.44 412.772 1224.94 411.932C1224.46 411.092 1223.58 410.672 1222.31 410.672C1221.04 410.672 1220.15 411.092 1219.65 411.932C1219.17 412.772 1218.93 414.116 1218.93 415.964C1218.93 417.812 1219.17 419.168 1219.65 420.032ZM1240.86 406.568C1242.11 406.568 1243.7 406.76 1245.65 407.144L1246.62 407.36L1246.47 411.176C1244.58 410.984 1243.17 410.888 1242.26 410.888C1240.61 410.888 1239.5 411.248 1238.95 411.968C1238.42 412.664 1238.16 413.996 1238.16 415.964C1238.16 417.932 1238.42 419.288 1238.95 420.032C1239.5 420.752 1240.62 421.112 1242.3 421.112L1246.47 420.824L1246.62 424.676C1244.05 425.18 1242.09 425.432 1240.75 425.432C1238.09 425.432 1236.17 424.688 1234.99 423.2C1233.84 421.688 1233.26 419.276 1233.26 415.964C1233.26 412.652 1233.86 410.264 1235.06 408.8C1236.26 407.312 1238.19 406.568 1240.86 406.568ZM1260.81 407H1265.64V425H1260.85V423.992C1259.12 424.952 1257.62 425.432 1256.35 425.432C1253.85 425.432 1252.17 424.748 1251.31 423.38C1250.44 421.988 1250.01 419.672 1250.01 416.432V407H1254.84V416.504C1254.84 418.28 1254.98 419.492 1255.27 420.14C1255.56 420.788 1256.25 421.112 1257.36 421.112C1258.41 421.112 1259.41 420.944 1260.34 420.608L1260.81 420.464V407ZM1283.02 411.5C1280.04 411.116 1277.95 410.924 1276.75 410.924C1275.58 410.924 1274.81 411.032 1274.45 411.248C1274.11 411.464 1273.94 411.812 1273.94 412.292C1273.94 412.748 1274.17 413.072 1274.63 413.264C1275.11 413.432 1276.31 413.696 1278.23 414.056C1280.17 414.392 1281.55 414.956 1282.37 415.748C1283.18 416.54 1283.59 417.824 1283.59 419.6C1283.59 423.488 1281.18 425.432 1276.36 425.432C1274.77 425.432 1272.85 425.216 1270.6 424.784L1269.44 424.568L1269.59 420.536C1272.56 420.92 1274.63 421.112 1275.78 421.112C1276.96 421.112 1277.75 421.004 1278.16 420.788C1278.59 420.548 1278.8 420.2 1278.8 419.744C1278.8 419.288 1278.58 418.952 1278.12 418.736C1277.69 418.52 1276.54 418.256 1274.66 417.944C1272.82 417.632 1271.44 417.104 1270.52 416.36C1269.61 415.616 1269.16 414.296 1269.16 412.4C1269.16 410.48 1269.8 409.04 1271.1 408.08C1272.4 407.096 1274.06 406.604 1276.1 406.604C1277.52 406.604 1279.45 406.832 1281.9 407.288L1283.09 407.504L1283.02 411.5ZM1152.67 464.052C1153.95 462.396 1156.07 461.568 1159.05 461.568C1162.02 461.568 1164.15 462.396 1165.42 464.052C1166.69 465.684 1167.33 467.988 1167.33 470.964C1167.33 477.276 1164.57 480.432 1159.05 480.432C1153.53 480.432 1150.77 477.276 1150.77 470.964C1150.77 467.988 1151.4 465.684 1152.67 464.052ZM1156.38 475.032C1156.89 475.896 1157.77 476.328 1159.05 476.328C1160.32 476.328 1161.19 475.896 1161.67 475.032C1162.18 474.168 1162.43 472.812 1162.43 470.964C1162.43 469.116 1162.18 467.772 1161.67 466.932C1161.19 466.092 1160.32 465.672 1159.05 465.672C1157.77 465.672 1156.89 466.092 1156.38 466.932C1155.9 467.772 1155.66 469.116 1155.66 470.964C1155.66 472.812 1155.9 474.168 1156.38 475.032ZM1175.69 480H1170.86V462H1175.65V463.008C1177.28 462.048 1178.78 461.568 1180.15 461.568C1182.55 461.568 1184.21 462.276 1185.12 463.692C1186.03 465.108 1186.49 467.292 1186.49 470.244V480H1181.66V470.388C1181.66 468.852 1181.48 467.724 1181.12 467.004C1180.76 466.26 1180.04 465.888 1178.96 465.888C1177.98 465.888 1177.03 466.056 1176.12 466.392L1175.69 466.536V480Z" fill="black"/>
<defs>
<filter id="filter0_d_715_785" x="-69" y="0" width="1537" height="616" filterUnits="userSpaceOnUse" color-interpolation-filters="sRGB">
<feFlood flood-opacity="0" result="BackgroundImageFix"/>
<feColorMatrix in="SourceAlpha" type="matrix" values="0 0 0 0 0 0 0 0 0 0 0 0 0 0 0 0 0 0 127 0" result="hardAlpha"/>
<feOffset dy="4"/>
<feGaussianBlur stdDeviation="2"/>
<feComposite in2="hardAlpha" operator="out"/>
<feColorMatrix type="matrix" values="0 0 0 0 0 0 0 0 0 0 0 0 0 0 0 0 0 0 0.25 0"/>
<feBlend mode="normal" in2="BackgroundImageFix" result="effect1_dropShadow_715_785"/>
<feBlend mode="normal" in="SourceGraphic" in2="effect1_dropShadow_715_785" result="shape"/>
</filter>
</defs>
</svg>
