<svg width="681" height="259" viewBox="0 0 681 259" fill="none" xmlns="http://www.w3.org/2000/svg">
<path d="M650.772 192.393L648.639 209.375L643.344 251.556H536.982C537.813 242.102 538.948 228.494 540.161 213.804C540.281 212.337 540.407 210.861 540.526 209.375C543.568 172.449 546.896 130.662 546.896 130.662L560.879 133.266L588.009 138.31L599.064 140.364L628.668 145.875C643.428 148.617 653.581 169.982 650.772 192.393V192.393Z" fill="#F2F2F2"/>
<path d="M570.319 62.3301L583.398 85.2128L558.259 103.024L547.535 74.897L570.319 62.3301Z" fill="#FFB6B6"/>
<path d="M553.669 83.9784C571.564 83.9784 586.072 69.4749 586.072 51.5839C586.072 33.6929 571.564 19.1895 553.669 19.1895C535.773 19.1895 521.266 33.6929 521.266 51.5839C521.266 69.4749 535.773 83.9784 553.669 83.9784Z" fill="#FFB6B6"/>
<path d="M551.342 58.8255C548.769 54.9108 549.779 52.8632 547.625 51.4245C547.625 51.4245 546.758 50.8456 540.554 50.5155C539.166 40.5218 537.432 39.3098 537.432 39.3098C535.433 37.913 532.468 38.3669 530.623 39.2212C526.721 41.028 527.174 44.9308 524.546 45.6777C520.917 46.7094 514.314 40.8932 513.664 34.2348C513.133 28.8034 516.633 23.5282 518.022 23.8072C519.398 24.0839 522.694 19.8777 524.473 19.9426C525.688 19.9869 530.653 17.8294 531.989 17.9981C533.448 18.1823 538.257 20.6915 538.458 20.1182C539.851 16.1345 539.441 15.0292 540.623 13.8895C542.717 11.8701 546.143 13.2764 551.517 14.0314C562.574 15.5848 564.504 11.9398 570.171 14.4104C573.033 15.6584 575.428 19.0242 580.102 25.7047C586.638 35.0475 589.906 39.7188 589.927 45.1673C589.948 50.7238 587.257 50.371 586.075 58.5969C584.759 67.7537 587.555 71.9407 584.5 74.9156C582.139 77.2148 577.341 77.7605 574.819 75.7427C570.503 72.2879 576.152 63.9515 571.375 57.8609C568.443 54.1223 562.546 52.4588 559.845 54.3068C556.79 56.3964 558.473 62.5298 556.325 63.1114C554.486 63.6094 551.79 59.5077 551.342 58.8256L551.342 58.8255Z" fill="#2F2E41"/>
<path d="M626.823 186.413C625.919 201.862 622.329 206.74 621.072 224.985C620.797 228.991 620.632 233.641 620.632 239.186C620.632 240.6 620.64 241.966 620.64 243.302C620.64 246.145 620.585 248.831 620.254 251.557C620.004 253.732 619.572 255.924 618.857 258.233H549.068C549.061 258.217 549.061 258.201 549.052 258.186C548.644 256.411 548.385 254.714 548.188 253.088C548.125 252.57 548.07 252.059 548.023 251.557C547.96 250.967 547.905 250.386 547.851 249.813C547.638 247.527 547.426 245.367 546.923 243.302C546.248 240.45 545.022 237.764 542.508 235.172C541.479 234.112 540.45 233.288 539.444 232.565C539.248 232.431 539.059 232.298 538.863 232.164C536.081 230.255 533.45 228.881 531.171 224.985C531.132 224.93 531.101 224.867 531.069 224.813C530.676 224.129 529.655 222.338 528.916 219.951C528.138 217.469 527.667 214.35 528.516 211.162C530.535 203.606 538.014 202.852 544.127 195.217C544.786 194.393 545.438 193.482 546.059 192.468C548.824 187.976 549.571 184.017 550.451 179.312C550.592 178.55 550.718 177.796 550.82 177.066C550.899 176.516 550.969 175.974 551.025 175.44C551.511 170.955 551.276 167.091 550.702 163.635C548.833 152.317 543.317 145.311 547.214 135.155C548.44 131.967 550.176 129.571 551.928 127.521C555.636 123.177 559.446 120.358 558.787 114.75C558.118 109.095 553.829 108.317 553.35 103.377C553.106 100.879 553.923 98.2478 555.455 95.6637V95.6561C560.358 87.3381 572.598 79.6801 580.376 79.9236C581.813 79.9631 583.086 80.2849 584.147 80.9054C587.989 83.1674 586.386 88.1078 592.271 95.0355C596.646 100.18 601.596 102.238 603.474 103.212C610.914 107.092 616.963 118.536 621.072 133.168C621.103 133.278 621.134 133.388 621.166 133.506C623.704 142.672 625.495 153.079 626.383 163.635C626.76 168.104 626.98 172.597 627.027 177.042C627.067 180.593 626.988 183.672 626.823 186.413Z" fill="#2DB2C4"/>
<path d="M574.562 239.343L573.14 243.302L572.244 245.784L570.17 251.557L567.766 258.233H552.312L554.905 251.557L556.107 248.446L558.103 243.302L561.449 234.662L574.562 239.343Z" fill="#FFB6B6"/>
<path d="M621.315 131.817C621.275 132.328 621.22 132.893 621.165 133.506C620.553 139.742 619.107 150.903 616.994 163.635C615.878 170.351 614.574 177.506 613.105 184.614C609.947 199.954 606.018 215.058 601.579 224.985C600.786 226.776 599.969 228.394 599.136 229.824C598.5 230.916 597.831 231.991 597.132 233.052C594.87 236.531 592.332 239.83 589.7 242.909C589.598 243.043 589.48 243.168 589.363 243.302C588.938 243.804 588.498 244.299 588.058 244.794C585.906 247.221 583.706 249.483 581.577 251.557C578.984 254.086 576.486 256.324 574.247 258.233H549.153L549.051 258.186L545.438 256.583C545.438 256.583 546.466 255.374 548.187 253.088C548.541 252.625 548.918 252.114 549.327 251.557C549.829 250.873 550.372 250.119 550.952 249.302C552.162 247.59 553.537 245.58 555.014 243.302C557.874 238.895 561.134 233.476 564.426 227.201C564.804 226.47 565.188 225.732 565.573 224.985C565.581 224.962 565.597 224.938 565.605 224.915C566.257 223.642 566.901 222.331 567.545 220.995C573.005 209.638 574.569 200.213 575.017 197.158C575.645 192.838 576.517 186.798 576.282 180.153C576.124 175.77 575.488 171.136 573.972 166.533V166.526C573.658 165.56 573.304 164.594 572.903 163.635C572.188 161.915 571.34 160.219 570.334 158.546C565.896 151.178 562.29 150.872 559.422 142.845C558.573 140.465 556.648 135.093 557.237 129.422V129.414C557.309 128.715 557.426 128.008 557.583 127.301V127.293C557.623 127.097 557.678 126.893 557.733 126.697C558.18 124.961 558.919 123.24 560.042 121.607C562.234 118.434 565.227 116.548 567.906 115.425L567.915 115.417C571.01 114.13 573.681 113.855 574.2 113.807C585.678 112.787 594.579 122.431 599.443 127.702C601.32 129.736 603.041 131.441 604.612 132.83C616.844 143.748 620.199 136.773 621.071 133.168C621.204 132.611 621.275 132.132 621.315 131.817V131.817Z" fill="#2DB2C4"/>
<path d="M621.354 131.409C621.354 131.448 621.346 131.582 621.314 131.802C621.33 131.684 621.338 131.566 621.346 131.456C621.346 131.433 621.346 131.417 621.354 131.409Z" fill="#2DB2C4"/>
<path d="M184.68 63.835L211.221 52.668L222.606 75.9996L194.714 87.3809L184.68 63.835Z" fill="#FFB6B6"/>
<path opacity="0.1" d="M184.68 63.835L211.221 52.668L222.606 75.9996L194.714 87.3809L184.68 63.835Z" fill="black"/>
<path d="M188.453 54.9442L214.637 85.1047C214.637 85.1047 196.422 142.58 178.207 147.702C159.993 152.823 126.409 177.862 126.409 177.862L84.2871 150.547L104.779 120.387C104.779 120.387 154.3 52.668 167.392 52.668C180.484 52.668 188.453 54.9442 188.453 54.9442V54.9442Z" fill="#2DB2C4"/>
<path d="M153.076 251.557H92.1249L88.2713 246.407L72.5382 225.38L68.918 220.543C68.918 220.543 55.2569 195.504 58.103 172.742C60.949 149.979 90.5482 144.857 90.5482 144.857H91.7663L128.002 176.691L125.839 206.316L137.315 225.38L153.076 251.557Z" fill="#2F2E41"/>
<path d="M104.608 251.556H88.2715V227.371L104.608 251.556Z" fill="#2F2E41"/>
<path d="M456.962 214.841L454.93 225.38L449.887 251.557H348.572C349.363 245.69 350.445 237.245 351.6 228.128C351.714 227.218 351.834 226.302 351.948 225.38C354.845 202.464 358.015 176.531 358.015 176.531L371.335 178.147L397.177 181.277L407.708 182.552L435.907 185.972C449.966 187.674 459.637 200.933 456.962 214.841H456.962Z" fill="#F2F2F2"/>
<path d="M600.343 251.557H545.391C546.227 250.572 546.7 250.003 546.7 250.003L563.173 247.283L597.115 241.684C597.115 241.684 598.663 245.684 600.343 251.557V251.557Z" fill="#2F2E41"/>
<path d="M367.25 75.2188L391.148 109.006L349.463 110.251L344.988 78.4985L367.25 75.2188Z" fill="#A0616A"/>
<path opacity="0.1" d="M367.25 75.2188L391.148 109.006L349.463 110.251L344.988 78.4985L367.25 75.2188Z" fill="black"/>
<path d="M249.397 145.224C246.331 136.381 239.282 130.794 233.652 132.746C228.023 134.698 225.947 143.448 229.016 152.294C230.193 155.845 232.204 159.062 234.88 161.676L248.345 198.981L265.721 192.291L250.602 156.225C251.085 152.514 250.672 148.742 249.397 145.224Z" fill="#A0616A"/>
<path d="M411.161 128.007L411.129 162.441L407.924 175.159L401.332 201.319L396.534 225.379L392.959 243.305L391.684 249.707C390.722 250.35 389.766 250.964 388.81 251.556H305.551C300.821 248.717 298.174 246.509 298.174 246.509C298.174 246.509 299.483 245.279 300.98 243.305C303.507 239.97 306.564 234.507 304.691 229.289C304.299 228.196 304.196 226.864 304.316 225.379C305.078 215.58 315.358 199.009 315.358 199.009L313.23 174.414L312.296 163.636L318.878 111.082L340.332 98.6141L344.035 98.2559L380.596 96.2812L395.707 97.1519L396.396 97.3397L411.161 128.007V128.007Z" fill="#CCCCCC"/>
<path d="M412.785 251.557H394.57L393.767 243.306L393.75 243.141L398.907 242.788L412.324 241.872L412.557 246.811L412.739 250.601L412.785 251.557Z" fill="#FFB6B6"/>
<path d="M417.269 136.333L424.921 181.215L418.677 225.38L417.703 232.254L415.984 244.392L415.455 248.125L415.472 248.529L415.603 251.557H393.973L393.176 243.305L393.108 242.566L391.48 225.664L391.451 225.38L387.996 189.54L394.77 163.636L395.271 161.73V161.724L398.218 117.371L395.935 97.2152L395.912 97.0273C395.958 97.0558 395.998 97.0843 396.043 97.1127C396.163 97.1867 396.282 97.2607 396.396 97.3404C409.693 105.774 417.617 120.57 417.269 136.333Z" fill="#CCCCCC"/>
<path d="M326.628 119.683L318.31 111.082C318.31 111.082 300.504 119.107 299.617 123.56C298.729 128.012 267.291 193.405 267.291 193.405L253.613 156.883L235.809 168.767C235.809 168.767 250.095 225.469 263.455 228.131C276.816 230.793 321.594 161.019 321.594 161.019L326.628 119.683H326.628Z" fill="#CCCCCC"/>
<path d="M664.368 224.984H16.6243C7.4559 224.984 0 232.446 0 241.612C0 250.778 7.4559 258.232 16.6243 258.232H664.368C673.536 258.232 681 250.778 681 241.612C681 232.446 673.536 224.984 664.368 224.984Z" fill="#E6E6E6"/>
<path d="M407.371 174.319L406.112 233.071C405.99 238.759 401.343 243.306 395.653 243.306H287.547C281.992 243.306 277.405 238.964 277.102 233.418L273.889 174.666C273.561 168.675 278.333 163.637 284.334 163.637H396.913C402.778 163.637 407.497 168.457 407.371 174.319Z" fill="#3F3D56"/>
<path d="M232.851 78.0185C247.136 78.0185 258.716 66.4415 258.716 52.1606C258.716 37.8797 247.136 26.3027 232.851 26.3027C218.566 26.3027 206.986 37.8797 206.986 52.1606C206.986 66.4415 218.566 78.0185 232.851 78.0185Z" fill="#FFB6B6"/>
<path d="M189.592 119.818L192.438 150.548L211.791 228.51L195.071 234.368L166.823 149.41L162.922 115.266L189.592 119.818Z" fill="#FFB6B6"/>
<path d="M181.893 174.319L180.633 233.071C180.511 238.759 175.865 243.306 170.175 243.306H62.0687C56.513 243.306 51.9264 238.964 51.6232 233.418L48.4105 174.666C48.0828 168.675 52.8541 163.637 58.856 163.637H171.434C177.299 163.637 182.018 168.457 181.893 174.319Z" fill="#3F3D56"/>
<path d="M214.872 243.702C226.153 243.702 235.299 239.658 235.299 234.669C235.299 229.681 226.153 225.637 214.872 225.637C203.591 225.637 194.445 229.681 194.445 234.669C194.445 239.658 203.591 243.702 214.872 243.702Z" fill="#FFB6B6"/>
<path d="M149.461 124.516L161.13 62.342C161.13 62.342 193.575 57.7895 194.713 68.6017C195.852 79.414 193.9 132.255 193.9 132.255L149.461 124.516V124.516Z" fill="#2DB2C4"/>
<path d="M222.41 56.2257C222.41 56.2257 238.41 50.5168 245.159 47.4452C251.908 44.3736 265.316 65.7979 265.614 54.483C265.912 43.1681 261.279 38.4231 261.279 38.4231C261.279 38.4231 260.122 13.6702 235.178 16.7649C235.178 16.7649 240.665 4.38067 222.654 2.46568C204.644 0.550691 176.624 44.0316 179.133 50.5295C181.643 57.0275 184.651 62.3997 177.532 69.3475C170.412 76.2953 157.081 115.507 167.224 126.058C177.367 136.61 178.033 141.188 171.083 147.753C164.134 154.317 147.707 168.591 165.468 171.069C183.229 173.546 163.843 171.696 177.084 160.052C190.325 148.408 209.647 148.884 202.432 130.202C195.218 111.52 207.752 84.7494 206.184 80.6881C204.615 76.6269 209.698 50.8378 209.698 50.8378C209.698 50.8378 221.525 49.1005 222.41 56.2257V56.2257Z" fill="#2F2E41"/>
<path d="M354.472 87.4472C370.022 87.4472 382.628 74.8449 382.628 59.2991C382.628 43.7532 370.022 31.1509 354.472 31.1509C338.922 31.1509 326.316 43.7532 326.316 59.2991C326.316 74.8449 338.922 87.4472 354.472 87.4472Z" fill="#A0616A"/>
<path d="M356.719 21.456C355.905 21.9315 354.813 21.2121 354.552 20.3059C354.291 19.3997 354.595 18.4375 354.897 17.5439L356.416 13.0456C357.494 9.85533 358.637 6.55355 360.97 4.12533C364.492 0.460305 370.089 -0.472058 375.128 0.203406C381.598 1.07084 387.983 4.5736 390.991 10.3659C394 16.1581 392.719 24.2404 387.283 27.8542C395.03 36.7323 397.731 46.6265 397.305 58.4009C396.878 70.1753 384.044 81.0116 375.674 89.3062C373.805 88.1734 372.105 82.8649 373.133 80.9364C374.161 79.0079 372.689 76.7737 373.961 74.9974C375.234 73.2211 376.299 76.0495 375.012 74.2833C374.2 73.1687 377.37 70.6047 376.163 69.9376C370.324 66.7111 368.382 59.4355 364.715 53.864C360.292 47.1437 352.722 42.5927 344.711 41.8377C340.298 41.4218 335.637 42.1751 332.02 44.7364C328.402 47.2978 326.061 51.8749 326.899 56.2263C324.727 54.0211 323.646 50.7895 324.054 47.7214C324.461 44.6533 326.35 41.8162 329.023 40.2549C327.397 34.8814 328.79 28.7003 332.562 24.5421C336.335 20.3839 351.638 21.0922 357.145 22.1865L356.719 21.456Z" fill="#2F2E41"/>
<path d="M357.574 42.001C364.869 42.7882 370.136 49.1053 374.583 54.9391C377.146 58.3015 379.832 62.0148 379.767 66.242C379.702 70.5159 376.844 74.1817 375.478 78.232C373.245 84.8523 375.421 92.7291 380.736 97.2653C375.484 98.2616 369.807 94.3248 368.9 89.0581C367.845 82.927 372.494 77.0095 371.943 70.8127C371.458 65.3532 367.155 61.1514 363.496 57.0694C359.838 52.9873 356.402 47.5705 358.085 42.3542L357.574 42.001Z" fill="#2F2E41"/>
<path d="M466.628 228.543C459.402 232.652 455.666 239.709 458.282 244.306C460.898 248.902 468.875 249.297 476.103 245.186C479.012 243.583 481.496 241.308 483.345 238.549L513.739 220.754L505.082 206.673L476.038 225.71C472.72 225.89 469.493 226.861 466.628 228.543Z" fill="#FFB6B6"/>
<path d="M569.536 98.0539C568.627 97.694 560.658 94.6767 553.382 98.6604C545.024 103.237 543.733 113.683 543.28 117.347C542.234 125.811 545.316 127.708 545.966 136.276C547.183 152.307 550.392 134.019 545.267 141.337C543.494 143.869 525.377 183.12 515.386 190.808C495.954 205.761 483.615 216.291 483.615 216.291L497.702 231.589C497.702 231.589 519.962 225.66 539.636 212.888C559.818 199.787 569.909 193.236 577.716 180.422C578.388 179.318 594.475 152.008 585.835 121.809C583.865 114.921 580.254 102.3 569.536 98.0539Z" fill="#2DB2C4"/>
<path d="M642.277 174.319L641.018 233.071C640.896 238.759 636.25 243.306 630.559 243.306H522.453C516.898 243.306 512.311 238.964 512.008 233.418L508.795 174.666C508.468 168.675 513.239 163.637 519.241 163.637H631.819C637.684 163.637 642.403 168.457 642.277 174.319Z" fill="#3F3D56"/>
</svg>
