<svg width="467" height="234" viewBox="0 0 467 234" fill="none" xmlns="http://www.w3.org/2000/svg">
<g clip-path="url(#clip0_538_2985)">
<path d="M153.792 234C139.701 234 125.631 233.748 111.582 233.243C91.5069 232.523 70.7487 231.778 51.4547 221.082C37.9578 213.6 26.0041 201.596 16.8864 186.367C10.7923 176.045 6.32382 164.847 3.63794 153.166C-1.37226 131.899 -1.2016 109.741 4.13555 88.5541C6.00589 81.29 8.58429 74.2266 11.8337 67.4654C25.904 38.3417 51.5672 18.7916 82.2433 13.8286C82.4966 13.7958 82.7528 13.7903 83.0073 13.8123C83.1453 13.8197 83.2828 13.8276 83.423 13.8218L83.6035 13.7644C84.0661 13.6037 84.5414 13.4818 85.0243 13.3999C132.335 6.35991 182.349 20.6043 229.656 54.5922C266.234 80.8751 314.71 95.028 377.854 97.8597L378.75 97.9067C396.328 98.916 413.331 106.16 427.923 118.856C442.326 131.387 453.14 148.105 459.196 167.205C459.941 169.533 460.623 171.957 461.225 174.409C461.785 176.687 461.745 179.071 461.11 181.33C460.475 183.588 459.266 185.644 457.6 187.297V187.301L457.443 187.463C457.064 187.839 456.666 188.2 456.259 188.536L455.78 188.931C451.744 192.253 448.557 194.878 444.743 196.917C442.199 198.267 439.493 199.288 436.691 199.955C421.303 203.705 405.677 207.182 390.246 210.289C360.278 216.329 329.521 221.311 298.828 225.097C250.711 231.027 202.274 234.001 153.792 234ZM82.6486 14.8438C82.5543 14.8429 82.4601 14.8493 82.3669 14.8629C51.9776 19.7796 26.5573 39.1376 12.6266 67.9731C9.40918 74.6673 6.8563 81.6606 5.00455 88.8528C-0.283971 109.852 -0.452502 131.813 4.51313 152.891C7.17272 164.46 11.5979 175.551 17.6332 185.775C26.6616 200.854 38.493 212.738 51.8485 220.141C70.9693 230.741 91.6296 231.483 111.61 232.199C174.101 234.431 236.671 231.709 298.731 224.059C329.404 220.275 360.142 215.296 390.09 209.26C405.51 206.155 421.126 202.681 436.503 198.934C439.237 198.283 441.878 197.287 444.361 195.969C448.098 193.972 451.255 191.372 455.252 188.081L455.731 187.687C456.081 187.398 456.424 187.089 456.753 186.768L456.848 186.669C460.132 183.361 461.409 178.995 460.352 174.693V174.692C459.757 172.267 459.081 169.869 458.344 167.564C445.973 128.547 413.969 100.974 378.707 98.9496L377.815 98.9027C348.972 97.609 323.732 94.0253 300.656 87.946C273.108 80.689 249.059 69.7649 229.176 55.4777C182.049 21.62 132.244 7.42861 85.1399 14.4352C84.6999 14.5111 84.2669 14.6233 83.8455 14.7707L83.5202 14.8617C83.3354 14.8699 83.1502 14.8677 82.9657 14.855C82.8569 14.8494 82.7515 14.8438 82.6485 14.8438H82.6486Z" fill="#F0F0F0"/>
<path d="M145.872 76.2401C144.567 74.9891 143.233 68.0127 141.567 67.3044C142.812 70.0546 141.908 70.7827 141.902 73.801C141.917 75.5148 141.717 77.2238 141.306 78.8877H113.093V56.8795C113.093 54.902 113.483 52.9439 114.24 51.1169C114.997 49.2899 116.106 47.6299 117.505 46.2316C118.904 44.8333 120.565 43.7241 122.393 42.9674C124.221 42.2107 126.18 41.8212 128.158 41.8213C128.913 41.836 129.663 41.9458 130.391 42.148C132.816 42.8025 135.026 44.0828 136.8 45.8605C138.573 47.6383 139.848 49.851 140.496 52.2767C142.647 60.1346 146.068 73.2146 145.872 76.2401Z" fill="#2F2E41"/>
<path d="M114.748 103.314L114.762 86.1602L104.674 87.0612L108.235 97.8803L106.568 125.074C105.76 125.256 105.022 125.668 104.444 126.261C103.867 126.854 103.474 127.603 103.315 128.415C103.155 129.228 103.236 130.069 103.546 130.836C103.857 131.604 104.384 132.264 105.063 132.738C105.743 133.211 106.546 133.476 107.374 133.501C108.201 133.526 109.019 133.31 109.726 132.879C110.433 132.447 110.999 131.82 111.355 131.073C111.712 130.325 111.843 129.491 111.733 128.67L114.748 103.314Z" fill="#FFB6B6"/>
<path d="M134.602 225.898L138.677 225.897L140.616 210.184H134.601L134.602 225.898Z" fill="#FFB6B6"/>
<path d="M133.221 223.888L139.664 223.503V226.263L145.789 230.491C146.092 230.7 146.32 231 146.44 231.347C146.56 231.695 146.565 232.071 146.456 232.422C146.346 232.773 146.128 233.08 145.831 233.297C145.535 233.515 145.177 233.633 144.81 233.633H137.139L135.817 230.903L135.301 233.633H132.409L133.221 223.888Z" fill="#2F2E41"/>
<path d="M111.036 225.898L115.112 225.897L117.05 210.184H111.035L111.036 225.898Z" fill="#FFB6B6"/>
<path d="M109.656 223.888L116.098 223.503V226.263L122.224 230.491C122.526 230.7 122.754 231 122.874 231.347C122.994 231.695 123 232.071 122.89 232.422C122.781 232.773 122.562 233.08 122.266 233.297C121.97 233.515 121.612 233.633 121.244 233.633H113.574L112.251 230.903L111.735 233.633H108.843L109.656 223.888Z" fill="#2F2E41"/>
<path d="M130.972 67.6353L122.529 67.8007L116.57 74.0888L111.792 74.7892C109.63 75.1061 107.643 76.1549 106.162 77.7603C104.682 79.3657 103.797 81.4305 103.657 83.6094L104.484 88.1541H109.451L112.324 105.016C111.207 107.861 111.131 110.107 113.424 110.99L120.543 124.393L141.567 114.961C142.634 113.129 142.975 111.288 141.885 109.499L143.388 83.6863H148.442C148.442 78.8586 146.809 74.7886 142.009 74.2514C140.102 74.0452 138.187 73.9357 136.27 73.9233L130.972 67.6353Z" fill="#E6E6E6"/>
<path d="M141.567 114.961C141.567 114.961 121.039 118.602 113.424 110.99C113.424 110.99 112.651 112.302 111.486 114.477C111.151 115.103 110.504 115.527 110.113 116.285C109.758 116.974 108.844 117.821 108.458 118.602C108.146 119.23 108.646 120.052 108.322 120.731C104.422 128.907 99.8655 140.44 100.842 148.056C101.472 152.967 102.773 164.395 104.144 176.67C104.251 177.629 103.383 178.861 103.491 179.827C103.593 180.739 104.669 181.385 104.77 182.298C104.838 182.905 104.086 183.524 104.153 184.13C104.227 184.794 105.12 185.446 105.193 186.108C107.07 203.056 108.789 218.879 108.789 218.879H118.391L120.202 182.741L118.722 169.568L122.198 142.926L126.999 168.244L127.617 182.493L132.69 219.541H141.567V183.676L142.23 181.813L141.567 179.423L142.23 176.849L141.567 174.045V114.961Z" fill="#2F2E41"/>
<path d="M133.564 62.7412C132.256 64.4778 130.395 65.7174 128.288 66.2558C126.182 66.7942 123.954 66.5994 121.973 65.7035C119.992 64.8075 118.375 63.2638 117.388 61.3266C116.402 59.3895 116.105 57.1743 116.547 55.0459C116.988 52.9176 118.142 51.0029 119.817 49.6174C121.493 48.2318 123.59 47.4579 125.765 47.4231C127.939 47.3883 130.06 48.0947 131.779 49.426C133.498 50.7573 134.712 52.634 135.222 54.7472C135.249 54.8618 135.273 54.9759 135.295 55.0942C135.564 56.4187 135.549 57.7852 135.25 59.1034C134.952 60.4217 134.377 61.6616 133.564 62.7412Z" fill="#FFB6B6"/>
<path d="M131.568 57.2834C131.365 56.2649 130.852 55.3342 130.098 54.6192C130.173 55.5952 130.037 56.5758 129.701 57.4952C127.184 57.718 124.655 57.2174 122.413 56.0523C120.725 54.9072 118.576 55.0064 116.073 56.0523C116.073 54.8353 116.312 53.6302 116.778 52.5059C117.244 51.3816 117.927 50.36 118.788 49.4994C119.649 48.6389 120.671 47.9564 121.796 47.4907C122.921 47.0251 124.126 46.7855 125.344 46.7856H126.999C129.458 46.7861 131.816 47.7625 133.554 49.5003C135.293 51.238 136.269 53.5947 136.27 56.0523C134.742 56.6 133.169 57.012 131.568 57.2834Z" fill="#2F2E41"/>
<path d="M59.1416 175.39C73.8509 175.39 85.7751 163.471 85.7751 148.768C85.7751 134.065 73.8509 122.146 59.1416 122.146C44.4323 122.146 32.5081 134.065 32.5081 148.768C32.5081 163.471 44.4323 175.39 59.1416 175.39Z" fill="#F0F0F0"/>
<path d="M228.865 53.2432C243.574 53.2432 255.498 41.3243 255.498 26.6216C255.498 11.9189 243.574 0 228.865 0C214.156 0 202.231 11.9189 202.231 26.6216C202.231 41.3243 214.156 53.2432 228.865 53.2432Z" fill="#F0F0F0"/>
<path d="M440.366 179.566C455.076 179.566 467 167.647 467 152.944C467 138.241 455.076 126.322 440.366 126.322C425.657 126.322 413.733 138.241 413.733 152.944C413.733 167.647 425.657 179.566 440.366 179.566Z" fill="#F0F0F0"/>
<path d="M276.91 29.525V89.8914C276.91 91.1453 276.415 92.3486 275.533 93.2399C274.65 94.1312 273.452 94.6385 272.198 94.6516C272.18 94.6534 272.163 94.6542 272.145 94.6538H265.116C259.492 94.6538 254.098 92.4206 250.122 88.4455C246.145 84.4705 243.911 79.0791 243.911 73.4575V29.525C243.911 28.262 244.412 27.0507 245.306 26.1576C246.2 25.2644 247.411 24.7627 248.675 24.7627H251.523C250.204 28.6101 268.112 30.2299 269.095 24.7627H272.145C273.409 24.7627 274.621 25.2645 275.514 26.1576C276.408 27.0507 276.91 28.262 276.91 29.525Z" fill="#2DB2C4"/>
<path d="M256.051 20.2486C256.051 20.0832 256.117 19.9245 256.234 19.8075C256.351 19.6905 256.509 19.6247 256.675 19.6245H260.921C261.086 19.625 261.245 19.691 261.361 19.8079C261.478 19.9249 261.543 20.0834 261.543 20.2486C261.543 20.4138 261.478 20.5723 261.361 20.6893C261.245 20.8063 261.086 20.8723 260.921 20.8728H256.675C256.509 20.8726 256.351 20.8068 256.234 20.6897C256.117 20.5727 256.051 20.4141 256.051 20.2486Z" fill="#3F3D56"/>
<path d="M273.604 102.311H246.753C244.67 102.308 242.673 101.48 241.2 100.008C239.727 98.5355 238.898 96.5392 238.896 94.4569V52.2584C238.748 52.1526 238.628 52.0131 238.545 51.8516C238.463 51.6902 238.42 51.5113 238.42 51.3299V47.0859C238.42 46.9045 238.463 46.7256 238.545 46.5642C238.628 46.4028 238.748 46.2634 238.896 46.1576V45.0185C238.748 44.9128 238.628 44.7734 238.545 44.6119C238.463 44.4505 238.42 44.2717 238.42 44.0903V39.846C238.42 39.6646 238.463 39.4858 238.545 39.3244C238.628 39.1629 238.748 39.0235 238.896 38.9178V36.8591C238.714 36.7614 238.562 36.616 238.456 36.4386C238.35 36.2612 238.294 36.0584 238.295 35.8518V31.6078C238.294 31.4012 238.35 31.1984 238.456 31.0209C238.562 30.8435 238.714 30.6981 238.896 30.6003V24.9593C238.898 22.877 239.727 20.8807 241.2 19.4084C242.673 17.936 244.67 17.1078 246.753 17.1055H273.604C275.687 17.1078 277.684 17.936 279.157 19.4084C280.63 20.8808 281.459 22.8771 281.461 24.9593V37.2554C281.603 37.3439 281.72 37.4669 281.801 37.6128C281.881 37.7587 281.924 37.9228 281.924 38.0896V46.1821C281.924 46.3489 281.881 46.5131 281.801 46.659C281.72 46.805 281.603 46.928 281.461 47.0165V94.4569C281.459 96.5392 280.63 98.5355 279.157 100.008C277.684 101.48 275.687 102.308 273.604 102.311ZM246.753 18.1495C244.947 18.1515 243.215 18.8696 241.938 20.1462C240.661 21.4229 239.942 23.1538 239.94 24.9593V31.4883L239.438 31.5077C239.412 31.5086 239.387 31.5195 239.369 31.5381C239.35 31.5568 239.34 31.5817 239.339 31.6078V35.8518C239.34 35.8779 239.35 35.9028 239.369 35.9214C239.387 35.94 239.412 35.951 239.438 35.952L239.94 35.9711V39.6508L239.543 39.7486C239.521 39.7539 239.501 39.7664 239.487 39.784C239.473 39.8016 239.465 39.8234 239.464 39.846V44.0903C239.465 44.1129 239.473 44.1347 239.487 44.1523C239.501 44.1699 239.521 44.1823 239.543 44.1876L239.94 44.2855V46.8906L239.543 46.9885C239.521 46.9938 239.501 47.0062 239.487 47.0238C239.473 47.0414 239.465 47.0632 239.464 47.0859V51.3299C239.465 51.3525 239.473 51.3744 239.487 51.392C239.501 51.4097 239.521 51.4221 239.543 51.4275L239.94 51.5253V94.4569C239.942 96.2624 240.661 97.9934 241.938 99.27C243.215 100.547 244.947 101.265 246.753 101.267H273.604C275.41 101.265 277.142 100.547 278.419 99.27C279.696 97.9933 280.415 96.2624 280.417 94.4569V46.1227H280.88V38.1493H280.417V24.9593C280.415 23.1538 279.696 21.4229 278.419 20.1463C277.142 18.8696 275.41 18.1515 273.604 18.1494L246.753 18.1495Z" fill="#3F3D56"/>
<path d="M263.294 20.8728C263.638 20.8728 263.918 20.5933 263.918 20.2486C263.918 19.9039 263.638 19.6245 263.294 19.6245C262.949 19.6245 262.669 19.9039 262.669 20.2486C262.669 20.5933 262.949 20.8728 263.294 20.8728Z" fill="#3F3D56"/>
<path d="M127.465 141.148H57.5978C56.6057 141.146 55.6548 140.751 54.9532 140.049C54.2516 139.348 53.8562 138.398 53.8535 137.406V103.378C53.8561 102.386 54.2513 101.436 54.9528 100.734C55.6544 100.033 56.6051 99.6379 57.5973 99.6353H127.464C128.457 99.6378 129.407 100.033 130.109 100.734C130.811 101.435 131.206 102.386 131.209 103.377V137.406C131.206 138.397 130.811 139.348 130.109 140.049C129.408 140.75 128.457 141.146 127.465 141.148Z" fill="white"/>
<path d="M127.465 141.148H57.5978C56.6057 141.146 55.6548 140.751 54.9532 140.049C54.2516 139.348 53.8562 138.398 53.8535 137.406V103.378C53.8561 102.386 54.2513 101.436 54.9528 100.734C55.6544 100.033 56.6051 99.6379 57.5973 99.6353H127.464C128.457 99.6378 129.407 100.033 130.109 100.734C130.811 101.435 131.206 102.386 131.209 103.377V137.406C131.206 138.397 130.811 139.348 130.109 140.049C129.408 140.75 128.457 141.146 127.465 141.148ZM57.5978 100.679C56.8823 100.681 56.1968 100.966 55.6909 101.472C55.185 101.978 54.8999 102.663 54.898 103.378V137.406C54.9 138.121 55.1852 138.806 55.6912 139.312C56.1972 139.817 56.8828 140.102 57.5983 140.104H127.464C128.179 140.102 128.865 139.817 129.371 139.311C129.877 138.806 130.162 138.12 130.164 137.405V103.378C130.162 102.663 129.877 101.977 129.371 101.472C128.865 100.966 128.179 100.681 127.464 100.679L57.5978 100.679Z" fill="#3F3D56"/>
<path d="M96.2759 136.119C82.4966 136.119 68.1286 135.988 62.7677 135.902C62.0624 135.888 61.3907 135.598 60.896 135.095C60.4014 134.593 60.123 133.917 60.1202 133.211V105.044C60.1205 104.791 60.2208 104.549 60.3992 104.37C60.5776 104.192 60.8196 104.091 61.0723 104.09H123.988C124.24 104.09 124.483 104.19 124.661 104.369C124.84 104.547 124.941 104.789 124.942 105.041V124.152C124.93 127.272 123.696 130.263 121.503 132.483C119.311 134.703 116.335 135.976 113.214 136.029C108.218 136.094 102.302 136.119 96.2759 136.119Z" fill="#2DB2C4"/>
<path d="M120.253 122.397H63.4041C62.9281 122.395 62.464 122.247 62.0749 121.973C61.6859 121.699 61.3907 121.312 61.2295 120.864L54.795 102.821C54.671 102.473 54.6324 102.1 54.6823 101.734C54.7323 101.368 54.8694 101.019 55.0821 100.717C55.2948 100.415 55.577 100.169 55.9048 99.9981C56.2327 99.8276 56.5967 99.7383 56.9663 99.7376L128.027 99.6387C128.365 99.6383 128.698 99.712 129.004 99.8546C129.311 99.9972 129.582 100.205 129.799 100.464C130.016 100.723 130.174 101.026 130.261 101.352C130.348 101.678 130.362 102.019 130.303 102.352L130.358 102.375L130.154 102.851L130.152 102.856L122.374 120.998C122.196 121.413 121.901 121.767 121.524 122.016C121.147 122.265 120.705 122.397 120.253 122.397ZM128.03 100.683L56.9683 100.782C56.7659 100.782 56.5664 100.831 56.3868 100.924C56.2072 101.018 56.0526 101.153 55.9361 101.318C55.8196 101.484 55.7444 101.675 55.7171 101.875C55.6897 102.076 55.7108 102.28 55.7788 102.47L62.213 120.513C62.3015 120.758 62.4633 120.97 62.6765 121.121C62.8897 121.271 63.144 121.352 63.4048 121.353H120.253C120.5 121.353 120.742 121.28 120.949 121.144C121.155 121.008 121.317 120.814 121.413 120.587L129.192 102.444L129.575 102.608L129.192 102.444C129.275 102.252 129.308 102.042 129.29 101.834C129.271 101.626 129.201 101.425 129.086 101.251C128.971 101.076 128.814 100.933 128.63 100.834C128.445 100.735 128.239 100.683 128.03 100.683Z" fill="#3F3D56"/>
<path d="M92.4251 126.324C94.8836 126.324 96.8766 124.332 96.8766 121.875C96.8766 119.417 94.8836 117.425 92.4251 117.425C89.9666 117.425 87.9736 119.417 87.9736 121.875C87.9736 124.332 89.9666 126.324 92.4251 126.324Z" fill="white"/>
<path d="M260.582 87.6968C263.04 87.6968 265.033 85.7047 265.033 83.2473C265.033 80.7899 263.04 78.7979 260.582 78.7979C258.123 78.7979 256.13 80.7899 256.13 83.2473C256.13 85.7047 258.123 87.6968 260.582 87.6968Z" fill="white"/>
<path d="M428.945 147.787L417.054 136.052C416.475 135.476 415.789 135.021 415.033 134.711C414.278 134.401 413.468 134.243 412.652 134.246H412.61C411.787 134.249 410.973 134.414 410.215 134.733C409.457 135.052 408.769 135.518 408.192 136.104C405.533 138.794 404.021 142.409 403.973 146.19C403.926 149.971 405.346 153.623 407.936 156.379C408.062 156.514 408.192 156.645 408.323 156.775C409.046 157.494 409.844 158.133 410.704 158.681C413.055 160.199 415.796 161.002 418.595 160.993H418.684C420.605 160.986 422.505 160.599 424.276 159.854C426.046 159.108 427.651 158.019 428.998 156.65C430.164 155.467 430.814 153.869 430.804 152.208C430.795 150.546 430.126 148.956 428.945 147.787ZM428.256 155.914C426.048 158.137 423.141 159.532 420.025 159.863C416.909 160.193 413.774 159.44 411.148 157.731C410.397 157.234 409.696 156.666 409.054 156.034C406.492 153.505 405.039 150.062 405.017 146.462C404.994 142.863 406.403 139.402 408.934 136.84C409.415 136.351 409.988 135.961 410.621 135.695C411.254 135.429 411.934 135.291 412.621 135.29H412.652C413.332 135.288 414.006 135.419 414.635 135.677C415.264 135.935 415.836 136.314 416.318 136.793L428.209 148.533C429.193 149.506 429.751 150.83 429.76 152.214C429.769 153.598 429.228 154.928 428.256 155.914Z" fill="#3F3D56"/>
<path d="M389.93 109.274L378.039 97.5341C376.868 96.3734 375.285 95.7239 373.636 95.728H373.6C372.776 95.7314 371.961 95.8977 371.202 96.2176C370.443 96.5374 369.754 97.0044 369.177 97.5915C366.979 99.8229 365.553 102.699 365.11 105.799C364.666 108.899 365.228 112.06 366.712 114.817L366.717 114.822C367.329 115.95 368.09 116.992 368.978 117.918C369.077 118.033 369.192 118.148 369.307 118.262C372.038 120.972 375.732 122.488 379.579 122.48H379.673C381.595 122.472 383.495 122.084 385.266 121.337C387.036 120.591 388.641 119.502 389.987 118.132C390.566 117.547 391.023 116.853 391.333 116.091C391.643 115.329 391.8 114.514 391.794 113.691C391.789 112.868 391.621 112.055 391.302 111.297C390.982 110.539 390.516 109.852 389.93 109.274V109.274ZM389.241 117.401C387.991 118.672 386.501 119.683 384.858 120.376C383.215 121.068 381.451 121.429 379.668 121.436H379.579C376.902 121.435 374.284 120.643 372.055 119.159C369.827 117.674 368.087 115.565 367.055 113.095C366.023 110.625 365.745 107.905 366.255 105.278C366.766 102.65 368.042 100.232 369.923 98.3276C370.897 97.3437 372.221 96.7862 373.606 96.7774C374.99 96.7685 376.322 97.3092 377.308 98.2806L389.199 110.015C390.183 110.99 390.739 112.315 390.747 113.699C390.755 115.084 390.213 116.415 389.241 117.401L389.241 117.401Z" fill="#3F3D56"/>
<path d="M429.705 151.476L416.596 138.534C415.736 137.687 414.576 137.216 413.369 137.223C412.162 137.231 411.007 137.716 410.158 138.574C409.096 139.646 408.256 140.918 407.686 142.315C407.115 143.712 406.826 145.208 406.835 146.717C406.843 148.227 407.149 149.719 407.735 151.11C408.321 152.501 409.176 153.763 410.25 154.823C411.324 155.884 412.597 156.722 413.996 157.291C415.394 157.859 416.891 158.146 418.401 158.136C419.911 158.126 421.404 157.818 422.795 157.231C424.186 156.644 425.447 155.788 426.507 154.713L429.705 151.476Z" fill="#2DB2C4"/>
<path d="M390.692 112.961L377.583 100.019C376.723 99.1724 375.563 98.7011 374.356 98.7086C373.149 98.7161 371.994 99.2018 371.145 100.059C370.083 101.132 369.243 102.403 368.672 103.8C368.102 105.198 367.813 106.694 367.821 108.203C367.83 109.712 368.136 111.205 368.722 112.595C369.308 113.986 370.163 115.248 371.237 116.309C372.311 117.369 373.584 118.207 374.983 118.776C376.381 119.344 377.878 119.632 379.388 119.622C380.898 119.611 382.391 119.304 383.782 118.716C385.172 118.129 386.434 117.274 387.493 116.199L390.692 112.961Z" fill="#2DB2C4"/>
<path d="M415.3 159.537L414.986 160.361C413.514 159.803 412.086 159.243 410.704 158.68C386.222 148.695 374.535 137.007 366.717 114.823L366.712 114.817C366.341 113.773 365.981 112.705 365.631 111.612L366.456 111.346C366.732 112.397 367.135 113.41 367.657 114.363C368.085 115.58 368.526 116.764 368.978 117.918C376.326 136.642 387.162 147.343 407.936 156.378C408.981 156.833 410.051 157.283 411.148 157.73C412.421 158.56 413.825 159.17 415.3 159.537Z" fill="#3F3D56"/>
<path d="M377.821 121.53L377.087 122.273L404.21 149.05L404.944 148.307L377.821 121.53Z" fill="#3F3D56"/>
<path d="M148.189 99.3431L148.203 82.189L138.115 83.0901L141.675 93.9091L128.752 113.491C127.944 113.672 127.206 114.085 126.628 114.678C126.05 115.271 125.658 116.02 125.498 116.832C125.339 117.644 125.419 118.486 125.73 119.253C126.04 120.021 126.567 120.681 127.247 121.154C127.927 121.628 128.729 121.893 129.557 121.918C130.385 121.943 131.202 121.727 131.909 121.296C132.616 120.864 133.183 120.237 133.539 119.49C133.895 118.742 134.027 117.908 133.917 117.087L148.189 99.3431Z" fill="#FFB6B6"/>
</g>
<defs>
<clipPath id="clip0_538_2985">
<rect width="467" height="234" fill="white"/>
</clipPath>
</defs>
</svg>
