<svg width="396" height="478" viewBox="0 0 396 478" fill="none" xmlns="http://www.w3.org/2000/svg">
<g clip-path="url(#clip0_492_1379)">
<path d="M2.83011 228.621C4.28515 231.056 6.2553 233.141 8.60177 234.731C10.9482 236.32 13.614 237.374 16.4112 237.82C19.2084 238.265 22.0691 238.091 24.7917 237.308C27.5143 236.526 30.0327 235.156 32.1693 233.293L91.8918 267.612L89.666 231.835L33.2938 204.73C29.9325 201.341 25.4472 199.305 20.6879 199.008C15.9286 198.711 11.2258 200.173 7.47076 203.118C3.71572 206.063 1.16928 210.286 0.313981 214.986C-0.541319 219.687 0.353941 224.538 2.83011 228.621Z" fill="#FFB8B8"/>
<path d="M175.733 366.103C158.017 390.947 158.651 432.51 163.594 478H247.354L250.996 469.486L255.851 478H334.756C334.756 478 328.686 362.455 317.761 358.806C306.836 355.157 175.733 366.103 175.733 366.103Z" fill="#2F2E41"/>
<path d="M247.354 106.543C270.819 106.543 289.841 87.484 289.841 63.9736C289.841 40.4632 270.819 21.4043 247.354 21.4043C223.889 21.4043 204.867 40.4632 204.867 63.9736C204.867 87.484 223.889 106.543 247.354 106.543Z" fill="#FFB8B8"/>
<path d="M278.062 117.588L286.37 133.543L343.838 159.211L328.732 305.68L322.374 320.848L325.809 334.02L317.528 343.741C325.841 351.277 326.897 359.167 322.374 367.327L295.91 373.401C295.91 373.401 148.765 386.511 161.166 363.671C174.715 338.715 178.166 265.014 148.254 225.629C122.859 192.193 142.355 148.805 142.355 148.805L202.592 130.769L224.749 117.588L278.062 117.588Z" fill="#3F3D56"/>
<path d="M266.216 1.61646C266.416 1.1932 266.737 0.839406 267.139 0.600497C267.541 0.361587 268.005 0.248473 268.471 0.275686C249.02 -0.890091 228.532 1.38141 212.259 12.1212C208.316 14.7231 204.599 17.8265 200.309 19.714C200.107 19.8052 199.931 19.9473 199.8 20.1265C199.668 20.3056 199.585 20.5159 199.559 20.7367C199.532 20.9575 199.563 21.1814 199.649 21.3867C199.734 21.592 199.871 21.7717 200.046 21.9082L200.517 22.2785C200.703 22.4245 200.846 22.6189 200.929 22.8404C201.012 23.0619 201.034 23.302 200.99 23.5347C200.947 23.7674 200.841 23.9837 200.683 24.1602C200.526 24.3366 200.323 24.4664 200.097 24.5354C199.861 24.6073 199.651 24.7452 199.491 24.9329C199.331 25.1205 199.228 25.35 199.194 25.5944C199.16 25.8387 199.196 26.0878 199.299 26.3122C199.401 26.5366 199.566 26.7269 199.772 26.8609L203.383 29.1992C203.565 29.3149 203.715 29.4745 203.819 29.6634C203.924 29.8522 203.979 30.0643 203.98 30.2802C203.981 30.496 203.928 30.7087 203.826 30.8987C203.724 31.0887 203.576 31.2499 203.395 31.3676C203.089 31.5569 202.768 31.72 202.435 31.8554C202.228 31.9334 202.044 32.0636 201.901 32.2335C201.759 32.4033 201.662 32.6071 201.621 32.8251C201.58 33.0431 201.596 33.2681 201.667 33.4782C201.738 33.6884 201.862 33.8767 202.026 34.0251C203.59 35.4198 204.79 37.1766 205.52 39.1423C206.724 42.2778 206.94 45.6926 207.143 49.0457C208.387 44.2075 213.657 41.3595 218.635 41.0701C223.613 40.7807 228.468 42.4264 233.313 43.6094C243.865 46.1786 254.824 46.601 265.542 44.8517C261.902 52.1695 264.972 60.8982 268.062 68.4658L278.062 64.1712C291.796 56.4037 282.229 89.2616 277.095 93.7724C287.579 97.414 315.018 56.9956 306.191 41.664C301.599 33.6887 304.859 23.4025 295.831 15.8385C291.406 11.1717 282.573 13.2459 278.062 9.3673C276.287 7.84073 278.993 3.75662 276.553 2.86655C275.742 2.57092 266.35 1.3185 266.216 1.61646Z" fill="#2F2E41"/>
<path d="M194.25 134.889C186.454 169.568 166.458 250.539 146.171 267.473C144.885 268.69 143.342 269.603 141.657 270.144C70.3485 287.549 47.5 243.151 47.5 243.151C47.5 243.151 66.6097 233.821 67.0944 215.583L105.632 227.563L139.227 151.816L144.17 147.196L144.198 147.168L194.25 134.889Z" fill="#3F3D56"/>
<path d="M346.291 455.133C348.333 453.167 349.92 450.775 350.939 448.128C351.959 445.48 352.387 442.641 352.193 439.81C351.999 436.979 351.188 434.225 349.817 431.742C348.446 429.259 346.548 427.107 344.257 425.438L364.247 359.429L329.948 369.624L316.223 430.745C313.68 434.786 312.706 439.623 313.484 444.336C314.262 449.05 316.739 453.314 320.445 456.32C324.152 459.326 328.83 460.866 333.593 460.647C338.357 460.429 342.875 458.467 346.291 455.133Z" fill="#FFB8B8"/>
<path d="M327.995 155.518L343.839 159.211C343.839 159.211 409.327 286.875 393.546 311.2C377.765 335.526 358.432 416.06 358.432 416.06C358.432 416.06 329.838 410.365 318.913 395.77L338.92 300.254L318.283 219.98L327.995 155.518Z" fill="#3F3D56"/>
<path d="M27.4043 345.095L27.9733 139.484C27.9895 135.323 29.6526 131.337 32.5977 128.403C35.5428 125.468 39.5295 123.824 43.683 123.831L198.665 124.262C202.818 124.278 206.796 125.944 209.725 128.895C212.653 131.846 214.294 135.84 214.288 140.002L213.719 345.613C213.702 349.774 212.039 353.759 209.094 356.694C206.149 359.628 202.163 361.273 198.009 361.266L43.0272 360.835C38.8737 360.819 34.8962 359.153 31.9674 356.202C29.0385 353.251 27.3975 349.257 27.4043 345.095Z" fill="#E6E6E6"/>
<path d="M39.4649 283.025L39.8307 150.84C39.8458 146.942 41.4033 143.21 44.1615 140.462C46.9197 137.714 50.6534 136.174 54.5433 136.18L187.737 136.55C191.627 136.565 195.352 138.126 198.095 140.889C200.838 143.653 202.375 147.394 202.369 151.291L201.863 334.257C201.848 338.155 200.29 341.887 197.532 344.635C194.773 347.383 191.04 348.923 187.15 348.917L104.639 348.688C87.3117 348.62 70.7189 341.669 58.5007 329.359C46.2824 317.049 39.4365 300.386 39.4649 283.025Z" fill="white"/>
<path d="M172.475 194.244H68.6181C66.9655 194.244 65.3805 193.586 64.2119 192.415C63.0432 191.244 62.3867 189.656 62.3867 188C62.3867 186.344 63.0432 184.756 64.2119 183.586C65.3805 182.415 66.9655 181.757 68.6181 181.757H172.475C174.128 181.757 175.713 182.415 176.881 183.586C178.05 184.756 178.707 186.344 178.707 188C178.707 189.656 178.05 191.244 176.881 192.415C175.713 193.586 174.128 194.244 172.475 194.244Z" fill="#2DB2C4"/>
<path d="M91.4667 165.454H68.6181C66.9655 165.454 65.3805 164.796 64.2119 163.626C63.0432 162.455 62.3867 160.867 62.3867 159.211C62.3867 157.555 63.0432 155.967 64.2119 154.796C65.3805 153.625 66.9655 152.967 68.6181 152.967H91.4667C93.1194 152.967 94.7043 153.625 95.873 154.796C97.0416 155.967 97.6981 157.555 97.6981 159.211C97.6981 160.867 97.0416 162.455 95.873 163.626C94.7043 164.796 93.1194 165.454 91.4667 165.454Z" fill="#2DB2C4"/>
<path d="M172.475 223.033H68.6181C66.9655 223.033 65.3805 222.376 64.2119 221.205C63.0432 220.034 62.3867 218.446 62.3867 216.79C62.3867 215.134 63.0432 213.546 64.2119 212.375C65.3805 211.204 66.9655 210.546 68.6181 210.546H172.475C174.128 210.546 175.713 211.204 176.881 212.375C178.05 213.546 178.707 215.134 178.707 216.79C178.707 218.446 178.05 220.034 176.881 221.205C175.713 222.376 174.128 223.033 172.475 223.033Z" fill="#2DB2C4"/>
<path d="M172.475 251.822H68.6181C66.9655 251.822 65.3805 251.165 64.2119 249.994C63.0432 248.823 62.3867 247.235 62.3867 245.579C62.3867 243.923 63.0432 242.335 64.2119 241.164C65.3805 239.993 66.9655 239.335 68.6181 239.335H172.475C174.128 239.335 175.713 239.993 176.881 241.164C178.05 242.335 178.707 243.923 178.707 245.579C178.707 247.235 178.05 248.823 176.881 249.994C175.713 251.165 174.128 251.822 172.475 251.822Z" fill="#2DB2C4"/>
<path d="M164.07 327.682C177.764 327.682 188.865 316.559 188.865 302.839C188.865 289.119 177.764 277.996 164.07 277.996C150.376 277.996 139.275 289.119 139.275 302.839C139.275 316.559 150.376 327.682 164.07 327.682Z" fill="#2DB2C4"/>
<path d="M160.688 315.768C160.26 315.768 159.838 315.668 159.455 315.476C159.072 315.284 158.739 315.006 158.482 314.662L151.718 305.626C151.5 305.335 151.341 305.005 151.251 304.653C151.161 304.301 151.141 303.935 151.192 303.576C151.243 303.216 151.364 302.87 151.548 302.558C151.733 302.245 151.977 301.972 152.267 301.754C152.557 301.536 152.887 301.378 153.238 301.288C153.59 301.198 153.955 301.178 154.314 301.23C154.673 301.281 155.018 301.403 155.33 301.589C155.641 301.774 155.913 302.019 156.131 302.31L160.556 308.221L171.922 291.139C172.123 290.836 172.381 290.575 172.682 290.372C172.983 290.169 173.321 290.028 173.677 289.956C174.033 289.884 174.399 289.883 174.755 289.953C175.111 290.024 175.45 290.164 175.752 290.366C176.054 290.567 176.313 290.827 176.515 291.129C176.717 291.431 176.857 291.77 176.928 292.127C176.998 292.484 176.998 292.851 176.927 293.207C176.855 293.564 176.714 293.903 176.512 294.205L162.983 314.537C162.739 314.905 162.41 315.209 162.024 315.423C161.638 315.637 161.206 315.755 160.765 315.767C160.739 315.768 160.714 315.768 160.688 315.768Z" fill="white"/>
<path d="M111.198 75.9644C117.699 75.9644 122.969 70.6844 122.969 64.1712C122.969 57.6579 117.699 52.3779 111.198 52.3779C104.698 52.3779 99.4277 57.6579 99.4277 64.1712C99.4277 70.6844 104.698 75.9644 111.198 75.9644Z" fill="#F2F2F2"/>
<path d="M68.2705 415.194C74.7711 415.194 80.0409 409.914 80.0409 403.401C80.0409 396.887 74.7711 391.607 68.2705 391.607C61.7698 391.607 56.5 396.887 56.5 403.401C56.5 409.914 61.7698 415.194 68.2705 415.194Z" fill="#F2F2F2"/>
<path d="M338.991 121.75C345.492 121.75 350.762 116.47 350.762 109.957C350.762 103.444 345.492 98.1636 338.991 98.1636C332.491 98.1636 327.221 103.444 327.221 109.957C327.221 116.47 332.491 121.75 338.991 121.75Z" fill="#F2F2F2"/>
</g>
<defs>
<clipPath id="clip0_492_1379">
<rect width="396" height="478" fill="white"/>
</clipPath>
</defs>
</svg>
