<svg width="482" height="475" viewBox="0 0 482 475" fill="none" xmlns="http://www.w3.org/2000/svg">
<g clip-path="url(#clip0_492_1334)">
<path d="M428.227 361.488L428.217 361.703L439.533 475H356.958L346.254 405.416L341.543 473.216L256.744 472.324L265.752 383.309L273.412 342.049V342.041L274.561 335.832H425.975L426.173 338.08L428.227 361.488Z" fill="#2F2E41"/>
<path d="M210.002 427.167C218.748 428.676 227.867 419.351 230.371 406.338C231.467 400.643 231.113 395.185 229.636 390.721L230.977 383.22L253.48 282.315C253.48 282.315 294.919 203.832 294.917 190.207C294.916 176.582 282.93 169.9 282.93 169.9L266.711 170.043L215.848 287.665L206.687 374.582L205.205 386.507C202.161 390.191 199.797 395.18 198.701 400.875C196.197 413.887 201.257 425.659 210.002 427.167Z" fill="#FFB6B6"/>
<path d="M374.991 121.28L359.916 88.2725L310.921 96.3014L307.623 135.136L374.991 121.28Z" fill="#FFB6B6"/>
<path opacity="0.1" d="M374.991 121.28L359.916 88.2725L310.921 96.3014L307.623 135.136L374.991 121.28Z" fill="black"/>
<path d="M481.461 189.973C481.461 189.973 446.6 128.417 440.004 122.173C437.068 119.393 432.453 119.354 428.233 120.164L379.703 104.33L363.253 95.5796L362.17 112.228L308.166 121.406C308.466 111.253 309.979 107.391 309.979 107.391L290.192 129.309L251.562 147.151L251.583 147.312C248.748 148.249 246.06 149.852 244.024 152.504C236.486 162.317 215.758 281.859 215.758 281.859L260.042 290.78L266.069 254.972L270.406 287.212L273.704 347.429C273.704 347.429 334.005 396.495 363.214 378.653C392.422 360.811 428.226 361.703 428.226 361.703L429.12 333.791C429.756 332.828 430.111 332.263 430.111 332.263L429.169 233.254V206.908C436.347 216.376 445.009 224.519 455.079 228.333C488.057 240.823 481.461 189.973 481.461 189.973V189.973Z" fill="#E6E6E6"/>
<path d="M330.299 102.109C355.192 102.109 375.372 83.0017 375.372 59.4318C375.372 35.862 355.192 16.7549 330.299 16.7549C305.405 16.7549 285.225 35.862 285.225 59.4318C285.225 83.0017 305.405 102.109 330.299 102.109Z" fill="#FFB6B6"/>
<path d="M362.633 71.4929C362.633 71.4929 366.552 58.5042 375.371 59.432C384.19 60.3597 386.15 52.9377 384.19 49.2266C382.23 45.5156 378.311 26.9604 378.311 26.9604C378.311 26.9604 380.271 13.9717 368.512 12.1162C356.754 10.2607 352.834 8.40518 350.875 4.69414C348.915 0.983095 319.519 -2.72795 309.72 2.83862C299.921 8.40518 292.082 19.0854 285.223 22.0951C278.364 25.1049 272.485 30.6714 276.405 39.949C280.324 49.2266 286.008 67.3716 286.008 67.3716C286.008 67.3716 296.002 64.0708 297.962 69.6373C299.921 75.2039 292.082 67.7818 301.881 52.9376C311.68 38.0935 311.68 23.2493 327.358 28.8159C343.036 34.3825 360.673 32.5269 358.714 43.66C356.754 54.7932 362.633 71.4929 362.633 71.4929V71.4929Z" fill="#2F2E41"/>
<path d="M359.877 409.819H17.5564C7.87562 409.819 0 402.361 0 393.196V221.026C0 211.861 7.87562 204.403 17.5564 204.403H359.877C369.558 204.403 377.433 211.861 377.433 221.026V393.196C377.433 402.361 369.558 409.819 359.877 409.819Z" fill="white"/>
<path d="M359.877 409.819H17.5564C7.87562 409.819 0 402.361 0 393.196V221.026C0 211.861 7.87562 204.403 17.5564 204.403H359.877C369.558 204.403 377.433 211.861 377.433 221.026V393.196C377.433 402.361 369.558 409.819 359.877 409.819ZM17.5564 207.179C9.49255 207.179 2.93179 213.391 2.93179 221.026V393.196C2.93179 400.831 9.49255 407.043 17.5564 407.043H359.877C367.941 407.043 374.502 400.831 374.502 393.196V221.026C374.502 213.391 367.941 207.179 359.877 207.179H17.5564Z" fill="#3F3D56"/>
<path d="M333.456 225.223C335.885 225.223 337.854 223.358 337.854 221.059C337.854 218.759 335.885 216.895 333.456 216.895C331.028 216.895 329.059 218.759 329.059 221.059C329.059 223.358 331.028 225.223 333.456 225.223Z" fill="#3F3D56"/>
<path d="M345.183 225.223C347.612 225.223 349.581 223.358 349.581 221.059C349.581 218.759 347.612 216.895 345.183 216.895C342.754 216.895 340.785 218.759 340.785 221.059C340.785 223.358 342.754 225.223 345.183 225.223Z" fill="#3F3D56"/>
<path d="M356.911 225.223C359.34 225.223 361.309 223.358 361.309 221.059C361.309 218.759 359.34 216.895 356.911 216.895C354.483 216.895 352.514 218.759 352.514 221.059C352.514 223.358 354.483 225.223 356.911 225.223Z" fill="#3F3D56"/>
<path d="M24.9196 288.374C23.707 288.374 22.7207 289.308 22.7207 290.456C22.7207 291.016 22.949 291.533 23.3635 291.916C23.7815 292.321 24.329 292.538 24.9196 292.538H353.978C355.191 292.538 356.177 291.604 356.177 290.456C356.177 289.896 355.949 289.378 355.534 288.996C355.116 288.591 354.569 288.374 353.978 288.374H24.9196Z" fill="#E6E6E6"/>
<path d="M312.934 287.68V293.231H24.9201C24.1139 293.231 23.3809 292.926 22.8532 292.413C22.3107 291.913 21.9883 291.219 21.9883 290.456C21.9883 288.929 23.3076 287.68 24.9201 287.68H312.934Z" fill="#2DB2C4"/>
<path d="M350.314 277.271H320.996C317.763 277.271 315.133 274.781 315.133 271.719C315.133 268.657 317.763 266.167 320.996 266.167H350.314C353.548 266.167 356.178 268.657 356.178 271.719C356.178 274.781 353.548 277.271 350.314 277.271Z" fill="#E6E6E6"/>
<path d="M158.282 248.124H27.1195C23.8863 248.124 21.2559 245.634 21.2559 242.572C21.2559 239.51 23.8863 237.02 27.1195 237.02H158.282C161.515 237.02 164.146 239.51 164.146 242.572C164.146 245.634 161.515 248.124 158.282 248.124Z" fill="#E6E6E6"/>
<path d="M24.9196 350.832C23.707 350.832 22.7207 351.765 22.7207 352.913C22.7207 353.473 22.949 353.991 23.3635 354.373C23.7815 354.778 24.329 354.995 24.9196 354.995H353.978C355.191 354.995 356.177 354.061 356.177 352.913C356.177 352.354 355.949 351.836 355.534 351.454C355.116 351.048 354.569 350.832 353.978 350.832H24.9196Z" fill="#E6E6E6"/>
<path d="M200.06 350.137V355.689H24.9201C24.1139 355.689 23.3809 355.384 22.8532 354.87C22.3107 354.37 21.9883 353.676 21.9883 352.913C21.9883 351.386 23.3076 350.137 24.9201 350.137H200.06Z" fill="#2DB2C4"/>
<path d="M350.314 339.728H320.996C317.763 339.728 315.133 337.238 315.133 334.176C315.133 331.114 317.763 328.624 320.996 328.624H350.314C353.548 328.624 356.178 331.114 356.178 334.176C356.178 337.238 353.548 339.728 350.314 339.728Z" fill="#E6E6E6"/>
<path d="M401.639 105.394C426.995 105.394 447.55 86.3423 447.55 62.8408C447.55 39.3393 426.995 20.2876 401.639 20.2876C376.283 20.2876 355.729 39.3393 355.729 62.8408C355.729 86.3423 376.283 105.394 401.639 105.394Z" fill="#2DB2C4"/>
<path d="M417.221 41.3767C411.108 51.9144 404.996 62.4521 398.884 72.9898C394.989 66.473 391.114 59.9447 387.209 53.433C385.861 51.1841 382.192 53.2069 383.544 55.4614C388.071 63.0099 392.551 70.5835 397.078 78.1321C397.852 79.4227 399.977 79.4527 400.743 78.1321C407.457 66.5564 414.171 54.9807 420.886 43.405C422.201 41.1368 418.537 39.1067 417.221 41.3767Z" fill="white"/>
<path d="M465.017 175.006L419.276 154.288C419.276 154.288 417.438 140.421 408.86 135.475C407.402 132.181 405.724 128.562 404.2 125.695C400.431 118.604 406.085 105.222 401.374 105.222C396.663 105.222 389.698 119.296 390.067 123.064C390.35 125.957 392.875 131.008 393.397 135.43C387.652 137.481 383.018 140.997 379.971 143.797C377.334 146.219 376.354 149.834 377.385 153.173C380.371 162.85 387.835 182.835 398.547 182.835C412.68 182.835 416.449 180.159 416.449 180.159C416.449 180.159 445.657 214.951 467.328 217.627C488.999 220.304 465.017 175.006 465.017 175.006V175.006Z" fill="#FFB6B6"/>
</g>
<defs>
<clipPath id="clip0_492_1334">
<rect width="482" height="475" fill="white"/>
</clipPath>
</defs>
</svg>
