<svg width="676" height="361" viewBox="0 0 676 361" fill="none" xmlns="http://www.w3.org/2000/svg">
<g clip-path="url(#clip0_492_1199)">
<path d="M290.155 42.7959H270.56C267.063 42.7959 264.217 39.9521 264.217 36.4571V6.33882C264.217 2.8438 267.063 0 270.56 0H290.155C293.652 0 296.498 2.8438 296.498 6.33882V36.4571C296.498 39.9521 293.652 42.7959 290.155 42.7959V42.7959Z" fill="#E6E6E6"/>
<path d="M333.044 42.7959H313.449C309.951 42.7959 307.105 39.9521 307.105 36.4571V6.33882C307.105 2.8438 309.951 0 313.449 0H333.044C336.542 0 339.387 2.8438 339.387 6.33882V36.4571C339.387 39.9521 336.542 42.7959 333.044 42.7959V42.7959Z" fill="#CCCCCC"/>
<path d="M378.745 42.7959H359.15C355.653 42.7959 352.807 39.9521 352.807 36.4571V6.33882C352.807 2.8438 355.653 0 359.15 0H378.745C382.242 0 385.088 2.8438 385.088 6.33882V36.4571C385.088 39.9521 382.242 42.7959 378.745 42.7959V42.7959Z" fill="#E6E6E6"/>
<path d="M164.392 140.541C167.787 137.088 172.322 136.04 174.521 138.199C176.72 140.359 175.749 144.908 172.352 148.361C171.014 149.76 169.36 150.817 167.529 151.446L152.958 165.894L146.318 158.917L161.388 145.414C161.985 143.573 163.015 141.902 164.392 140.541H164.392Z" fill="#A0616A"/>
<path d="M117.79 128.615L133.068 162.482L157.465 149.286L166.196 153.917C166.196 153.917 146.252 187.234 132.597 183.441C118.942 179.648 94.6932 145.259 99.0622 134.645C103.431 124.031 117.79 128.615 117.79 128.615Z" fill="#3F3D56"/>
<path d="M543.861 15.1597H579.925L594.054 25.3953L557.218 27.4425L543.861 15.1597Z" fill="#E6E6E6"/>
<path d="M0 355.178C0 355.853 0.542928 356.396 1.21902 356.396H609.971C610.647 356.396 611.19 355.853 611.19 355.178C611.19 354.502 610.647 353.959 609.971 353.959H1.21902C0.542928 353.959 0 354.502 0 355.178Z" fill="#3F3D56"/>
<path d="M616.75 96.0491L630.942 102.767C625.121 94.6494 620.105 81.9713 617.42 71.8828C612.873 81.2803 605.544 92.7788 598.289 99.6472L613.289 95.7912C604.046 141.057 569.281 173.553 529.47 173.553L528.906 175.188C570.49 175.188 607.312 143.142 616.75 96.0491V96.0491Z" fill="#3F3D56"/>
<path d="M323.791 72.5071L337.983 79.2252C332.162 71.1074 327.146 58.4293 324.461 48.3408C319.914 57.7383 312.585 69.2368 305.33 76.1053L320.33 72.2492C311.087 117.515 276.322 150.011 236.511 150.011L235.947 151.646C277.531 151.646 314.354 119.6 323.791 72.5071V72.5071Z" fill="#3F3D56"/>
<path d="M541.477 208.725C539.462 206.328 537.05 204.698 534.884 204.071L509.405 175.291C509.405 175.291 507.278 148.501 505.575 139.145C503.873 129.79 492.383 132.341 492.383 132.341L493.66 159.132L500.894 188.049L530.708 213.341C531.228 214.289 531.867 215.236 532.631 216.146C536.258 220.463 541.179 222.301 543.621 220.252C546.064 218.203 545.104 213.042 541.477 208.725Z" fill="#FFB6B6"/>
<path d="M419.09 208.725C421.104 206.328 423.516 204.698 425.683 204.071L451.161 175.291C451.161 175.291 453.289 148.501 454.991 139.145C456.693 129.79 468.183 132.341 468.183 132.341L466.907 159.132L459.672 188.049L429.859 213.341C429.338 214.289 428.7 215.236 427.935 216.146C424.308 220.463 419.388 222.301 416.945 220.252C414.502 218.203 415.462 213.042 419.09 208.725Z" fill="#FFB6B6"/>
<path d="M475.146 128.727L478.102 117.373L489.616 116.82L493.06 132.47L475.146 128.727Z" fill="#FFB6B6"/>
<path opacity="0.1" d="M475.146 128.727L478.102 117.373L489.616 116.82L493.06 132.47L475.146 128.727Z" fill="black"/>
<path d="M445.745 314.728L434.961 314.113L436.376 347.184L443.683 347.601L445.745 314.728Z" fill="#FFB6B6"/>
<path d="M435.441 336.727L439.186 338.434L439.181 340.702C439.181 340.702 440.084 338.077 444.934 337.504L445.512 339.703C445.512 339.703 447.393 341.86 447.071 345.762L445.836 356.21L442.179 356.126L441.589 348.856C441.589 348.856 440.581 347.206 435.941 355.045C435.941 355.045 430.829 356.333 422.914 353.681C421.826 353.316 421.07 352.301 421.084 351.155C421.092 350.522 421.34 349.937 422.134 349.727C424.155 349.194 426.128 349.871 427.433 348.259C428.739 346.647 435.441 336.727 435.441 336.727Z" fill="#2F2E41"/>
<path d="M503.622 314.728L492.838 314.113L494.252 347.184L501.56 347.601L503.622 314.728Z" fill="#FFB6B6"/>
<path d="M493.318 336.727L497.063 338.434L497.058 340.702C497.058 340.702 497.961 338.077 502.811 337.504L503.389 339.703C503.389 339.703 505.27 341.86 504.948 345.762L503.713 356.21L500.056 356.126L499.466 348.856C499.466 348.856 498.458 347.206 493.818 355.045C493.818 355.045 488.706 356.333 480.791 353.681C479.703 353.316 478.947 352.301 478.961 351.155C478.969 350.522 479.216 349.937 480.011 349.727C482.032 349.194 484.005 349.871 485.31 348.259C486.616 346.647 493.318 336.727 493.318 336.727Z" fill="#2F2E41"/>
<path d="M483.999 124.059C491.05 124.059 496.766 118.348 496.766 111.302C496.766 104.256 491.05 98.5444 483.999 98.5444C476.948 98.5444 471.232 104.256 471.232 111.302C471.232 118.348 476.948 124.059 483.999 124.059Z" fill="#FFB6B6"/>
<path d="M491.24 113.423C491.24 113.423 485.626 104.245 480.008 105.258C474.389 106.271 471.46 107.185 471.46 107.185C471.46 107.185 469.171 99.868 476.853 96.3574C476.853 96.3574 465.982 87.262 477.568 81.425C489.155 75.5879 496.365 81.245 496.365 81.245C496.365 81.245 505.955 89.3717 495.322 96.8927C495.322 96.8927 504.525 107.367 495.23 117.373C495.23 117.373 496.871 109.754 494.639 111.316C492.407 112.878 491.24 113.423 491.24 113.423Z" fill="#2F2E41"/>
<path d="M492.595 129.577L475.147 127.451L461.741 138.295C461.741 138.295 455.074 156.857 460.039 168.062C460.158 168.33 460.252 186.985 460.252 186.985H497.323C497.323 186.985 497.287 174.288 498.704 169.689C498.906 169.032 499.138 168.54 499.404 168.275C501.532 166.148 506.639 152.54 504.085 146.587C501.532 140.633 492.595 129.577 492.595 129.577V129.577Z" fill="#E6E6E6"/>
<path d="M460.038 186.135L436.632 260.554L431.525 319.238H445.782L457.911 264.806L474.613 233.298L491.105 323.49H505.495L505.148 201.444L497.292 186.135H460.038Z" fill="#2F2E41"/>
<path d="M479.902 277.642C511.511 277.642 537.136 252.036 537.136 220.45C537.136 188.865 511.511 163.259 479.902 163.259C448.293 163.259 422.668 188.865 422.668 220.45C422.668 252.036 448.293 277.642 479.902 277.642Z" fill="#2DB2C4"/>
<path d="M111.09 354.328L122.23 354.327L127.529 311.39L111.088 311.391L111.09 354.328Z" fill="#A0616A"/>
<path d="M149.258 354.075C149.605 354.659 149.788 356.543 149.788 357.222C149.788 359.309 148.095 361 146.007 361H111.507C110.083 361 108.928 359.846 108.928 358.423V356.987C108.928 356.987 107.221 352.674 110.735 347.357C110.735 347.357 115.102 351.52 121.628 345L123.552 341.516L137.481 351.696L145.202 352.645C146.891 352.853 148.389 352.613 149.258 354.075H149.258L149.258 354.075Z" fill="#2F2E41"/>
<path d="M119.522 130.788L119.747 115.774L110.482 110.002L100.406 122.317L119.522 130.788Z" fill="#A0616A"/>
<path opacity="0.1" d="M119.521 130.788L120.12 116.148L110.48 110.002L113.756 128.12L119.521 130.788Z" fill="black"/>
<path d="M119.551 120.446C128.652 120.446 136.029 113.074 136.029 103.98C136.029 94.8858 128.652 87.5137 119.551 87.5137C110.45 87.5137 103.072 94.8858 103.072 103.98C103.072 113.074 110.45 120.446 119.551 120.446Z" fill="#A0616A"/>
<path d="M142.024 230.068L126.673 334.447H107.414L109.975 274.865L111.323 243.536L107.414 228.624C107.414 228.624 105.632 225.309 104.131 221.291C102.438 216.756 101.102 211.32 103.086 208.743C103.816 207.792 105.714 207.089 108.294 206.565C109.87 206.244 111.705 205.993 113.685 205.798C125.075 204.672 141.275 205.376 141.275 205.376L141.687 218.956L141.915 226.54L142.024 230.068L142.024 230.068Z" fill="#2F2E41"/>
<path d="M91.4688 349.223L102.49 350.841L113.984 309.131L97.7167 306.743L91.4688 349.223Z" fill="#A0616A"/>
<path d="M129.266 354.521C129.525 355.149 129.431 357.039 129.333 357.711C129.029 359.775 127.108 361.203 125.042 360.899L90.9096 355.885C89.5002 355.678 88.5256 354.368 88.7329 352.96L88.9418 351.54C88.9418 351.54 87.8812 347.024 92.1314 342.275C92.1314 342.275 95.846 347.028 103.251 341.526L105.662 338.359L117.962 350.455L125.462 352.517C127.103 352.968 128.619 352.948 129.266 354.521H129.266H129.266Z" fill="#2F2E41"/>
<path d="M142.264 212.66L140.158 230.779L128.676 268.96L109.775 331.818L90.7227 329.021L107.822 239.645L106.129 224.319C106.129 224.319 105.577 222.796 104.945 220.566C103.691 216.154 102.117 208.968 103.848 205.303C104.082 204.805 104.376 204.373 104.739 204.023C105.419 203.363 106.803 202.962 108.657 202.75C116.407 201.874 132.366 204.378 139.468 205.606L142.264 212.66L142.264 212.66Z" fill="#2F2E41"/>
<path d="M102.524 119.141L121.244 128.12C121.244 128.12 141.087 186.857 141.087 189.85C141.087 192.842 146.703 194.713 143.334 198.08C139.964 201.447 149.605 204.299 144.41 206.988C139.215 209.678 106.807 224.389 103.204 223.063C93.2648 219.404 103.625 205.959 103.625 205.959C103.625 205.959 96.159 199.951 97.2822 196.958C98.4054 193.965 90.543 136.724 90.543 136.724L102.524 119.141H102.524Z" fill="#3F3D56"/>
<path d="M118.544 107.924L120.663 112.159C120.663 112.159 122.783 104.535 126.174 102.841C129.565 101.146 129.989 98.6049 129.989 98.6049C129.989 98.6049 134.228 104.111 137.195 102.841C140.162 101.57 141.434 100.723 138.043 95.6399C134.652 90.5569 135.499 93.0984 135.499 93.0984C135.499 93.0984 132.532 88.8626 132.956 90.1334C133.38 91.4041 130.413 86.7447 130.413 88.0155C130.413 89.2862 128.293 85.474 128.293 86.7448C128.293 88.0155 119.391 83.7797 120.663 85.474C121.935 87.1683 113.033 82.0854 108.794 88.8627C104.555 95.6399 98.6773 94.3866 100.768 98.6136C102.859 102.841 102.012 114.277 102.012 114.277H107.858C107.858 114.277 113.881 102.841 118.544 107.924L118.544 107.924Z" fill="#2F2E41"/>
<path d="M594.054 25.3955H559.227V60.1968H594.054V25.3955Z" fill="#E6E6E6"/>
<path d="M675.999 25.3955H675.999V60.1968H641.172V60.1968C641.172 40.9894 656.777 25.3955 675.999 25.3955Z" fill="#E6E6E6"/>
<path d="M617.612 60.1966C626.664 60.1966 634.001 52.8643 634.001 43.8195C634.001 34.7747 626.664 27.4424 617.612 27.4424C608.56 27.4424 601.223 34.7747 601.223 43.8195C601.223 52.8643 608.56 60.1966 617.612 60.1966Z" fill="#CCCCCC"/>
<path d="M559.226 25.3953L543.861 15.1597V42.796L559.226 60.1966" fill="#F2F2F2"/>
<path d="M313.534 14.0938L332.801 13.5117C334.139 13.4713 334.268 11.3797 332.917 11.4205L313.65 12.0025C312.312 12.043 312.184 14.1346 313.534 14.0938Z" fill="white"/>
<path d="M313.534 21.1192L332.801 20.5371C334.139 20.4967 334.268 18.4051 332.917 18.4459L313.65 19.0279C312.312 19.0684 312.184 21.1599 313.534 21.1192Z" fill="white"/>
<path d="M313.534 28.145L332.801 27.563C334.139 27.5226 334.268 25.431 332.917 25.4718L313.65 26.0538C312.312 26.0942 312.184 28.1858 313.534 28.145Z" fill="white"/>
<path d="M270.256 15.8748C273.449 11.989 279.226 15.8885 282.984 16.5469C285.182 16.9321 287.45 16.7288 289.306 15.3974C290.949 14.2185 292.128 12.444 292.44 10.4343C292.646 9.10734 290.614 8.53556 290.406 9.87399C290.113 11.7642 288.946 13.4195 287.173 14.2051C285.032 15.1532 282.576 14.3895 280.493 13.6651C276.78 12.3735 271.764 10.7339 268.764 14.3844C267.91 15.4247 269.394 16.9243 270.256 15.8748V15.8748Z" fill="white"/>
<path d="M270.256 24.3055C273.449 20.4196 279.226 24.3191 282.984 24.9776C285.182 25.3628 287.45 25.1594 289.306 23.8281C290.949 22.6492 292.128 20.8746 292.44 18.865C292.646 17.538 290.614 16.9662 290.406 18.3047C290.113 20.1949 288.946 21.8501 287.173 22.6357C285.032 23.5839 282.576 22.8201 280.493 22.0957C276.78 20.8041 271.764 19.1646 268.764 22.8151C267.91 23.8554 269.394 25.3549 270.256 24.3054V24.3055Z" fill="white"/>
<path d="M214.251 197.866H165.656C162.44 197.866 159.824 195.252 159.824 192.039V122.832C159.824 119.618 162.44 117.004 165.656 117.004H214.251C217.467 117.004 220.083 119.618 220.083 122.832V192.039C220.083 195.252 217.467 197.866 214.251 197.866Z" fill="#2DB2C4"/>
<path d="M360.634 9.04951C361.649 17.6366 361.979 26.2985 361.583 34.9369C361.522 36.2757 363.603 36.6323 363.665 35.2777C364.069 26.4478 363.769 17.6038 362.731 8.82514C362.573 7.48056 360.474 7.6977 360.634 9.04951Z" fill="white"/>
<path d="M367.665 9.04951C368.68 17.6366 369.01 26.2985 368.614 34.9369C368.553 36.2757 370.634 36.6323 370.696 35.2777C371.1 26.4478 370.8 17.6038 369.763 8.82514C369.604 7.48056 367.505 7.6977 367.665 9.04951Z" fill="white"/>
<path d="M374.696 9.04951C375.711 17.6366 376.041 26.2985 375.646 34.9369C375.584 36.2757 377.665 36.6323 377.727 35.2777C378.131 26.4478 377.832 17.6038 376.794 8.82514C376.635 7.48056 374.536 7.6977 374.696 9.04951Z" fill="white"/>
<path d="M159.566 170.897C164.212 169.526 168.686 170.809 169.559 173.764C170.432 176.719 167.374 180.225 162.726 181.596C160.877 182.169 158.917 182.292 157.011 181.953L137.253 187.516L134.838 178.195L154.573 173.701C155.989 172.381 157.701 171.42 159.566 170.897L159.566 170.897Z" fill="#A0616A"/>
<path d="M124.618 137.865L121.521 174.885L149.261 175.183L154.645 183.466C154.645 183.466 121.023 202.919 110.927 192.98C100.831 183.04 96.3393 141.212 105.315 134.052C114.291 126.892 124.618 137.865 124.618 137.865H124.618Z" fill="#3F3D56"/>
<path d="M170.813 143.388L208.801 142.24C211.44 142.16 211.693 138.036 209.03 138.117L171.042 139.264C168.404 139.344 168.15 143.468 170.813 143.388Z" fill="white"/>
<path d="M170.813 157.153L208.801 156.005C211.44 155.926 211.693 151.802 209.03 151.882L171.042 153.03C168.404 153.109 168.15 157.233 170.813 157.153Z" fill="white"/>
<path d="M170.813 170.918L208.801 169.771C211.44 169.691 211.693 165.567 209.03 165.648L171.042 166.795C168.404 166.875 168.15 170.999 170.813 170.918Z" fill="white"/>
</g>
<defs>
<clipPath id="clip0_492_1199">
<rect width="676" height="361" fill="white"/>
</clipPath>
</defs>
</svg>
