<svg width="590" height="386" viewBox="0 0 590 386" fill="none" xmlns="http://www.w3.org/2000/svg">
<path d="M544.362 186.39H65.9366C59.5238 186.39 54.3066 181.178 54.3066 174.771V11.6181C54.3066 5.21184 59.5238 0 65.9366 0H544.362C550.774 0 555.991 5.21184 555.991 11.6181V174.771C555.991 181.178 550.774 186.39 544.362 186.39ZM65.9366 1.38513C60.2885 1.38513 55.6932 5.97576 55.6932 11.6181V174.771C55.6932 180.414 60.2885 185.005 65.9366 185.005H544.362C550.01 185.005 554.605 180.414 554.605 174.771V11.6181C554.605 5.97576 550.01 1.38513 544.362 1.38513H65.9366Z" fill="#3F3D56"/>
<path d="M590 381.298H0V382.463H590V381.298Z" fill="#E6E6E6"/>
<path d="M590 321.737H0V322.902H590V321.737Z" fill="#E6E6E6"/>
<path d="M268.88 192.39C269.304 197.709 272.394 201.802 275.783 201.532C279.171 201.262 281.573 196.732 281.149 191.411C281.009 189.283 280.36 187.22 279.258 185.394L277.178 162.88L266.623 164.081L269.794 186.148C268.995 188.126 268.681 190.266 268.88 192.39Z" fill="#FFB6B6"/>
<path d="M256.271 87.3557C256.271 87.3557 266.138 82.138 271.141 89.9352C276.144 97.7325 279.597 182.061 279.597 182.061L265.73 183.54L263.102 124.116L256.271 87.3557V87.3557Z" fill="#E6E6E6"/>
<path d="M235.795 317.337L243.828 317.336L247.649 286.382L235.793 286.383L235.795 317.337Z" fill="#FFB6B6"/>
<path d="M263.317 317.155C263.567 317.576 263.699 318.934 263.699 319.424C263.699 320.928 262.478 322.147 260.972 322.147H236.094C235.067 322.147 234.234 321.316 234.234 320.289V319.255C234.234 319.255 233.004 316.145 235.537 312.312C235.537 312.312 238.687 315.313 243.392 310.612L244.78 308.101L254.824 315.44L260.392 316.124C261.61 316.274 262.69 316.101 263.317 317.155H263.317H263.317Z" fill="#2F2E41"/>
<path d="M282.28 316.008L290.063 314.021L286.097 283.085L274.609 286.018L282.28 316.008Z" fill="#FFB6B6"/>
<path d="M308.902 309.027C309.248 309.373 309.713 310.656 309.834 311.13C310.207 312.587 309.326 314.071 307.867 314.443L283.763 320.594C282.768 320.848 281.755 320.248 281.501 319.254L281.244 318.251C281.244 318.251 279.281 315.543 280.787 311.202C280.787 311.202 284.581 313.332 287.976 307.614L288.698 304.837L300.249 309.464L305.813 308.751C307.03 308.595 308.033 308.16 308.902 309.027H308.902Z" fill="#2F2E41"/>
<path d="M229.147 80.7011L228.766 77.9398L233.293 66.8948L245.731 65.5142L248.417 81.3265L229.147 80.7011Z" fill="#FFB6B6"/>
<path opacity="0.1" d="M229.147 80.7011L228.766 77.9398L233.293 66.8948L245.731 65.5142L248.417 81.3265L229.147 80.7011Z" fill="black"/>
<path d="M214.636 158.707L209.107 173.894L213.254 182.177L233.984 302.292H247.766L245.04 195.984L276.827 302.292H290.468L279.499 230.499L271.299 164.229L266.326 161.16L242.276 147.662L214.636 158.707Z" fill="#2F2E41"/>
<path d="M249.878 169.062L241.586 170.442L230.529 144.21H255.406L249.878 169.062Z" fill="#E6E6E6"/>
<path d="M266.462 162.158L249.878 169.061L244.349 156.636L241.585 170.442L212.562 161.109L216.709 144.21L212.562 88.985L227.198 79.2377L229.147 77.9399L247.113 79.3206L248.689 80.1766L259.552 86.2237L262.316 131.784L266.462 162.158Z" fill="#2F2E41"/>
<path d="M248.69 80.1766L240.895 113.146L227.199 79.2377L229.148 77.9399L247.114 79.3206L248.69 80.1766Z" fill="#E6E6E6"/>
<path d="M235.366 77.9399L232.602 82.6954L235.366 84.2806L233.984 113.232L239.512 120.739L245.04 109.643L240.894 84.2806L242.276 77.9399H235.366Z" fill="#2F2E41"/>
<path d="M239.512 75.1787C246.763 75.1787 252.642 69.3065 252.642 62.0628C252.642 54.819 246.763 48.9468 239.512 48.9468C232.261 48.9468 226.383 54.819 226.383 62.0628C226.383 69.3065 232.261 75.1787 239.512 75.1787Z" fill="#FFB6B6"/>
<path d="M231.122 63.2133L233.959 64.4502L235.197 57.0293C235.197 57.0293 240.15 54.5556 243.864 55.7925C247.578 57.0293 253.768 55.7925 253.768 55.7925C253.768 55.7925 253.768 43.4243 245.102 43.4243C236.435 43.4243 227.769 44.6611 227.769 48.3716C227.769 52.082 224.055 55.7925 224.055 55.7925C224.055 55.7925 219.102 63.2133 224.055 68.1606C229.007 73.1078 231.483 73.1078 231.483 73.1078L231.122 63.2133Z" fill="#2F2E41"/>
<path d="M205.646 192.002C205.502 197.335 208.14 201.733 211.538 201.824C214.936 201.915 217.807 197.665 217.95 192.33C218.036 190.199 217.611 188.079 216.709 186.146L217.033 163.539L206.41 163.613L207.218 185.892C206.213 187.774 205.674 189.869 205.646 192.002V192.002Z" fill="#FFB6B6"/>
<path d="M218.789 86.1981C218.789 86.1981 209.805 83.4369 205.659 91.7207C201.513 100.004 207.041 184.223 207.041 184.223H220.987L217.286 124.856L218.789 86.1981V86.1981Z" fill="#E6E6E6"/>
<path d="M563.394 243.097L529.894 232.852C529.153 232.625 528.375 232.543 527.603 232.608L357.819 247.043C355.398 247.249 354.79 250.511 356.974 251.574L362.412 254.221H362.267V380.927H367.392V256.644L384.437 264.939C385.741 265.574 387.196 265.833 388.639 265.688L390.453 265.505V380.927H395.578V264.987L526.897 251.736V380.927H532.022V251.219L553.802 249.022V380.927H558.927V248.504L562.9 248.103C565.69 247.822 566.075 243.916 563.394 243.097H563.394Z" fill="#3F3D56"/>
<path d="M407.107 246.542C410.31 246.542 457.714 240.782 457.714 240.782L464.76 250.381L415.435 259.98L407.107 246.542Z" fill="white"/>
<path d="M459.134 376.006L450.898 375.991L447.035 344.25L459.19 344.272L459.134 376.006Z" fill="#A0616A"/>
<path d="M430.917 375.771C430.66 376.202 430.522 377.595 430.521 378.096C430.519 379.638 431.768 380.891 433.312 380.893L458.817 380.937C459.87 380.939 460.725 380.088 460.727 379.035L460.729 377.975C460.729 377.975 461.996 374.789 459.405 370.855C459.405 370.855 456.171 373.926 451.355 369.098L449.937 366.521L439.627 374.027L433.917 374.72C432.668 374.871 431.562 374.692 430.917 375.771H430.917L430.917 375.771Z" fill="#2F2E41"/>
<path d="M503.335 361.246L496.837 366.142L474.84 343.435L484.43 336.209L503.335 361.246Z" fill="#A0616A"/>
<path d="M480.962 377.875C481.017 378.368 481.74 379.547 482.039 379.943C482.957 381.16 484.689 381.402 485.907 380.484L506.029 365.32C506.86 364.694 507.026 363.514 506.399 362.683L505.767 361.847C505.767 361.847 504.863 358.581 500.472 357.025C500.472 357.025 499.758 361.372 493.081 360.439L490.425 359.253L486.783 371.311L482.698 375.259C481.804 376.122 480.825 376.641 480.962 377.875L480.962 377.875Z" fill="#2F2E41"/>
<path d="M486.124 197.201C486.124 204.788 479.967 210.939 472.373 210.939C464.778 210.939 458.621 204.788 458.621 197.201C458.621 189.614 464.778 183.464 472.373 183.464C479.967 183.464 486.124 189.614 486.124 197.201Z" fill="#A0616A"/>
<path d="M484.828 276.408C484.828 276.408 434.197 273.545 431.331 279.271C428.465 284.997 446.825 363.649 446.825 363.649L463.204 360.219L455.214 305.038C455.214 305.038 497.464 316.216 503.196 302.855C508.928 289.495 507.278 284.52 507.278 284.52L484.828 276.408Z" fill="#2F2E41"/>
<path d="M497.8 266.797C497.8 266.797 448.215 277.416 446.967 283.695C445.72 289.975 484.252 360.973 484.252 360.973L499.14 353.337L476.822 302.233C476.822 302.233 520.528 301.847 522.517 287.448C524.507 273.049 521.598 268.687 521.598 268.687L497.8 266.797Z" fill="#2F2E41"/>
<path d="M503.456 212.945H479.633L463.333 239.667C463.333 239.667 459.512 256.935 463.333 258.798C467.154 260.662 467.154 280.703 467.154 280.703L507.277 284.52C507.277 284.52 513.009 224.397 511.098 218.671C509.188 212.945 503.456 212.945 503.456 212.945Z" fill="#2DB2C4"/>
<path d="M465.722 230.601L463.334 258.798L436.471 247.409L430.06 244.188C428.805 242.552 427.175 241.241 425.308 240.363C420.665 238.103 415.735 238.663 414.296 241.613C412.856 244.564 415.452 248.788 420.093 251.047C421.936 251.976 423.975 252.45 426.039 252.43L444.798 263.073L444.82 263.032L444.903 263.18L474.32 275.454L481.089 238.437L465.722 230.601H465.722Z" fill="#A0616A"/>
<path d="M462.855 199.107C462.855 199.107 448.526 201.016 454.258 188.61C454.258 188.61 453.384 181.884 457.642 181.43C461.9 180.975 467.632 173.341 467.632 173.341C467.632 173.341 480.773 166.66 487.577 173.341C494.38 180.021 514.442 219.148 514.442 219.148L501.068 233.463C501.068 233.463 493.027 212.348 483.673 214.794C474.319 217.24 465.721 224.532 465.721 224.532C465.721 224.532 456.228 219.787 460.497 215.65C464.766 211.514 462.855 199.107 462.855 199.107Z" fill="#2F2E41"/>
<path d="M481.962 220.103C481.962 220.103 475.275 211.514 470.498 218.194C465.722 224.875 461.9 233.464 461.9 233.464L481.006 240.144L481.962 220.103H481.962Z" fill="#2DB2C4"/>
<path d="M554.505 379.027L532.307 308.545L532.311 308.544H532.362L532.272 308.429L532.27 308.427L530.689 303.406L530.69 303.406C533.099 301.332 534.739 298.369 535.065 294.959L524.918 239.208C525.617 231.887 519.999 225.488 512.638 225.225L489.744 225.168C483.236 224.937 477.598 229.634 476.65 236.072L476.144 239.489L469.13 287.158C468.874 288.873 468.976 290.562 469.38 292.143L464.332 292.802L462.801 293.007L456.747 293.794L456.728 293.8L455.972 293.896H455.152V314.374H455.204V379.826C455.204 380.249 455.549 380.594 455.972 380.594C456.401 380.594 456.747 380.249 456.747 379.826V314.374H465.728L474.69 379.749C474.748 380.133 475.075 380.415 475.459 380.415C475.491 380.415 475.529 380.415 475.561 380.409C475.984 380.351 476.279 379.961 476.221 379.538L467.291 314.374H510.384C514.662 314.374 518.627 313.018 521.855 310.695L538.941 379.629C539.03 379.978 539.344 380.21 539.688 380.21C539.751 380.21 539.815 380.203 539.879 380.186C540.292 380.081 540.541 379.662 540.436 379.249L523.186 309.648C523.415 309.457 523.645 309.254 523.861 309.043L530.72 308.641L553.034 379.49C553.137 379.819 553.441 380.03 553.769 380.03C553.846 380.03 553.924 380.018 554.001 379.994C554.407 379.866 554.633 379.433 554.505 379.027ZM529.223 304.5C529.281 304.468 529.332 304.43 529.383 304.398L529.384 304.397L529.548 304.921L529.223 304.5Z" fill="#E6E6E6"/>
<path d="M118.941 259.557L133.881 250.066L139.954 253.726L118.941 277.846V259.557Z" fill="#FFB6B6"/>
<path d="M98.5125 222.821C98.5125 222.821 88.5897 225.154 93.2592 238.565C97.9288 251.976 113.105 279.965 117.774 278.216C122.444 276.467 123.028 258.974 123.028 258.974C123.028 258.974 122.444 259.557 120.109 257.224C117.774 254.892 117.774 255.957 117.774 253.384C117.774 250.81 115.865 248.902 115.865 248.902L113.689 244.396C113.689 244.396 113.689 223.404 104.933 222.238C96.1777 221.072 98.5125 222.821 98.5125 222.821L98.5125 222.821Z" fill="#E6E6E6"/>
<path d="M144.871 253.098C148.747 249.227 149.948 244.151 147.554 241.76C145.161 239.369 140.079 240.569 136.204 244.44C132.329 248.311 131.128 253.388 133.521 255.779C135.915 258.17 140.996 256.97 144.871 253.098Z" fill="#FFB6B6"/>
<path d="M59.8633 300.082L70.0572 316.938L129.463 313.426L113.645 293.059L59.8633 300.082Z" fill="#E6E6E6"/>
<path d="M77.6139 378.917C77.2679 378.917 76.9665 378.662 76.9183 378.31L59.1667 248.795C59.114 248.411 59.3832 248.057 59.7678 248.004C60.1523 247.949 60.5069 248.22 60.5598 248.605L78.3113 378.12C78.364 378.504 78.0949 378.858 77.7102 378.911C77.6778 378.915 77.6457 378.917 77.6139 378.917Z" fill="#E6E6E6"/>
<path d="M59.8632 379.082C59.4749 379.082 59.1602 378.767 59.1602 378.379V248.725C59.1602 248.337 59.4749 248.022 59.8632 248.022C60.2514 248.022 60.5662 248.337 60.5662 248.725V378.379C60.5662 378.767 60.2514 379.082 59.8632 379.082Z" fill="#E6E6E6"/>
<path d="M148.973 378.566C148.674 378.566 148.397 378.374 148.302 378.075L106.296 244.697C106.18 244.327 106.386 243.933 106.756 243.816C107.126 243.7 107.521 243.906 107.637 244.275L149.644 377.653C149.76 378.023 149.554 378.417 149.184 378.534C149.114 378.556 149.043 378.566 148.973 378.566Z" fill="#E6E6E6"/>
<path d="M136.142 378.731C135.828 378.731 135.542 378.519 135.461 378.202L106.285 260.486C106.19 260.111 106.417 259.728 106.794 259.632C107.171 259.537 107.553 259.764 107.648 260.14L136.824 377.855C136.92 378.231 136.692 378.613 136.316 378.709C136.258 378.724 136.2 378.731 136.142 378.731H136.142Z" fill="#E6E6E6"/>
<path d="M59.8633 250.79L108.548 250.042L117.512 301.136H60.5663L59.8633 250.79Z" fill="#E6E6E6"/>
<path d="M134.68 325.919L122.41 347.499L136.656 350.632L142.595 335.284L134.68 325.919Z" fill="#FFB6B6"/>
<path d="M126.818 343.425C126.818 343.425 126.342 339.906 123.539 341.023C120.736 342.139 112.646 346.29 112.646 346.29C112.646 346.29 133.745 380.538 137.749 378.942C141.754 377.347 136.96 367.666 136.96 367.666L138.018 350.554L126.818 343.425H126.818Z" fill="#2F2E41"/>
<path d="M80.4185 284.047C80.4185 284.047 76.0407 304.164 89.4657 311.161C102.891 318.158 148.711 300.957 148.711 300.957L127.698 332.41L142.29 338.275C142.29 338.275 175.561 294.543 173.226 287.545C170.891 280.548 155.131 279.965 155.131 279.965L119.526 281.714L110.187 278.799L80.4184 284.047H80.4185Z" fill="#2F2E41"/>
<path d="M116.527 335.497L97.2383 351.137L109.366 359.234L120.489 347.097L116.527 335.497Z" fill="#FFB6B6"/>
<path d="M102.828 348.944C102.828 348.944 103.666 345.493 100.648 345.514C97.6305 345.536 88.584 346.461 88.584 346.461C88.584 346.461 95.7614 386.03 100.072 386C104.383 385.97 103.445 375.21 103.445 375.21L110.663 359.655L102.828 348.944Z" fill="#2F2E41"/>
<path d="M81.2383 276.77C81.2383 276.77 69.833 293.916 79.7889 305.314C89.7448 316.712 138.689 317.346 138.689 317.346L107.66 339.004L119.116 349.772C119.116 349.772 166.035 321.132 166.409 313.765C166.783 306.399 152.316 300.127 152.316 300.127L118.514 288.814L110.878 282.703L81.2383 276.77H81.2383Z" fill="#2F2E41"/>
<path d="M110.538 237.055C110.538 237.055 99.4482 232.973 94.1949 232.973C93.693 232.973 93.1968 233.031 92.7007 233.136C89.3386 233.848 86.245 236.734 84.7624 238.308C84.1846 238.927 83.8519 239.341 83.8519 239.341C83.8519 239.341 83.8869 238.938 83.9569 238.233C84.3013 234.524 85.5737 222.355 87.856 214.565C88.6732 211.783 89.6129 209.562 90.6928 208.483C93.2085 205.964 94.37 202.943 94.907 200.693C95.3623 198.763 95.3623 197.404 95.3623 197.404L91.1072 195.573L90.3192 190.43C90.1791 191.037 89.5312 192.22 87.354 194.489C87.1673 194.681 86.9629 194.844 86.747 194.984C83.6067 196.955 77.2036 193.526 73.7539 191.369C75.1898 186.383 77.7931 181.824 82.521 181.077C93.6112 179.328 93.6112 172.914 100.616 179.911C101.193 180.488 101.777 181.042 102.361 181.579C104.602 185.859 105.419 191.596 105.711 195.585C105.921 198.378 105.869 200.32 105.869 200.32C105.869 200.32 108.787 217.813 113.457 221.311C118.126 224.81 110.538 237.055 110.538 237.055Z" fill="#2F2E41"/>
<path d="M88.9415 209.066L81.0547 220.623L98.8643 225.393V209.066H88.9415Z" fill="#FFB6B6"/>
<path opacity="0.1" d="M88.9415 209.066L81.0547 220.623L98.8643 225.393V209.066H88.9415Z" fill="black"/>
<path d="M99.9718 220.197L83.0447 213.2C83.0447 213.2 60.2805 223.113 62.0316 242.355C63.7827 261.597 80.1262 294.834 80.1262 294.834L112.813 280.84L109.311 243.521L99.9718 220.197Z" fill="#E6E6E6"/>
<path d="M92.7131 214.225C100.961 214.225 107.647 207.546 107.647 199.307C107.647 191.067 100.961 184.388 92.7131 184.388C84.4654 184.388 77.7793 191.067 77.7793 199.307C77.7793 207.546 84.4654 214.225 92.7131 214.225Z" fill="#FFB6B6"/>
<path d="M112.874 193.905C109.955 196.821 107.62 199.736 107.62 199.736L106.453 195.072C106.453 195.072 106.185 195.27 105.712 195.585C103.861 196.844 98.8942 200.01 94.9076 200.693C93.1332 200.996 91.5572 200.803 90.5299 199.736C88.3527 197.468 87.7048 196.284 87.5647 195.678L86.7767 200.821L82.5216 202.652C82.5216 202.652 82.5216 209.054 87.1911 213.731C87.4188 213.958 87.6406 214.238 87.8566 214.565C90.0863 217.923 91.6856 226.145 92.7012 233.136C93.6001 239.352 94.032 244.588 94.032 244.588C94.032 244.588 89.6135 239.061 84.763 238.308C84.4945 238.268 84.226 238.238 83.9575 238.233C83.8699 238.221 83.7765 238.221 83.689 238.221C78.4357 238.221 67.3455 242.303 67.3455 242.303C67.3455 242.303 59.7575 230.058 64.427 226.559C69.0966 223.06 72.0151 205.567 72.0151 205.567C72.0151 205.567 71.8224 198.08 73.7545 191.369C75.1904 186.383 77.7937 181.824 82.5216 181.077C93.6118 179.328 93.6118 172.914 100.616 179.911C101.194 180.488 101.778 181.042 102.361 181.579C108.887 187.573 115.553 191.229 112.874 193.905Z" fill="#2F2E41"/>
<path d="M47.3743 272.179H41.8281V381.604H47.3743V272.179Z" fill="#3F3D56"/>
<path d="M181.87 272.179H176.324V381.604H181.87V272.179Z" fill="#3F3D56"/>
<path d="M146.513 225.777H109.77V262.483H146.513V225.777Z" fill="#2DB2C4"/>
<path d="M88.5898 264.805L103.529 255.314L109.603 258.974L88.5898 283.094V264.805Z" fill="#FFB6B6"/>
<path d="M68.1609 228.069C68.1609 228.069 58.2381 230.402 62.9077 243.813C67.5772 257.224 82.7533 285.213 87.4229 283.464C92.0924 281.715 92.6761 264.222 92.6761 264.222C92.6761 264.222 92.0924 264.805 89.7577 262.472C87.4229 260.14 87.4229 261.205 87.4229 258.632C87.4229 256.058 85.5132 254.151 85.5132 254.151L83.337 249.644C83.337 249.644 83.337 228.653 74.5816 227.486C65.8261 226.32 68.1609 228.069 68.1609 228.069H68.1609Z" fill="#E6E6E6"/>
<path d="M114.52 258.347C118.395 254.475 119.596 249.399 117.203 247.008C114.809 244.617 109.728 245.817 105.852 249.688C101.977 253.559 100.776 258.636 103.17 261.027C105.563 263.418 110.645 262.218 114.52 258.347Z" fill="#FFB6B6"/>
<path d="M192.962 268.023H25.1895V280.49H192.962V268.023Z" fill="#3F3D56"/>
<path d="M363.416 168.294H338.638C336.674 168.294 335.082 169.885 335.082 171.847V182.055C335.082 184.017 336.674 185.608 338.638 185.608H363.416C365.38 185.608 366.973 184.017 366.973 182.055V171.847C366.973 169.885 365.38 168.294 363.416 168.294Z" fill="#3F3D56"/>
<path d="M415.412 178.502H390.635C388.67 178.502 387.078 180.093 387.078 182.055V182.055C387.078 184.017 388.67 185.608 390.635 185.608H415.412C417.376 185.608 418.969 184.017 418.969 182.055V182.055C418.969 180.093 417.376 178.502 415.412 178.502Z" fill="#2DB2C4"/>
</svg>
