<svg width="615" height="490" viewBox="0 0 615 490" fill="none" xmlns="http://www.w3.org/2000/svg">
<g clip-path="url(#clip0_492_1359)">
<path d="M410.924 107.33C410.833 107.345 410.699 107.368 410.535 107.395C407.335 107.925 387.986 110.909 368.478 103.48C360.214 100.333 363.033 99.5485 344.628 88.6065C323.05 75.7782 317.512 75.8679 315.905 69.8863C312.697 57.942 329.83 39.1653 341.17 40.4016C344.156 40.7271 347.353 42.5066 352.326 41.3C353.419 41.0348 358.202 39.8743 360.534 35.9161C362.614 32.3851 360.852 29.8379 361.689 26.9419C363.884 19.3404 382.188 15.5469 398.236 18.2272C407.466 19.7689 414.645 23.9776 428.626 32.3323C452.961 46.8737 465.128 54.1445 467.863 65.2841C470.455 75.8424 464.234 80.3918 468.759 91.6942C472.971 102.218 479.662 101.515 481.965 110.028C485.67 123.728 471.918 138.763 466.189 145.027C459.908 151.894 453.901 155.662 445.927 160.666C435.917 166.946 430.913 170.086 424.896 169.767C413.986 169.187 381.569 171.159 381.147 162.133C380.988 158.751 341.672 161.52 361.031 125.104C363.406 120.638 409.924 125.409 410.537 122.843" fill="#2F2E41"/>
<path d="M429.752 130.633L463.189 180.498L367.207 199.903L373.321 137.475L429.752 130.633Z" fill="#FFB6B6"/>
<path opacity="0.1" d="M429.752 130.633L463.189 180.498L367.207 199.903L373.321 137.475L429.752 130.633Z" fill="black"/>
<path d="M360.018 167.56L463.54 163.248L509.55 188.403L507.393 350.118L555.56 441.397L312.57 395.398L331.262 326.4L322.635 181.216L360.018 167.56Z" fill="#2DB2C4"/>
<path d="M2.78796 481.72C-0.517053 476.512 -0.907367 470.077 1.74408 464.506L41.1449 381.74C44.0855 375.563 50.407 371.572 57.2495 371.572H554.913C561.565 371.572 567.617 375.23 570.707 381.12L612.939 461.605C615.859 467.169 615.666 473.703 612.426 479.086C609.185 484.468 603.499 487.695 597.216 487.72L17.9187 490H17.8462C11.7051 490 6.07957 486.909 2.78797 481.72H2.78796Z" fill="white"/>
<path d="M2.78796 481.72C-0.517053 476.512 -0.907367 470.077 1.74408 464.506L41.1449 381.74C44.0855 375.563 50.407 371.572 57.2495 371.572H554.913C561.565 371.572 567.617 375.23 570.707 381.12L612.939 461.605C615.859 467.169 615.666 473.703 612.426 479.086C609.185 484.468 603.499 487.695 597.216 487.72L17.9187 490H17.8462C11.7051 490 6.07957 486.909 2.78797 481.72H2.78796ZM57.2495 373.443C51.1252 373.443 45.4673 377.016 42.8354 382.544L3.43452 465.311C1.06126 470.296 1.41044 476.056 4.36871 480.718C7.3151 485.362 12.3496 488.129 17.8465 488.129H17.9114L597.208 485.849C602.832 485.827 607.921 482.937 610.822 478.12C613.722 473.303 613.894 467.454 611.282 462.475L569.049 381.989C566.284 376.718 560.867 373.443 554.913 373.443H57.2495H57.2495Z" fill="#3F3D56"/>
<path d="M508.579 458.359L303.207 444.243C300.175 444.034 297.757 441.99 297.047 439.036C296.336 436.082 297.561 433.163 300.167 431.6L345.581 404.357C346.734 403.665 348.057 403.329 349.398 403.394L527.043 411.467C529.392 411.573 531.49 412.855 532.655 414.897C533.82 416.938 533.857 419.396 532.754 421.471L515.067 454.757C513.88 456.991 511.553 458.375 509.047 458.375C508.892 458.375 508.736 458.37 508.579 458.359Z" fill="#3F3D56"/>
<path d="M301.426 436.007L505.954 450.022L522.129 415.164L346.755 408.288L301.426 436.007Z" fill="white"/>
<path d="M402.074 147.43C436.017 147.43 463.534 119.92 463.534 85.984C463.534 52.0484 436.017 24.5381 402.074 24.5381C368.13 24.5381 340.613 52.0484 340.613 85.984C340.613 119.92 368.13 147.43 402.074 147.43Z" fill="#FFB6B6"/>
<path d="M421.869 89.9604C421.779 89.9758 421.644 89.9986 421.48 90.0257C418.28 90.5553 398.931 93.5399 379.424 86.1106C371.16 82.9633 373.979 82.1789 355.573 71.2369C333.995 58.4086 328.457 58.4982 326.851 52.5166C323.642 40.5723 340.775 21.7957 352.115 23.0319C355.101 23.3574 358.298 25.137 363.272 23.9303C364.364 23.6652 369.147 22.5047 371.479 18.5465C373.559 15.0154 371.797 12.4683 372.634 9.5723C374.83 1.9708 393.134 -1.82275 409.181 0.857602C418.411 2.39925 425.59 6.60802 439.572 14.9627C463.907 29.5041 476.074 36.7749 478.808 47.9144C481.4 58.4728 475.179 63.0222 479.704 74.3245C483.917 84.8484 490.608 84.1455 492.91 92.6588C496.616 106.358 482.863 121.394 477.135 127.657C470.854 134.524 464.847 138.293 456.872 143.296C446.863 149.576 441.858 152.716 435.841 152.397C424.932 151.818 414.081 141.934 413.658 132.908C413.5 129.525 414.911 128.511 418.404 116.883C419.859 112.038 420.869 108.039 421.483 105.473" fill="#2F2E41"/>
<path d="M463.995 419.172C467.949 419.328 470.958 422.87 471.176 426.708C471.403 430.691 468.633 434.36 465.305 436.256C461.406 438.478 456.54 438.834 452.151 438.452C448.202 438.108 443.906 436.88 441.365 433.621C439.227 430.878 438.441 426.734 440.259 423.621C442.062 420.534 445.896 419.681 449.103 420.92C452.497 422.231 454.631 425.317 454.652 428.964C454.676 433.006 452.341 436.741 449.064 438.976C445.53 441.387 441.081 442.162 436.875 442.153C432.291 442.142 427.727 441.18 423.51 439.394C419.559 437.721 415.612 435.308 412.787 432.029C410.139 428.955 408.553 424.69 410.023 420.703C411.229 417.433 414.275 415.429 417.764 415.706C420.958 415.959 424.188 417.812 425.606 420.762C427.205 424.091 426.487 428.085 424.451 431.061C422.101 434.498 418.386 436.429 414.261 436.708C409.87 437.005 405.522 435.445 401.91 433.033C398.566 430.801 395.626 427.943 392.036 426.085C390.308 425.191 388.427 424.623 386.471 424.625C383.979 424.628 381.584 425.446 379.162 425.921C377.108 426.323 374.992 426.558 372.965 425.901C371.231 425.34 369.608 424.311 368.516 422.836C367.483 421.44 367.12 419.691 367.706 418.034C368.165 416.734 370.249 417.294 369.785 418.607C368.715 421.637 372.387 423.864 374.957 424.142C376.906 424.353 378.918 423.79 380.799 423.35C382.76 422.891 384.764 422.423 386.791 422.472C393.972 422.649 398.72 428.786 404.51 432.116C410.597 435.616 419.511 435.86 423.239 428.904C424.593 426.377 424.873 423.019 423.013 420.659C421.463 418.692 418.711 417.516 416.216 417.897C413.083 418.375 411.522 421.359 411.636 424.325C411.775 427.955 414.306 430.904 417.005 433.078C423.012 437.917 430.979 440.382 438.663 439.95C442.269 439.747 446.1 438.808 448.901 436.408C451.321 434.335 452.972 430.963 452.391 427.733C451.888 424.938 449.543 422.817 446.709 422.536C443.811 422.248 441.546 424.305 441.417 427.2C441.271 430.456 443.206 433.173 446.01 434.656C449.186 436.335 453.035 436.544 456.554 436.361C460.291 436.166 464.185 435.182 466.8 432.337C469.03 429.91 469.876 426.31 467.821 423.502C466.913 422.263 465.549 421.39 463.995 421.328C462.612 421.274 462.605 419.117 463.995 419.172Z" fill="#6C63FF"/>
<path d="M365.701 416.863L366.8 410.065L427.816 293.473C428.827 291.542 431.221 290.793 433.153 291.803C435.085 292.813 435.834 295.207 434.823 297.138L373.834 413.679L368.848 418.509C368.258 419.077 367.408 419.199 366.681 418.82C365.955 418.44 365.571 417.671 365.701 416.863H365.701Z" fill="#3F3D56"/>
<path d="M407.29 342.684C414.174 343.98 420.648 346.905 426.169 351.215L426.48 351.281L426.542 350.972L493.042 361.385L488.225 272.956L538.623 245.358L526.711 394.835C524.131 404.381 514.222 409.957 504.721 407.207L420.069 382.864L420.281 381.823L419.985 381.743C413.22 383.567 406.116 383.745 399.268 382.261C382.088 378.785 369.957 367.105 372.171 356.175C374.385 345.245 390.105 339.205 407.29 342.684V342.684Z" fill="#FFB6B6"/>
<path d="M452.756 204.215L509.549 188.403C509.549 188.403 539.384 210.325 542.978 234.043C543.406 236.864 544.592 368.263 543.338 371.68C534.048 396.993 482.95 356.587 482.95 356.587L452.756 204.215Z" fill="#2DB2C4"/>
<path d="M206.413 440.383L200.525 435.338H200.525C199.648 434.586 198.583 434.089 197.443 433.898L66.2554 412.039C63.2612 411.54 61.0493 409.378 60.4828 406.396C59.9166 403.415 61.1817 400.592 63.7849 399.031L110.587 370.957C112.151 370.018 113.992 369.723 115.772 370.125L282.107 407.696C285.341 408.426 287.499 411.038 287.605 414.351C287.711 417.664 285.724 420.409 282.543 421.344L212.996 441.795C212.336 441.989 211.663 442.084 210.996 442.084C209.336 442.084 207.712 441.496 206.413 440.383Z" fill="#3F3D56"/>
<path d="M143.237 277.346C149.74 279.95 155.524 284.073 160.107 289.369L160.398 289.495L160.52 289.204L223.745 312.291L291.252 203.014L328.572 226.138L250.3 351.625C245.92 360.491 235.118 364.043 226.33 359.507L147.994 319.24L148.403 318.259L148.128 318.123C141.137 318.604 134.133 317.403 127.702 314.621C111.521 307.886 101.881 294.08 106.17 283.785C110.459 273.49 127.051 270.607 143.237 277.346L143.237 277.346Z" fill="#FFB6B6"/>
<path d="M363.669 222.742L333.81 178.101C333.81 178.101 298.278 185.132 283.642 204.141C281.812 206.517 218.967 297.641 218.562 301.617C215.728 329.454 287.957 342.498 287.957 342.498L363.669 222.742Z" fill="#2DB2C4"/>
<path d="M203.164 441.724L52.7823 420.944C47.7493 420.249 43.5952 416.644 42.1989 411.759L7.66028 290.903C6.48996 286.806 7.36367 282.565 10.0574 279.265C12.7512 275.964 16.7312 274.259 20.981 274.583L172.49 286.188C177.971 286.608 182.573 290.467 183.941 295.79L217.351 425.822C218.417 429.971 217.351 434.357 214.499 437.554C212.043 440.308 208.56 441.846 204.929 441.846C204.343 441.846 203.753 441.806 203.164 441.724Z" fill="#3F3D56"/>
<path d="M169.643 194.177C170.522 195.144 173.712 194.159 180.056 192.15C184.878 190.623 185.621 190.067 186.079 189.668C187.692 188.268 188.114 186.795 189.712 180.287C192.579 168.608 192.667 167.448 194.139 164.969C194.646 164.116 195.927 162.08 195.615 161.828C195.294 161.568 193.908 163.689 191.347 164.491C188.85 165.272 187.727 164.021 185.596 164.339C182.841 164.751 181.203 167.367 178.633 171.602C176.358 175.352 176.072 176.861 172.882 184.312C171.978 186.422 171.251 188.056 170.692 189.347C164.429 195.191 158.217 201.113 152.062 207.085C152.181 206.904 152.292 206.733 152.389 206.584C155.116 202.399 155.486 200.155 155.447 198.474C155.383 195.75 154.081 193.676 151.482 189.637C148.934 185.68 146.52 183.069 143.612 179.953C139.8 175.869 137.893 173.827 137.134 173.961C131.713 174.921 130.263 211.829 137.084 218.43C136.127 219.114 135.334 219.83 134.761 220.535C128.921 214.053 118.918 206.811 107.836 205.92C101.004 205.37 97.2339 207.513 96.0615 208.249C90.6426 211.652 87.4206 218.462 89.0388 220.384C90.5477 222.176 94.9057 218.102 103.447 218.327C109.407 218.483 114.062 220.645 116.826 221.928C122.623 224.62 124.744 227.267 129.019 229.08C127.015 230.731 125.427 232.791 124.43 234.713C124.085 235.069 123.741 235.427 123.396 235.783C118.985 233.298 114.018 231.475 108.812 231.056C101.98 230.506 98.2096 232.65 97.0371 233.386C93.3851 235.679 90.7385 239.517 89.8915 242.366C89.3379 242.477 88.8256 242.604 88.3566 242.741C86.701 239.001 81.7741 235.056 77.1931 233.068C69.3074 229.646 59.0641 230.553 57.968 233.807C57.9331 233.911 57.9243 234.013 57.9089 234.115C58.7733 227.143 59.9469 220.218 61.4134 213.345C61.463 213.541 61.5255 213.739 61.6087 213.948C63.5553 218.836 68.8155 223.528 75.9855 225.962C81.613 227.872 83.9702 226.882 84.5688 226.606C85.1408 226.341 87.6114 225.281 88.2167 223.173C89.3389 219.265 82.4664 207.714 78.1314 211.588C64.2031 224.036 62.2918 213.957 61.6521 212.26C62.8362 206.826 64.1993 201.423 65.728 196.05C65.7543 196.083 65.7771 196.115 65.8045 196.148C68.8476 199.838 74.7038 202.438 81.5856 202.552C86.9869 202.642 88.7517 201.131 89.1931 200.725C89.6145 200.338 91.4581 198.734 91.3961 196.741C91.2814 193.047 84.7078 190.038 79.4484 189.517C74.6018 189.036 69.3829 190.519 66.7941 192.398C67.9978 188.375 69.2925 184.369 70.6736 180.381C74.2107 181.825 79.2211 181.631 84.1432 179.431C88.2023 177.617 88.9916 175.875 89.1792 175.419C89.3584 174.983 90.1744 173.145 89.4339 171.681C88.061 168.966 82.111 169.012 78.0073 170.455C76.3171 171.049 74.7108 171.964 73.3341 172.997C75.7816 166.46 78.4496 159.969 81.3189 153.527L78.4433 152.808C74.7778 161.038 71.5821 169.376 68.8356 177.805C68.4941 175.333 67.6383 172.699 66.5115 170.56C63.1982 164.268 56.1211 159.548 53.7278 161.079C53.249 161.386 53.0475 161.884 52.8653 162.478C51.3982 167.258 52.5031 173.864 56.3668 179.932C59.3992 184.696 61.7347 185.364 62.3431 185.515C62.8568 185.643 64.8399 186.191 66.4699 185.485C65.3736 189.241 64.3601 193.013 63.4358 196.801C62.3236 194.04 60.1318 191.099 57.8138 189.065C52.4685 184.374 44.1707 182.497 42.4837 184.783C42.1464 185.241 42.1367 185.779 42.179 186.398C42.5192 191.386 45.9143 197.16 51.6936 201.445C56.2297 204.809 58.6499 204.598 59.2721 204.522C59.6384 204.477 60.7452 204.367 61.8123 203.884C60.8217 208.487 59.9559 213.113 59.2075 217.758C57.7107 212.562 52.6263 206.079 47.8277 208.141C39.3127 211.801 29.3034 206.18 28.2017 208.638C27.915 209.278 28.1523 209.937 28.4267 210.653C30.6327 216.411 36.7255 221.991 45.0913 224.954C51.6573 227.28 54.4351 226.156 55.141 225.841C55.609 225.632 57.1529 224.987 58.3031 223.79C57.4762 229.759 56.8425 235.758 56.3961 241.783C54.6208 237.908 49.6203 233.825 44.939 231.72C36.7274 228.027 25.9874 228.836 24.7946 232.229C24.5561 232.908 24.7442 233.563 25.0256 234.297C27.29 240.208 33.5434 245.935 42.1302 248.977C48.8696 251.364 51.7206 250.21 52.4453 249.887C52.9747 249.65 54.8444 248.869 56.0367 247.386C55.884 250.172 55.766 252.962 55.6914 255.757C55.6702 256.553 55.6577 257.349 55.6423 258.146C55.5456 258.302 55.4612 258.462 55.405 258.629C55.1749 259.312 55.3315 259.969 55.6016 260.687C55.5956 261.193 55.5925 261.698 55.5891 262.204C54.0867 260.842 52.2946 258.795 50.1389 255.878C48.1939 253.246 46.3468 255.177 45.1603 257.418C43.3002 257.004 41.5259 257.26 40.1306 258.564C30.7735 267.303 20.2785 262.666 20.13 265.272C20.0871 266.024 20.49 266.622 20.9977 267.27C25.0833 272.488 33.1039 276.295 42.6325 276.696C50.111 277.011 52.6087 274.979 53.2343 274.432C53.454 274.24 53.9465 273.826 54.4799 273.243C54.9081 273.585 55.325 273.895 55.7431 274.178C55.9075 279.181 56.2018 284.177 56.6382 289.165C56.2835 289.197 55.9442 289.255 55.6915 289.281C52.069 289.65 50.8485 284.764 45.3764 282.979C43.5591 282.386 40.0581 281.739 38.2131 282.979C37.9474 283.157 37.0409 283.829 35.6343 284.411C34.8029 284.755 34.1677 284.915 33.9152 284.984C31.67 285.598 29.5905 287.282 28.1846 288.421C25.5418 290.562 24.2205 291.633 23.6001 293.578C23.4049 294.19 22.8557 295.911 23.6001 297.588C23.9518 298.38 24.7681 299.559 27.898 300.739C29.7583 301.441 35.1841 303.487 41.6514 301.312C43.1242 300.817 42 300.994 47.6686 298.161C52.1284 295.932 54.7367 294.866 55.1184 292.718C55.2527 291.963 55.1174 291.042 55.6915 290.713C56.0105 290.53 56.3963 290.619 56.7814 290.758C57.1566 294.767 57.6253 298.771 58.1932 302.766H53.09C46.3138 302.766 40.2347 306.536 37.2257 312.606L18.1371 351.107C16.932 353.537 16.2949 356.256 16.2949 358.968V457.969C16.2949 467.73 24.238 475.671 34.0015 475.671H78.557C88.3204 475.671 96.2635 467.73 96.2635 457.969V366.809C96.2635 364.586 95.8517 362.41 95.0395 360.341L76.8471 314.001C74.6406 308.381 69.8617 304.405 64.1491 303.174C65.9815 301.002 67.8166 298.833 69.6662 296.67C71.9949 297.793 74.5567 298.715 77.311 299.362C84.5976 301.075 87.4324 299.548 88.1495 299.129C88.8344 298.728 91.803 297.099 92.3062 294.383C92.3601 294.092 92.3809 293.798 92.3771 293.501C99.841 299.567 103.734 302.557 106.579 301.56C109.025 300.703 110.421 297.894 111.22 295.374C112.055 295.49 112.941 295.609 113.884 295.734C124.107 297.099 129.258 297.732 131.229 295.311C133.956 291.961 131.367 285.501 130.654 283.721C129.103 279.851 126.718 277.497 125.236 276.065C123.312 274.204 117.828 268.903 109.194 268.196C107.317 268.042 105.63 268.16 103.913 268.52C103.314 267.972 102.683 267.436 101.987 266.927C100.662 265.956 99.3529 265.237 97.9442 264.675C100.105 262.308 102.272 259.949 104.449 257.599C104.794 257.756 105.121 257.907 105.422 258.047C112.554 261.358 114.121 264.601 120.98 266.309C124.091 267.083 127.614 267.96 128.486 266.642C130.036 264.3 123.459 254.663 113.297 248.143C113.982 247.418 114.669 246.695 115.356 245.972C116.285 246.361 117.104 246.741 117.801 247.065C124.934 250.377 126.501 253.62 133.36 255.327C136.471 256.101 139.994 256.978 140.866 255.66C142.249 253.57 137.162 245.671 128.831 239.361C131.12 238.635 134.154 237.83 138.083 237.933C144.043 238.089 148.698 240.251 151.462 241.534C158.594 244.846 160.161 248.089 167.02 249.796C170.132 250.571 173.655 251.448 174.527 250.129C176.83 246.648 161.186 227.031 142.472 225.526C141.02 225.409 139.714 225.419 138.534 225.506C138.371 225.236 138.194 224.958 138.007 224.676C144.339 224.88 156.704 223.07 167.229 230.457C170.264 232.588 176.159 237.598 186.026 241.715C189.179 243.031 190.765 243.678 191.202 243.138C192.765 241.204 179.766 225.286 161.478 217.445C154.227 214.336 149.747 214.041 146.561 214.512C147.052 213.953 147.531 213.375 147.991 212.795C155.112 205.812 162.323 198.903 169.599 192.086C169.247 193.175 169.259 193.754 169.643 194.177ZM78.2577 281.083C70.2145 278.48 60.4749 279.878 57.9352 282.84C57.5771 280.215 57.266 277.586 57.0095 274.952C60.6739 276.998 64.4975 277.546 71.7506 278.514C74.8398 278.927 77.4586 279.27 79.6738 279.485C79.9713 280.291 80.2886 281.016 80.6568 281.711C80.6995 281.791 80.7453 281.868 80.7888 281.947L80.7245 282.021C79.8986 281.662 79.071 281.346 78.2577 281.083H78.2577ZM56.8877 245.815C57.1171 245.054 57.1219 244.244 56.9467 243.409C57.197 240.382 57.5094 237.365 57.879 234.358C57.8696 234.818 58.0156 235.279 58.2146 235.778C60.4507 241.393 66.4925 246.782 74.7283 249.577C76.2646 250.099 77.5825 250.428 78.7177 250.629C78.2182 251.499 77.8356 252.347 77.582 253.131C74.7743 250.876 71.1601 249.236 67.0594 250.976C65.9435 251.449 65.2811 253.181 64.7058 255.252C60.9175 255.318 57.752 256.108 56.2443 257.445C56.2524 256.887 56.2496 256.331 56.2645 255.772C56.3494 252.589 56.5064 249.416 56.7275 246.253C56.7879 246.111 56.8423 245.966 56.8877 245.815H56.8877ZM56.255 262.188C56.4182 262.522 56.5971 262.855 56.7828 263.186C56.6143 263.062 56.4417 262.929 56.2647 262.784C56.2599 262.586 56.2587 262.387 56.255 262.188ZM62.723 302.93C62.282 302.871 61.8369 302.83 61.3875 302.804C60.3506 297.657 59.393 292.514 58.5916 287.361C60.6992 290.705 64.1391 293.766 68.5208 296.088C66.5764 298.363 64.6482 300.645 62.723 302.93H62.723ZM96.671 264.22C93.9281 263.339 90.7093 262.917 86.2546 262.4C85.1257 260.831 83.9621 259.676 83.1019 258.844C82.6359 258.394 81.9207 257.501 80.994 256.455C83.3952 255.685 86.9788 254.312 92.0427 254.445C96.645 254.566 100.465 255.882 103.24 257.066C101.042 259.441 98.8537 261.827 96.671 264.22ZM112.216 247.469C109.521 245.841 106.598 244.447 103.521 243.467C103.82 243.464 104.112 243.455 104.423 243.463C108.239 243.564 111.516 244.486 114.108 245.474C113.478 246.139 112.846 246.803 112.216 247.469Z" fill="#CCCCCC"/>
</g>
<defs>
<clipPath id="clip0_492_1359">
<rect width="615" height="490" fill="white"/>
</clipPath>
</defs>
</svg>
