<svg width="177" height="22" viewBox="0 0 177 22" fill="none" xmlns="http://www.w3.org/2000/svg">
<path d="M12 17.6811L19.416 22L17.448 13.86L24 8.38316L15.372 7.67684L12 0L8.628 7.67684L0 8.38316L6.552 13.86L4.584 22L12 17.6811Z" fill="#FFB800"/>
<path d="M50.5 17.6811L57.607 22L55.721 13.86L62 8.38316L53.7315 7.67684L50.5 0L47.2685 7.67684L39 8.38316L45.279 13.86L43.393 22L50.5 17.6811Z" fill="#FFB800"/>
<path d="M89 17.6811L96.416 22L94.448 13.86L101 8.38316L92.372 7.67684L89 0L85.628 7.67684L77 8.38316L83.552 13.86L81.584 22L89 17.6811Z" fill="#FFB800"/>
<path d="M127.5 17.6811L134.607 22L132.721 13.86L139 8.38316L130.732 7.67684L127.5 0L124.268 7.67684L116 8.38316L122.279 13.86L120.393 22L127.5 17.6811Z" fill="#FFB800"/>
<path d="M177 8.38316L168.732 7.66526L165.5 0L162.268 7.67684L154 8.38316L160.279 13.86L158.393 22L165.5 17.6811L172.607 22L170.732 13.86L177 8.38316ZM165.5 15.5158V4.74737L167.466 9.42526L172.503 9.86526L168.686 13.2L169.836 18.1558L165.5 15.5158Z" fill="#FFB800"/>
</svg>
